Cause-Regular.ufo
<glyph name="exclam" format="1">
  <advance width="250"/>
  <unicode hex="0021"/>
  <outline>
    <contour>
      <point x="160" y="232.6" type="curve" smooth="yes"/>
      <point x="153.4" y="304.4"/>
      <point x="149.9" y="378.8"/>
      <point x="149.9" y="453.6" type="curve" smooth="yes"/>
      <point x="149.9" y="525.6"/>
      <point x="153.1" y="598"/>
      <point x="160" y="668.6" type="curve" smooth="yes"/>
      <point x="162.3" y="692.1"/>
      <point x="144.8" y="705.6"/>
      <point x="126.8" y="705.6" type="curve" smooth="yes"/>
      <point x="110.3" y="705.6"/>
      <point x="93.3" y="694.2"/>
      <point x="91" y="668.6" type="curve" smooth="yes"/>
      <point x="83.9" y="588.7"/>
      <point x="80.4" y="510.8"/>
      <point x="80.4" y="435.9" type="curve" smooth="yes"/>
      <point x="80.4" y="363.8"/>
      <point x="83.6" y="294.4"/>
      <point x="90" y="228.6" type="curve" smooth="yes"/>
      <point x="92.3" y="204.4"/>
      <point x="108.9" y="193.2"/>
      <point x="125.4" y="193.2" type="curve" smooth="yes"/>
      <point x="143.9" y="193.2"/>
      <point x="162.1" y="207.2"/>
    </contour>
    <contour>
      <point x="134" y="-10.4" type="curve" smooth="yes"/>
      <point x="165" y="-10.4"/>
      <point x="185" y="9.6"/>
      <point x="185" y="40.6" type="curve" smooth="yes"/>
      <point x="185" y="70.6"/>
      <point x="164" y="89.6"/>
      <point x="134" y="89.6" type="curve" smooth="yes"/>
      <point x="104" y="89.6"/>
      <point x="85" y="70.6"/>
      <point x="85" y="40.6" type="curve" smooth="yes"/>
      <point x="85" y="9.6"/>
      <point x="104" y="-10.4"/>
    </contour>
  </outline>
</glyph>
<glyph name="quotedbl" format="1">
  <advance width="329"/>
  <unicode hex="0022"/>
  <outline>
    <contour>
      <point x="120.4" y="519.3" type="curve" smooth="yes"/>
      <point x="126.8" y="575.1"/>
      <point x="128.2" y="628.9"/>
      <point x="124.8" y="681.6" type="curve" smooth="yes"/>
      <point x="123.6" y="698.9"/>
      <point x="108.7" y="711.2"/>
      <point x="89.1" y="711.2" type="curve" smooth="yes"/>
      <point x="66.6" y="711.2"/>
      <point x="52.4" y="695.1"/>
      <point x="55.4" y="673.1" type="curve" smooth="yes"/>
      <point x="61.6" y="628.9"/>
      <point x="63.4" y="567.9"/>
      <point x="59.9" y="526" type="curve" smooth="yes"/>
      <point x="58.1" y="505.9"/>
      <point x="70.5" y="491.3"/>
      <point x="89.2" y="491.3" type="curve" smooth="yes"/>
      <point x="105.7" y="491.3"/>
      <point x="118.6" y="502.8"/>
    </contour>
    <contour>
      <point x="267.3" y="519.3" type="curve" smooth="yes"/>
      <point x="273.6" y="575.1"/>
      <point x="275.1" y="628.9"/>
      <point x="271.6" y="681.6" type="curve" smooth="yes"/>
      <point x="270.5" y="698.9"/>
      <point x="255.6" y="711.2"/>
      <point x="236" y="711.2" type="curve" smooth="yes"/>
      <point x="213.5" y="711.2"/>
      <point x="199.2" y="695.1"/>
      <point x="202.3" y="673.1" type="curve" smooth="yes"/>
      <point x="208.5" y="628.9"/>
      <point x="210.3" y="567.9"/>
      <point x="206.7" y="526" type="curve" smooth="yes"/>
      <point x="205" y="505.9"/>
      <point x="217.4" y="491.3"/>
      <point x="236" y="491.3" type="curve" smooth="yes"/>
      <point x="252.6" y="491.3"/>
      <point x="265.4" y="502.8"/>
    </contour>
  </outline>
</glyph>
<glyph name="numbersign" format="1">
  <advance width="669"/>
  <unicode hex="0023"/>
  <outline>
    <contour>
      <point x="204.4" y="22.3" type="curve" smooth="yes"/>
      <point x="216.1" y="87.2"/>
      <point x="225.9" y="145"/>
      <point x="234.3" y="199.9" type="curve"/>
      <point x="290.6" y="200.5"/>
      <point x="346.9" y="202.2"/>
      <point x="402.1" y="204.8" type="curve"/>
      <point x="393.8" y="153.1"/>
      <point x="384.1" y="97.5"/>
      <point x="372.6" y="34.9" type="curve" smooth="yes"/>
      <point x="367.8" y="8.7"/>
      <point x="388.1" y="-5.8"/>
      <point x="408.2" y="-5.8" type="curve" smooth="yes"/>
      <point x="424" y="-5.8"/>
      <point x="439.6" y="3.1"/>
      <point x="443.1" y="22.3" type="curve" smooth="yes"/>
      <point x="455.4" y="90.8"/>
      <point x="465.7" y="151.3"/>
      <point x="474.4" y="208.9" type="curve"/>
      <point x="510.2" y="211"/>
      <point x="545.2" y="213.6"/>
      <point x="579" y="216.6" type="curve" smooth="yes"/>
      <point x="598.1" y="218.3"/>
      <point x="608.1" y="235.1"/>
      <point x="608.1" y="251.3" type="curve" smooth="yes"/>
      <point x="608.1" y="269.5"/>
      <point x="595.6" y="286.9"/>
      <point x="568.9" y="283.5" type="curve" smooth="yes"/>
      <point x="542" y="280.1"/>
      <point x="513.5" y="277.1"/>
      <point x="484" y="274.6" type="curve"/>
      <point x="490.4" y="321.3"/>
      <point x="496" y="367.3"/>
      <point x="501.1" y="415.4" type="curve"/>
      <point x="534.5" y="417.5"/>
      <point x="567.3" y="420"/>
      <point x="599" y="422.8" type="curve" smooth="yes"/>
      <point x="618.1" y="424.5"/>
      <point x="628.1" y="441.3"/>
      <point x="628.1" y="457.5" type="curve" smooth="yes"/>
      <point x="628.1" y="475.7"/>
      <point x="615.6" y="493.1"/>
      <point x="588.9" y="489.7" type="curve" smooth="yes"/>
      <point x="563.1" y="486.4"/>
      <point x="535.8" y="483.6"/>
      <point x="507.5" y="481.1" type="curve"/>
      <point x="512.9" y="539.1"/>
      <point x="517.8" y="601.7"/>
      <point x="522.9" y="673.2" type="curve" smooth="yes"/>
      <point x="524.5" y="696.4"/>
      <point x="505" y="708.9"/>
      <point x="485.9" y="708.9" type="curve" smooth="yes"/>
      <point x="469.1" y="708.9"/>
      <point x="452.6" y="699.1"/>
      <point x="451.4" y="678.4" type="curve" smooth="yes"/>
      <point x="447.1" y="603.5"/>
      <point x="442.5" y="538.3"/>
      <point x="436.8" y="476" type="curve"/>
      <point x="381.4" y="472.7"/>
      <point x="323.9" y="470.8"/>
      <point x="267.7" y="470.3" type="curve"/>
      <point x="273.6" y="531.3"/>
      <point x="278.8" y="597.2"/>
      <point x="284.2" y="673.2" type="curve" smooth="yes"/>
      <point x="285.8" y="696.4"/>
      <point x="266.3" y="708.9"/>
      <point x="247.2" y="708.9" type="curve" smooth="yes"/>
      <point x="230.4" y="708.9"/>
      <point x="213.9" y="699.1"/>
      <point x="212.7" y="678.4" type="curve" smooth="yes"/>
      <point x="208.3" y="601.3"/>
      <point x="203.5" y="534.4"/>
      <point x="197.5" y="470.5" type="curve"/>
      <point x="162.7" y="470.9"/>
      <point x="128.9" y="471.9"/>
      <point x="97.1" y="473.4" type="curve" smooth="yes"/>
      <point x="72.5" y="474.6"/>
      <point x="60.1" y="458"/>
      <point x="60.1" y="440.9" type="curve" smooth="yes"/>
      <point x="60.1" y="424.3"/>
      <point x="71.6" y="407.2"/>
      <point x="95.1" y="406.7" type="curve" smooth="yes"/>
      <point x="126.7" y="406"/>
      <point x="158.7" y="405.6"/>
      <point x="190.9" y="405.6" type="curve"/>
      <point x="185.8" y="359.3"/>
      <point x="179.7" y="313.1"/>
      <point x="172.5" y="264.3" type="curve"/>
      <point x="139.5" y="264.8"/>
      <point x="107.4" y="265.8"/>
      <point x="77.1" y="267.3" type="curve" smooth="yes"/>
      <point x="52.5" y="268.4"/>
      <point x="40.1" y="251.8"/>
      <point x="40.1" y="234.7" type="curve" smooth="yes"/>
      <point x="40.1" y="218.1"/>
      <point x="51.6" y="201"/>
      <point x="75.1" y="200.4" type="curve" smooth="yes"/>
      <point x="103.9" y="199.8"/>
      <point x="133.1" y="199.5"/>
      <point x="162.4" y="199.4" type="curve"/>
      <point x="154.4" y="149.3"/>
      <point x="145" y="95.3"/>
      <point x="134" y="34.9" type="curve" smooth="yes"/>
      <point x="129.2" y="8.7"/>
      <point x="149.4" y="-5.8"/>
      <point x="169.6" y="-5.8" type="curve" smooth="yes"/>
      <point x="185.3" y="-5.8"/>
      <point x="201" y="3.1"/>
    </contour>
    <contour>
      <point x="243.8" y="264.1" type="curve"/>
      <point x="250.4" y="311.4"/>
      <point x="256.1" y="357.8"/>
      <point x="261.3" y="406.1" type="curve"/>
      <point x="318" y="406.9"/>
      <point x="374.8" y="408.7"/>
      <point x="430.3" y="411.4" type="curve"/>
      <point x="425.1" y="364.7"/>
      <point x="419.2" y="318.4"/>
      <point x="412" y="269.5" type="curve"/>
      <point x="356.8" y="266.3"/>
      <point x="299.6" y="264.5"/>
    </contour>
  </outline>
</glyph>
<glyph name="dollar" format="1">
  <advance width="495"/>
  <unicode hex="0024"/>
  <outline>
    <contour>
      <point x="284" y="-37" type="curve" smooth="yes"/>
      <point x="281" y="30" type="line"/>
      <point x="377" y="47"/>
      <point x="440" y="118"/>
      <point x="440" y="209" type="curve" smooth="yes"/>
      <point x="440" y="412"/>
      <point x="140" y="375"/>
      <point x="140" y="516" type="curve" smooth="yes"/>
      <point x="140" y="571"/>
      <point x="185" y="608"/>
      <point x="253" y="608" type="curve" smooth="yes"/>
      <point x="290" y="608"/>
      <point x="325" y="597"/>
      <point x="360" y="576" type="curve" smooth="yes"/>
      <point x="382" y="563"/>
      <point x="410" y="579"/>
      <point x="410" y="605" type="curve" smooth="yes"/>
      <point x="410" y="648"/>
      <point x="321" y="666"/>
      <point x="291" y="671" type="curve"/>
      <point x="294" y="737" type="line" smooth="yes"/>
      <point x="295" y="758"/>
      <point x="280" y="773"/>
      <point x="259" y="773" type="curve" smooth="yes"/>
      <point x="238" y="773"/>
      <point x="223" y="758"/>
      <point x="224" y="737" type="curve" smooth="yes"/>
      <point x="228" y="672" type="line"/>
      <point x="133" y="662"/>
      <point x="70" y="597"/>
      <point x="70" y="512" type="curve" smooth="yes"/>
      <point x="70" y="321"/>
      <point x="370" y="357"/>
      <point x="370" y="208" type="curve" smooth="yes"/>
      <point x="370" y="143"/>
      <point x="312" y="92"/>
      <point x="238" y="92" type="curve" smooth="yes"/>
      <point x="192" y="92"/>
      <point x="144" y="112"/>
      <point x="111" y="145" type="curve" smooth="yes"/>
      <point x="87" y="169"/>
      <point x="50" y="154"/>
      <point x="50" y="122" type="curve" smooth="yes"/>
      <point x="50" y="114"/>
      <point x="54" y="106"/>
      <point x="60" y="99" type="curve" smooth="yes"/>
      <point x="105" y="55"/>
      <point x="157" y="30"/>
      <point x="218" y="27" type="curve"/>
      <point x="214" y="-37" type="line" smooth="yes"/>
      <point x="213" y="-58"/>
      <point x="228" y="-73"/>
      <point x="249" y="-73" type="curve" smooth="yes"/>
      <point x="270" y="-73"/>
      <point x="285" y="-58"/>
    </contour>
  </outline>
</glyph>
<glyph name="percent" format="1">
  <advance width="857"/>
  <unicode hex="0025"/>
  <outline>
    <contour>
      <point x="220" y="344" type="curve" smooth="yes"/>
      <point x="317.035" y="344"/>
      <point x="387" y="421.925"/>
      <point x="387" y="530" type="curve" smooth="yes"/>
      <point x="387" y="636.892"/>
      <point x="319.172" y="710"/>
      <point x="220" y="710" type="curve" smooth="yes"/>
      <point x="121.645" y="710"/>
      <point x="55" y="637.7"/>
      <point x="55" y="531" type="curve" smooth="yes"/>
      <point x="55" y="422.033"/>
      <point x="123.853" y="344"/>
    </contour>
    <contour>
      <point x="220" y="410" type="curve" smooth="yes"/>
      <point x="164.236" y="410"/>
      <point x="125" y="459.341"/>
      <point x="125" y="529.468" type="curve" smooth="yes"/>
      <point x="125" y="598.385"/>
      <point x="162.836" y="644"/>
      <point x="220" y="644" type="curve" smooth="yes"/>
      <point x="278.432" y="644"/>
      <point x="317" y="598.068"/>
      <point x="317" y="528.481" type="curve" smooth="yes"/>
      <point x="317" y="458.125"/>
      <point x="277.6" y="410"/>
    </contour>
    <contour>
      <point x="229" y="10" type="curve" smooth="yes"/>
      <point x="366.303" y="191.163"/>
      <point x="529.093" y="435.729"/>
      <point x="657" y="653" type="curve" smooth="yes"/>
      <point x="673.858" y="681.636"/>
      <point x="653.354" y="705"/>
      <point x="630.534" y="705" type="curve" smooth="yes"/>
      <point x="619.154" y="705"/>
      <point x="607.199" y="699.19"/>
      <point x="599.012" y="685.327" type="curve" smooth="yes"/>
      <point x="463.27" y="455.457"/>
      <point x="336.313" y="264.419"/>
      <point x="178" y="52" type="curve" smooth="yes"/>
      <point x="158.048" y="25.2293"/>
      <point x="169.208" y="-6.94555"/>
      <point x="198.445" y="-6.94555" type="curve" smooth="yes"/>
      <point x="209.843" y="-6.94555"/>
      <point x="220.735" y="-0.904892"/>
    </contour>
    <contour>
      <point x="634.998" y="-10" type="curve" smooth="yes"/>
      <point x="732.033" y="-10"/>
      <point x="801.998" y="67.9251"/>
      <point x="801.998" y="176" type="curve" smooth="yes"/>
      <point x="801.998" y="282.892"/>
      <point x="734.17" y="356"/>
      <point x="634.998" y="356" type="curve" smooth="yes"/>
      <point x="536.643" y="356"/>
      <point x="469.998" y="283.7"/>
      <point x="469.998" y="177" type="curve" smooth="yes"/>
      <point x="469.998" y="68.0333"/>
      <point x="538.851" y="-10"/>
    </contour>
    <contour>
      <point x="634.998" y="56" type="curve" smooth="yes"/>
      <point x="579.234" y="56"/>
      <point x="539.998" y="105.341"/>
      <point x="539.998" y="175.468" type="curve" smooth="yes"/>
      <point x="539.998" y="244.385"/>
      <point x="577.834" y="290"/>
      <point x="634.998" y="290" type="curve" smooth="yes"/>
      <point x="693.43" y="290"/>
      <point x="731.998" y="244.068"/>
      <point x="731.998" y="174.481" type="curve" smooth="yes"/>
      <point x="731.998" y="104.125"/>
      <point x="692.598" y="56"/>
    </contour>
  </outline>
</glyph>
<glyph name="ampersand" format="1">
  <advance width="641"/>
  <unicode hex="0026"/>
  <outline>
    <contour>
      <point x="546.5" y="-6.3" type="curve" smooth="yes"/>
      <point x="567.995" y="-6.3"/>
      <point x="580.888" y="9.79294"/>
      <point x="580.888" y="26.5343" type="curve" smooth="yes"/>
      <point x="580.888" y="37.2857"/>
      <point x="575.571" y="48.3045"/>
      <point x="563.8" y="55.5" type="curve" smooth="yes"/>
      <point x="539.7" y="70.2"/>
      <point x="514.7" y="88.8"/>
      <point x="489.4" y="111" type="curve"/>
      <point x="524.8" y="154.1"/>
      <point x="552.6" y="206.7"/>
      <point x="571.4" y="265.8" type="curve" smooth="yes"/>
      <point x="579.2" y="290.3"/>
      <point x="564.6" y="311.6"/>
      <point x="540.2" y="311.6" type="curve" smooth="yes"/>
      <point x="522.9" y="311.6"/>
      <point x="508.9" y="299.9"/>
      <point x="503.7" y="281.1" type="curve" smooth="yes"/>
      <point x="491" y="235.5"/>
      <point x="469.6" y="193.1"/>
      <point x="441.1" y="157.5" type="curve"/>
      <point x="322" y="281.8"/>
      <point x="233.8" y="446"/>
      <point x="233.8" y="543.3" type="curve" smooth="yes"/>
      <point x="233.8" y="601.2"/>
      <point x="263.8" y="640.2"/>
      <point x="308.3" y="640.2" type="curve" smooth="yes"/>
      <point x="346.2" y="640.2"/>
      <point x="373.5" y="610.4"/>
      <point x="373.5" y="569" type="curve" smooth="yes"/>
      <point x="373.5" y="533.5"/>
      <point x="354.4" y="514.7"/>
      <point x="346.3" y="497.8" type="curve" smooth="yes"/>
      <point x="344.048" y="493.123"/>
      <point x="343.011" y="488.301"/>
      <point x="343.011" y="483.616" type="curve" smooth="yes"/>
      <point x="343.011" y="466.662"/>
      <point x="356.596" y="451.5"/>
      <point x="375.4" y="451.5" type="curve" smooth="yes"/>
      <point x="421.729" y="451.5"/>
      <point x="443.6" y="536.992"/>
      <point x="443.6" y="571.6" type="curve" smooth="yes"/>
      <point x="443.6" y="647.6"/>
      <point x="384" y="706"/>
      <point x="306.7" y="706" type="curve" smooth="yes"/>
      <point x="223.1" y="706"/>
      <point x="163.8" y="638.4"/>
      <point x="163.8" y="543.1" type="curve" smooth="yes"/>
      <point x="163.8" y="500.2"/>
      <point x="176" y="448.9"/>
      <point x="199.6" y="392.7" type="curve"/>
      <point x="106.7" y="345.1"/>
      <point x="55.9" y="272.2"/>
      <point x="55.9" y="186.7" type="curve" smooth="yes"/>
      <point x="55.9" y="75.1"/>
      <point x="142.4" y="-5.9"/>
      <point x="261.8" y="-5.9" type="curve" smooth="yes"/>
      <point x="326" y="-5.9"/>
      <point x="388.3" y="17.9"/>
      <point x="441.9" y="62.8" type="curve"/>
      <point x="467" y="40.7"/>
      <point x="492.4" y="20.9"/>
      <point x="517.8" y="3.6" type="curve" smooth="yes"/>
      <point x="527.4" y="-2.9"/>
      <point x="537.2" y="-6.3"/>
    </contour>
    <contour>
      <point x="393.1" y="109.3" type="curve"/>
      <point x="352.3" y="77.1"/>
      <point x="306.5" y="60"/>
      <point x="261.8" y="60" type="curve" smooth="yes"/>
      <point x="183.3" y="60"/>
      <point x="125.9" y="113.2"/>
      <point x="125.9" y="185.9" type="curve" smooth="yes"/>
      <point x="125.9" y="244.2"/>
      <point x="162.9" y="299.9"/>
      <point x="226" y="336.8" type="curve"/>
      <point x="267.6" y="257.5"/>
      <point x="326.5" y="177.3"/>
    </contour>
  </outline>
</glyph>
<glyph name="quotesingle" format="1">
  <advance width="194"/>
  <unicode hex="0027"/>
  <outline>
    <contour>
      <point x="126.1" y="519.3" type="curve" smooth="yes"/>
      <point x="131.258" y="554.144"/>
      <point x="133.826" y="585.822"/>
      <point x="133.826" y="617.442" type="curve" smooth="yes"/>
      <point x="133.826" y="638.546"/>
      <point x="132.682" y="659.625"/>
      <point x="130.4" y="681.6" type="curve" smooth="yes"/>
      <point x="128.6" y="699.1"/>
      <point x="114" y="711.2"/>
      <point x="94.7" y="711.2" type="curve" smooth="yes"/>
      <point x="72" y="711.2"/>
      <point x="57.5" y="694.9"/>
      <point x="61.1" y="673.1" type="curve" smooth="yes"/>
      <point x="68.2" y="628.9"/>
      <point x="70.1" y="567.9"/>
      <point x="65.5" y="526" type="curve" smooth="yes"/>
      <point x="63.3" y="506.2"/>
      <point x="75.9" y="491.3"/>
      <point x="94.8" y="491.3" type="curve" smooth="yes"/>
      <point x="111" y="491.3"/>
      <point x="123.6" y="502.6"/>
    </contour>
  </outline>
</glyph>
<glyph name="parenleft" format="2">
  <advance width="323"/>
  <unicode hex="0028"/>
  <outline>
    <contour>
      <point x="252.582" y="-77.8245" type="curve" smooth="yes"/>
      <point x="171.176" y="26.3055"/>
      <point x="126.729" y="160.38"/>
      <point x="126.729" y="301.806" type="curve" smooth="yes"/>
      <point x="126.729" y="444.145"/>
      <point x="171.748" y="582.992"/>
      <point x="254.1" y="694.641" type="curve" smooth="yes"/>
      <point x="271.552" y="718.301"/>
      <point x="257.178" y="748.697"/>
      <point x="228.537" y="748.697" type="curve" smooth="yes"/>
      <point x="218.58" y="748.697"/>
      <point x="209.477" y="744.125"/>
      <point x="202.686" y="735.715" type="curve" smooth="yes"/>
      <point x="111.771" y="623.114"/>
      <point x="60.2761" y="466.32"/>
      <point x="60.2761" y="302.097" type="curve" smooth="yes"/>
      <point x="60.2761" y="137.392"/>
      <point x="112.069" y="-15.146"/>
      <point x="203.437" y="-119.537" type="curve" smooth="yes"/>
      <point x="209.993" y="-127.028"/>
      <point x="218.482" y="-131.06"/>
      <point x="227.694" y="-131.06" type="curve" smooth="yes"/>
      <point x="256.033" y="-131.06"/>
      <point x="270.316" y="-100.509"/>
    </contour>
  </outline>
</glyph>
<glyph name="parenright" format="1">
  <advance width="323"/>
  <unicode hex="0029"/>
  <outline>
    <contour>
      <point x="119.1" y="-119.5" type="curve" smooth="yes"/>
      <point x="210.5" y="-15.1"/>
      <point x="262.2" y="137.4"/>
      <point x="262.2" y="302.1" type="curve" smooth="yes"/>
      <point x="262.2" y="466.3"/>
      <point x="210.8" y="623.1"/>
      <point x="119.8" y="735.7" type="curve" smooth="yes"/>
      <point x="113" y="744.1"/>
      <point x="103.9" y="748.7"/>
      <point x="94" y="748.7" type="curve" smooth="yes"/>
      <point x="73.8759" y="748.7"/>
      <point x="60.8318" y="733.753"/>
      <point x="60.8318" y="716.65" type="curve" smooth="yes"/>
      <point x="60.8318" y="709.362"/>
      <point x="63.2007" y="701.682"/>
      <point x="68.4" y="694.6" type="curve" smooth="yes"/>
      <point x="150.8" y="583"/>
      <point x="195.8" y="444.1"/>
      <point x="195.8" y="301.8" type="curve" smooth="yes"/>
      <point x="195.8" y="160.4"/>
      <point x="151.3" y="26.3"/>
      <point x="69.9" y="-77.8" type="curve" smooth="yes"/>
      <point x="64.55" y="-84.6612"/>
      <point x="62.1236" y="-92.2442"/>
      <point x="62.1236" y="-99.4858" type="curve" smooth="yes"/>
      <point x="62.1236" y="-116.203"/>
      <point x="75.0539" y="-131.1"/>
      <point x="94.8" y="-131.1" type="curve" smooth="yes"/>
      <point x="104" y="-131.1"/>
      <point x="112.5" y="-127"/>
    </contour>
  </outline>
</glyph>
<glyph name="asterisk" format="1">
  <advance width="397"/>
  <unicode hex="002A"/>
  <outline>
    <contour>
      <point x="168" y="740" type="curve" smooth="yes"/>
      <point x="176" y="636" type="line"/>
      <point x="80" y="676" type="line" smooth="yes"/>
      <point x="60" y="684"/>
      <point x="40" y="668"/>
      <point x="40" y="645" type="curve" smooth="yes"/>
      <point x="40" y="632"/>
      <point x="48" y="622"/>
      <point x="61" y="619" type="curve" smooth="yes"/>
      <point x="162" y="595" type="line"/>
      <point x="95" y="515" type="line" smooth="yes"/>
      <point x="79" y="496"/>
      <point x="94" y="467"/>
      <point x="120" y="467" type="curve" smooth="yes"/>
      <point x="130" y="467"/>
      <point x="138" y="471"/>
      <point x="143" y="480" type="curve" smooth="yes"/>
      <point x="198" y="569" type="line"/>
      <point x="253" y="480" type="line" smooth="yes"/>
      <point x="258" y="471"/>
      <point x="266" y="467"/>
      <point x="276" y="467" type="curve" smooth="yes"/>
      <point x="302" y="467"/>
      <point x="317" y="496"/>
      <point x="301" y="515" type="curve" smooth="yes"/>
      <point x="234" y="595" type="line"/>
      <point x="336" y="619" type="line" smooth="yes"/>
      <point x="349" y="622"/>
      <point x="357" y="632"/>
      <point x="357" y="646" type="curve" smooth="yes"/>
      <point x="357" y="669"/>
      <point x="337" y="684"/>
      <point x="318" y="676" type="curve" smooth="yes"/>
      <point x="220" y="636" type="line"/>
      <point x="228" y="740" type="line" smooth="yes"/>
      <point x="229" y="757"/>
      <point x="217" y="770"/>
      <point x="198" y="770" type="curve" smooth="yes"/>
      <point x="179" y="770"/>
      <point x="167" y="757"/>
    </contour>
  </outline>
</glyph>
<glyph name="plus" format="1">
  <advance width="514"/>
  <unicode hex="002B"/>
  <outline>
    <contour>
      <point x="286.7" y="83.65" type="curve" smooth="yes"/>
      <point x="290.265" y="140.473"/>
      <point x="292.247" y="184.28"/>
      <point x="293.046" y="223.874" type="curve"/>
      <point x="330.393" y="225.636"/>
      <point x="370.329" y="228.165"/>
      <point x="421.55" y="232" type="curve" smooth="yes"/>
      <point x="440.264" y="233.401"/>
      <point x="452.95" y="245.663"/>
      <point x="452.95" y="262.35" type="curve" smooth="yes"/>
      <point x="452.95" y="280.7"/>
      <point x="438.102" y="293.471"/>
      <point x="418.55" y="292" type="curve" smooth="yes"/>
      <point x="368.847" y="288.26"/>
      <point x="329.79" y="285.766"/>
      <point x="293.349" y="284.007" type="curve"/>
      <point x="292.849" y="327.823"/>
      <point x="290.771" y="373.043"/>
      <point x="286.55" y="432" type="curve" smooth="yes"/>
      <point x="285.321" y="449.167"/>
      <point x="271.834" y="461.15"/>
      <point x="253.8" y="461.15" type="curve" smooth="yes"/>
      <point x="232.839" y="461.15"/>
      <point x="218.696" y="445.789"/>
      <point x="220.25" y="424.7" type="curve" smooth="yes"/>
      <point x="224.523" y="366.715"/>
      <point x="226.694" y="322.698"/>
      <point x="227.313" y="281.511" type="curve"/>
      <point x="189.079" y="280.469"/>
      <point x="147.571" y="280"/>
      <point x="93.55" y="280" type="curve" smooth="yes"/>
      <point x="74.5525" y="280"/>
      <point x="61.05" y="267.702"/>
      <point x="61.05" y="250.4" type="curve" smooth="yes"/>
      <point x="61.05" y="232.733"/>
      <point x="75.0186" y="220"/>
      <point x="94.4" y="220" type="curve" smooth="yes"/>
      <point x="146.971" y="220"/>
      <point x="188.56" y="220.465"/>
      <point x="227.113" y="221.483" type="curve"/>
      <point x="226.304" y="183.106"/>
      <point x="224.209" y="141.594"/>
      <point x="220.25" y="88.15" type="curve" smooth="yes"/>
      <point x="218.65" y="66.5545"/>
      <point x="233.346" y="50.2"/>
      <point x="254.35" y="50.2" type="curve" smooth="yes"/>
      <point x="272.618" y="50.2"/>
      <point x="285.434" y="63.4708"/>
    </contour>
  </outline>
</glyph>
<glyph name="comma" format="1">
  <advance width="203"/>
  <unicode hex="002C"/>
  <outline>
    <contour>
      <point x="119" y="-158" type="curve" smooth="yes"/>
      <point x="143" y="-106"/>
      <point x="151" y="-54"/>
      <point x="147" y="10" type="curve" smooth="yes"/>
      <point x="145" y="29"/>
      <point x="131" y="41"/>
      <point x="112" y="41" type="curve" smooth="yes"/>
      <point x="89" y="41"/>
      <point x="75" y="24"/>
      <point x="78" y="1" type="curve" smooth="yes"/>
      <point x="85" y="-45"/>
      <point x="79" y="-89"/>
      <point x="58" y="-142" type="curve" smooth="yes"/>
      <point x="49" y="-163"/>
      <point x="63" y="-183"/>
      <point x="85" y="-183" type="curve" smooth="yes"/>
      <point x="99" y="-183"/>
      <point x="111" y="-174"/>
    </contour>
  </outline>
</glyph>
<glyph name="hyphen" format="1">
  <advance width="513"/>
  <unicode hex="002D"/>
  <outline>
    <contour>
      <point x="421" y="232" type="curve" smooth="yes"/>
      <point x="440" y="233"/>
      <point x="452" y="246"/>
      <point x="452" y="262" type="curve" smooth="yes"/>
      <point x="452" y="281"/>
      <point x="438" y="294"/>
      <point x="418" y="292" type="curve" smooth="yes"/>
      <point x="294" y="283"/>
      <point x="222" y="280"/>
      <point x="93" y="280" type="curve" smooth="yes"/>
      <point x="74" y="280"/>
      <point x="61" y="268"/>
      <point x="61" y="250" type="curve" smooth="yes"/>
      <point x="61" y="233"/>
      <point x="75" y="220"/>
      <point x="94" y="220" type="curve" smooth="yes"/>
      <point x="224" y="220"/>
      <point x="296" y="223"/>
    </contour>
    <contour>
      <point x="255" y="255" type="move" name="_left"/>
    </contour>
  </outline>
</glyph>
<glyph name="period" format="1">
  <advance width="220"/>
  <unicode hex="002E"/>
  <outline>
    <contour>
      <point x="109" y="-10" type="curve" smooth="yes"/>
      <point x="139" y="-10"/>
      <point x="160" y="9"/>
      <point x="160" y="39" type="curve" smooth="yes"/>
      <point x="160" y="70"/>
      <point x="140" y="90"/>
      <point x="109" y="90" type="curve" smooth="yes"/>
      <point x="79" y="90"/>
      <point x="60" y="70"/>
      <point x="60" y="39" type="curve" smooth="yes"/>
      <point x="60" y="9"/>
      <point x="79" y="-10"/>
    </contour>
  </outline>
</glyph>
<glyph name="slash" format="1">
  <advance width="485"/>
  <unicode hex="002F"/>
  <outline>
    <contour>
      <point x="103" y="-8" type="curve" smooth="yes"/>
      <point x="246" y="248"/>
      <point x="320" y="403"/>
      <point x="441" y="693" type="curve" smooth="yes"/>
      <point x="443" y="699"/>
      <point x="445" y="704"/>
      <point x="445" y="710" type="curve" smooth="yes"/>
      <point x="445" y="728"/>
      <point x="431" y="742"/>
      <point x="411" y="742" type="curve" smooth="yes"/>
      <point x="398" y="742"/>
      <point x="387" y="734"/>
      <point x="382" y="721" type="curve" smooth="yes"/>
      <point x="262" y="432"/>
      <point x="187" y="279"/>
      <point x="45" y="23" type="curve" smooth="yes"/>
      <point x="42" y="17"/>
      <point x="40" y="11"/>
      <point x="40" y="5" type="curve" smooth="yes"/>
      <point x="40" y="-12"/>
      <point x="54" y="-26"/>
      <point x="73" y="-26" type="curve" smooth="yes"/>
      <point x="86" y="-26"/>
      <point x="97" y="-20"/>
    </contour>
  </outline>
</glyph>
<glyph name="zero" format="1">
  <advance width="548"/>
  <unicode hex="0030"/>
  <outline>
    <contour>
      <point x="276.9" y="-10" type="curve" smooth="yes"/>
      <point x="418.5" y="-10"/>
      <point x="503" y="134.8"/>
      <point x="503" y="377.5" type="curve" smooth="yes"/>
      <point x="503" y="599.4"/>
      <point x="429.7" y="710"/>
      <point x="282.8" y="710" type="curve" smooth="yes"/>
      <point x="128.6" y="710"/>
      <point x="45" y="588.1"/>
      <point x="45" y="363.4" type="curve" smooth="yes"/>
      <point x="45" y="133"/>
      <point x="133.8" y="-10"/>
    </contour>
    <contour>
      <point x="274.5" y="56" type="curve" smooth="yes"/>
      <point x="175.9" y="56"/>
      <point x="115" y="173.3"/>
      <point x="115" y="363.5" type="curve" smooth="yes"/>
      <point x="115" y="548"/>
      <point x="171.4" y="644"/>
      <point x="279.8" y="644" type="curve" smooth="yes"/>
      <point x="384.6" y="644"/>
      <point x="433" y="558.9"/>
      <point x="433" y="374.4" type="curve" smooth="yes"/>
      <point x="433" y="172.6"/>
      <point x="375" y="56"/>
    </contour>
  </outline>
</glyph>
<glyph name="one" format="1">
  <advance width="374"/>
  <unicode hex="0031"/>
  <outline>
    <contour>
      <point x="282.9" y="31.4" type="curve" smooth="yes"/>
      <point x="275.862" y="173.848"/>
      <point x="272.337" y="277.035"/>
      <point x="272.337" y="372.705" type="curve" smooth="yes"/>
      <point x="272.337" y="468.713"/>
      <point x="275.887" y="557.151"/>
      <point x="283" y="670.1" type="curve" smooth="yes"/>
      <point x="284.6" y="696.2"/>
      <point x="262.1" y="713"/>
      <point x="238.4" y="703.4" type="curve" smooth="yes"/>
      <point x="154.3" y="669.5"/>
      <point x="115" y="655.5"/>
      <point x="73.2" y="644.8" type="curve" smooth="yes"/>
      <point x="56.3" y="640.4"/>
      <point x="45.6" y="628.1"/>
      <point x="45.6" y="612.9" type="curve" smooth="yes"/>
      <point x="45.6" y="593.4"/>
      <point x="64.1" y="574.1"/>
      <point x="96.2" y="582.8" type="curve" smooth="yes"/>
      <point x="142.6" y="595.3"/>
      <point x="173.9" y="605.8"/>
      <point x="210" y="621" type="curve"/>
      <point x="204.916" y="528.428"/>
      <point x="202.31" y="453.135"/>
      <point x="202.31" y="371.915" type="curve" smooth="yes"/>
      <point x="202.31" y="277.397"/>
      <point x="205.839" y="174.851"/>
      <point x="213.1" y="27.7" type="curve" smooth="yes"/>
      <point x="214" y="8"/>
      <point x="228.4" y="-5.8"/>
      <point x="248" y="-5.8" type="curve" smooth="yes"/>
      <point x="269.2" y="-5.8"/>
      <point x="283.9" y="10"/>
    </contour>
  </outline>
</glyph>
<glyph name="two" format="1">
  <advance width="526"/>
  <unicode hex="0032"/>
  <outline>
    <contour>
      <point x="441" y="7" type="curve" smooth="yes"/>
      <point x="464" y="6"/>
      <point x="481" y="20"/>
      <point x="481" y="41" type="curve" smooth="yes"/>
      <point x="481" y="59"/>
      <point x="467" y="72"/>
      <point x="447" y="73" type="curve" smooth="yes"/>
      <point x="346" y="77"/>
      <point x="259" y="76"/>
      <point x="174" y="68" type="curve"/>
      <point x="354" y="221"/>
      <point x="449" y="372"/>
      <point x="449" y="507" type="curve" smooth="yes"/>
      <point x="449" y="629"/>
      <point x="370" y="710"/>
      <point x="251" y="710" type="curve" smooth="yes"/>
      <point x="170" y="710"/>
      <point x="104" y="673"/>
      <point x="56" y="603" type="curve" smooth="yes"/>
      <point x="52" y="597"/>
      <point x="50" y="590"/>
      <point x="50" y="584" type="curve" smooth="yes"/>
      <point x="50" y="566"/>
      <point x="64" y="550"/>
      <point x="84" y="550" type="curve" smooth="yes"/>
      <point x="94" y="550"/>
      <point x="104" y="555"/>
      <point x="111" y="565" type="curve" smooth="yes"/>
      <point x="149" y="618"/>
      <point x="194" y="644"/>
      <point x="249" y="644" type="curve" smooth="yes"/>
      <point x="330" y="644"/>
      <point x="379" y="591"/>
      <point x="379" y="504" type="curve" smooth="yes"/>
      <point x="379" y="382"/>
      <point x="267" y="222"/>
      <point x="71" y="64" type="curve" smooth="yes"/>
      <point x="59" y="54"/>
      <point x="52" y="41"/>
      <point x="52" y="29" type="curve" smooth="yes"/>
      <point x="52" y="8"/>
      <point x="71" y="-7"/>
      <point x="95" y="-5" type="curve" smooth="yes"/>
      <point x="218" y="8"/>
      <point x="326" y="11"/>
    </contour>
  </outline>
</glyph>
<glyph name="three" format="1">
  <advance width="596"/>
  <unicode hex="0033"/>
  <outline>
    <contour>
      <point x="66" y="120" type="curve" smooth="yes"/>
      <point x="113" y="37"/>
      <point x="198" y="-10"/>
      <point x="299" y="-10" type="curve" smooth="yes"/>
      <point x="442" y="-10"/>
      <point x="545" y="87"/>
      <point x="545" y="221" type="curve" smooth="yes"/>
      <point x="545" y="350"/>
      <point x="464" y="435"/>
      <point x="339" y="435" type="curve" smooth="yes"/>
      <point x="326" y="435"/>
      <point x="313" y="434"/>
      <point x="300" y="432" type="curve"/>
      <point x="371" y="502"/>
      <point x="416" y="551"/>
      <point x="483" y="633" type="curve" smooth="yes"/>
      <point x="492" y="644"/>
      <point x="496" y="655"/>
      <point x="496" y="666" type="curve" smooth="yes"/>
      <point x="496" y="688"/>
      <point x="478" y="702"/>
      <point x="453" y="700" type="curve" smooth="yes"/>
      <point x="356" y="693"/>
      <point x="242" y="693"/>
      <point x="137" y="700" type="curve" smooth="yes"/>
      <point x="117" y="701"/>
      <point x="102" y="687"/>
      <point x="102" y="667" type="curve" smooth="yes"/>
      <point x="102" y="649"/>
      <point x="116" y="635"/>
      <point x="136" y="634" type="curve" smooth="yes"/>
      <point x="227" y="629"/>
      <point x="319" y="627"/>
      <point x="395" y="631" type="curve"/>
      <point x="344" y="568"/>
      <point x="258" y="479"/>
      <point x="176" y="403" type="curve" smooth="yes"/>
      <point x="167" y="395"/>
      <point x="162" y="385"/>
      <point x="162" y="374" type="curve" smooth="yes"/>
      <point x="162" y="349"/>
      <point x="191" y="332"/>
      <point x="213" y="343" type="curve" smooth="yes"/>
      <point x="255" y="364"/>
      <point x="291" y="374"/>
      <point x="326" y="374" type="curve" smooth="yes"/>
      <point x="413" y="374"/>
      <point x="475" y="312"/>
      <point x="475" y="224" type="curve" smooth="yes"/>
      <point x="475" y="127"/>
      <point x="400" y="56"/>
      <point x="298" y="56" type="curve" smooth="yes"/>
      <point x="225" y="56"/>
      <point x="162" y="93"/>
      <point x="124" y="158" type="curve" smooth="yes"/>
      <point x="118" y="168"/>
      <point x="108" y="174"/>
      <point x="96" y="174" type="curve" smooth="yes"/>
      <point x="68" y="174"/>
      <point x="52" y="145"/>
    </contour>
  </outline>
</glyph>
<glyph name="four" format="1">
  <advance width="586"/>
  <unicode hex="0034"/>
  <outline>
    <contour>
      <point x="473" y="29" type="curve" smooth="yes"/>
      <point x="470.918" y="72.8184"/>
      <point x="469.377" y="124.022"/>
      <point x="468.357" y="180.41" type="curve"/>
      <point x="483.057" y="181.645"/>
      <point x="498.274" y="182.882"/>
      <point x="514" y="184.2" type="curve" smooth="yes"/>
      <point x="532.787" y="185.774"/>
      <point x="545.65" y="199.318"/>
      <point x="545.65" y="217.5" type="curve" smooth="yes"/>
      <point x="545.65" y="238.114"/>
      <point x="529.565" y="252.166"/>
      <point x="508.15" y="250.25" type="curve" smooth="yes"/>
      <point x="494.129" y="248.995"/>
      <point x="480.544" y="247.815"/>
      <point x="467.343" y="246.705" type="curve"/>
      <point x="466.019" y="391.14"/>
      <point x="468.055" y="544.601"/>
      <point x="473" y="666.5" type="curve" smooth="yes"/>
      <point x="473.912" y="688.988"/>
      <point x="459.079" y="705.95"/>
      <point x="438.5" y="705.95" type="curve" smooth="yes"/>
      <point x="425.697" y="705.95"/>
      <point x="413.559" y="699.073"/>
      <point x="405.15" y="686.95" type="curve" smooth="yes"/>
      <point x="277.369" y="502.721"/>
      <point x="172.568" y="363.864"/>
      <point x="64.15" y="238.45" type="curve" smooth="yes"/>
      <point x="55.4216" y="228.353"/>
      <point x="50.7" y="216.506"/>
      <point x="50.7" y="204.7" type="curve" smooth="yes"/>
      <point x="50.7" y="180.957"/>
      <point x="69.198" y="163.757"/>
      <point x="94.45" y="164.05" type="curve" smooth="yes"/>
      <point x="211.655" y="165.412"/>
      <point x="299.15" y="168.669"/>
      <point x="398.38" y="175.365" type="curve"/>
      <point x="399.378" y="128.422"/>
      <point x="400.944" y="79.6486"/>
      <point x="403" y="29" type="curve" smooth="yes"/>
      <point x="403.83" y="8.54521"/>
      <point x="418.865" y="-5.95"/>
      <point x="439.25" y="-5.95" type="curve" smooth="yes"/>
      <point x="459.803" y="-5.95"/>
      <point x="473.964" y="8.71481"/>
    </contour>
    <contour>
      <point x="397.375" y="241.316" type="curve"/>
      <point x="305.088" y="234.533"/>
      <point x="225.529" y="231.207"/>
      <point x="142.598" y="230.667" type="curve"/>
      <point x="250.274" y="359.392"/>
      <point x="315.925" y="446.364"/>
      <point x="406.632" y="580.449" type="curve"/>
      <point x="399.184" y="478.177"/>
      <point x="396.136" y="366.479"/>
    </contour>
  </outline>
</glyph>
<glyph name="five" format="1">
  <advance width="553"/>
  <unicode hex="0035"/>
  <outline>
    <contour>
      <point x="270" y="-10" type="curve" smooth="yes"/>
      <point x="403" y="-10"/>
      <point x="503" y="89"/>
      <point x="503" y="222" type="curve" smooth="yes"/>
      <point x="503" y="347"/>
      <point x="408" y="442"/>
      <point x="282" y="442" type="curve" smooth="yes"/>
      <point x="246" y="442"/>
      <point x="209" y="435"/>
      <point x="174" y="422" type="curve"/>
      <point x="188" y="497"/>
      <point x="193" y="550"/>
      <point x="196" y="634" type="curve"/>
      <point x="425" y="634" type="line" smooth="yes"/>
      <point x="446" y="634"/>
      <point x="460" y="648"/>
      <point x="460" y="667" type="curve" smooth="yes"/>
      <point x="460" y="686"/>
      <point x="446" y="700"/>
      <point x="425" y="700" type="curve" smooth="yes"/>
      <point x="167" y="700" type="line" smooth="yes"/>
      <point x="141" y="700"/>
      <point x="128" y="689"/>
      <point x="127" y="666" type="curve" smooth="yes"/>
      <point x="124" y="554"/>
      <point x="117" y="490"/>
      <point x="96" y="377" type="curve" smooth="yes"/>
      <point x="91" y="348"/>
      <point x="120" y="328"/>
      <point x="147" y="342" type="curve" smooth="yes"/>
      <point x="194" y="366"/>
      <point x="228" y="376"/>
      <point x="266" y="376" type="curve" smooth="yes"/>
      <point x="364" y="376"/>
      <point x="433" y="312"/>
      <point x="433" y="221" type="curve" smooth="yes"/>
      <point x="433" y="128"/>
      <point x="362" y="56"/>
      <point x="270" y="56" type="curve" smooth="yes"/>
      <point x="210" y="56"/>
      <point x="153" y="86"/>
      <point x="124" y="134" type="curve" smooth="yes"/>
      <point x="118" y="144"/>
      <point x="108" y="150"/>
      <point x="96" y="150" type="curve" smooth="yes"/>
      <point x="63" y="150"/>
      <point x="49" y="116"/>
      <point x="70" y="90" type="curve" smooth="yes"/>
      <point x="123" y="24"/>
      <point x="191" y="-10"/>
    </contour>
  </outline>
</glyph>
<glyph name="six" format="1">
  <advance width="551"/>
  <unicode hex="0036"/>
  <outline>
    <contour>
      <point x="292" y="-10" type="curve" smooth="yes"/>
      <point x="419.005" y="-10"/>
      <point x="511" y="82.205"/>
      <point x="511" y="209.5" type="curve" smooth="yes"/>
      <point x="511" y="334.046"/>
      <point x="424.754" y="423"/>
      <point x="304" y="423" type="curve" smooth="yes"/>
      <point x="245.513" y="423"/>
      <point x="194.326" y="403.175"/>
      <point x="153.097" y="364.554" type="curve"/>
      <point x="188.847" y="471.606"/>
      <point x="269.613" y="579.982"/>
      <point x="356.8" y="638.2" type="curve" smooth="yes"/>
      <point x="370.848" y="647.58"/>
      <point x="378.65" y="660.007"/>
      <point x="378.65" y="673" type="curve" smooth="yes"/>
      <point x="378.65" y="702.813"/>
      <point x="344.592" y="715.64"/>
      <point x="317.65" y="695.95" type="curve" smooth="yes"/>
      <point x="164.925" y="584.332"/>
      <point x="70" y="410.523"/>
      <point x="70" y="242.5" type="curve" smooth="yes"/>
      <point x="70" y="84.9859"/>
      <point x="153.512" y="-10"/>
    </contour>
    <contour>
      <point x="292.55" y="56" type="curve" smooth="yes"/>
      <point x="204.441" y="56"/>
      <point x="140.4" y="120.609"/>
      <point x="140.4" y="209.5" type="curve" smooth="yes"/>
      <point x="140.4" y="296.787"/>
      <point x="202.287" y="357"/>
      <point x="292" y="357" type="curve" smooth="yes"/>
      <point x="380.296" y="357"/>
      <point x="441" y="296.704"/>
      <point x="441" y="209" type="curve" smooth="yes"/>
      <point x="441" y="118.936"/>
      <point x="379.936" y="56"/>
    </contour>
  </outline>
</glyph>
<glyph name="seven" format="1">
  <advance width="519"/>
  <unicode hex="0037"/>
  <outline>
    <contour>
      <point x="228" y="24" type="curve" smooth="yes"/>
      <point x="282" y="213"/>
      <point x="366" y="424"/>
      <point x="471" y="634" type="curve" smooth="yes"/>
      <point x="476" y="644"/>
      <point x="479" y="654"/>
      <point x="479" y="663" type="curve" smooth="yes"/>
      <point x="479" y="685"/>
      <point x="464" y="701"/>
      <point x="439" y="700" type="curve" smooth="yes"/>
      <point x="369" y="698"/>
      <point x="313" y="696"/>
      <point x="256" y="696" type="curve" smooth="yes"/>
      <point x="200" y="696"/>
      <point x="142" y="698"/>
      <point x="66" y="700" type="curve" smooth="yes"/>
      <point x="45" y="701"/>
      <point x="30" y="688"/>
      <point x="30" y="668" type="curve" smooth="yes"/>
      <point x="30" y="649"/>
      <point x="45" y="635"/>
      <point x="65" y="634" type="curve" smooth="yes"/>
      <point x="196" y="629"/>
      <point x="273" y="629"/>
      <point x="392" y="633" type="curve"/>
      <point x="295" y="435"/>
      <point x="205" y="206"/>
      <point x="160" y="40" type="curve" smooth="yes"/>
      <point x="153" y="15"/>
      <point x="168" y="-6"/>
      <point x="192" y="-6" type="curve" smooth="yes"/>
      <point x="209" y="-6"/>
      <point x="223" y="5"/>
    </contour>
  </outline>
</glyph>
<glyph name="eight" format="1">
  <advance width="530"/>
  <unicode hex="0038"/>
  <outline>
    <contour>
      <point x="265" y="-10" type="curve" smooth="yes"/>
      <point x="395.5" y="-10"/>
      <point x="480" y="67.4"/>
      <point x="480" y="187" type="curve" smooth="yes"/>
      <point x="480" y="274.3"/>
      <point x="435.7" y="335.6"/>
      <point x="333.5" y="389.4" type="curve"/>
      <point x="415.1" y="435"/>
      <point x="450" y="482"/>
      <point x="450" y="546" type="curve" smooth="yes"/>
      <point x="450" y="641"/>
      <point x="372.2" y="710"/>
      <point x="265" y="710" type="curve" smooth="yes"/>
      <point x="157.7" y="710"/>
      <point x="80" y="641.6"/>
      <point x="80" y="547.1" type="curve" smooth="yes"/>
      <point x="80" y="483.1"/>
      <point x="114.4" y="435.6"/>
      <point x="193.9" y="390" type="curve"/>
      <point x="94.1" y="334.1"/>
      <point x="50" y="271.5"/>
      <point x="50" y="185.9" type="curve" smooth="yes"/>
      <point x="50" y="67.2"/>
      <point x="134.8" y="-10"/>
    </contour>
    <contour>
      <point x="261.2" y="425.3" type="curve"/>
      <point x="180.6" y="465.7"/>
      <point x="150" y="499.3"/>
      <point x="150" y="547.1" type="curve" smooth="yes"/>
      <point x="150" y="604.4"/>
      <point x="197" y="644"/>
      <point x="265" y="644" type="curve" smooth="yes"/>
      <point x="332.1" y="644"/>
      <point x="380" y="604.4"/>
      <point x="380" y="549" type="curve" smooth="yes"/>
      <point x="380" y="503"/>
      <point x="348.9" y="470.7"/>
    </contour>
    <contour>
      <point x="265" y="56" type="curve" smooth="yes"/>
      <point x="177" y="56"/>
      <point x="120" y="107"/>
      <point x="120" y="185.6" type="curve" smooth="yes"/>
      <point x="120" y="253.3"/>
      <point x="159.4" y="299.2"/>
      <point x="263.7" y="353" type="curve"/>
      <point x="370.5" y="297.5"/>
      <point x="410" y="252.1"/>
      <point x="410" y="184.8" type="curve" smooth="yes"/>
      <point x="410" y="106.8"/>
      <point x="352.8" y="56"/>
    </contour>
  </outline>
</glyph>
<glyph name="nine" format="1">
  <advance width="531"/>
  <unicode hex="0039"/>
  <outline>
    <contour>
      <point x="233" y="4" type="curve" smooth="yes"/>
      <point x="386" y="116"/>
      <point x="481" y="290"/>
      <point x="481" y="458" type="curve" smooth="yes"/>
      <point x="481" y="615"/>
      <point x="398" y="710"/>
      <point x="259" y="710" type="curve" smooth="yes"/>
      <point x="132" y="710"/>
      <point x="40" y="618"/>
      <point x="40" y="491" type="curve" smooth="yes"/>
      <point x="40" y="366"/>
      <point x="126" y="277"/>
      <point x="247" y="277" type="curve" smooth="yes"/>
      <point x="306" y="277"/>
      <point x="357" y="297"/>
      <point x="398" y="335" type="curve"/>
      <point x="362" y="228"/>
      <point x="282" y="120"/>
      <point x="194" y="62" type="curve" smooth="yes"/>
      <point x="178" y="52"/>
      <point x="172" y="39"/>
      <point x="172" y="27" type="curve" smooth="yes"/>
      <point x="172" y="9"/>
      <point x="187" y="-6"/>
      <point x="206" y="-6" type="curve" smooth="yes"/>
      <point x="215" y="-6"/>
      <point x="225" y="-2"/>
    </contour>
    <contour>
      <point x="259" y="343" type="curve" smooth="yes"/>
      <point x="171" y="343"/>
      <point x="110" y="403"/>
      <point x="110" y="491" type="curve" smooth="yes"/>
      <point x="110" y="581"/>
      <point x="171" y="644"/>
      <point x="259" y="644" type="curve" smooth="yes"/>
      <point x="347" y="644"/>
      <point x="411" y="579"/>
      <point x="411" y="491" type="curve" smooth="yes"/>
      <point x="411" y="403"/>
      <point x="349" y="343"/>
    </contour>
  </outline>
</glyph>
<glyph name="colon" format="1">
  <advance width="220"/>
  <unicode hex="003A"/>
  <outline>
    <contour>
      <point x="109" y="340" type="curve" smooth="yes"/>
      <point x="139" y="340"/>
      <point x="160" y="359"/>
      <point x="160" y="389" type="curve" smooth="yes"/>
      <point x="160" y="420"/>
      <point x="140" y="440"/>
      <point x="109" y="440" type="curve" smooth="yes"/>
      <point x="79" y="440"/>
      <point x="60" y="420"/>
      <point x="60" y="389" type="curve" smooth="yes"/>
      <point x="60" y="359"/>
      <point x="79" y="340"/>
    </contour>
    <contour>
      <point x="109" y="-10.2" type="curve" smooth="yes"/>
      <point x="139" y="-10.2"/>
      <point x="160" y="8.8"/>
      <point x="160" y="38.8" type="curve" smooth="yes"/>
      <point x="160" y="69.8"/>
      <point x="140" y="89.8"/>
      <point x="109" y="89.8" type="curve" smooth="yes"/>
      <point x="79" y="89.8"/>
      <point x="60" y="69.8"/>
      <point x="60" y="38.8" type="curve" smooth="yes"/>
      <point x="60" y="8.8"/>
      <point x="79" y="-10.2"/>
    </contour>
  </outline>
</glyph>
<glyph name="semicolon" format="2">
  <advance width="222"/>
  <unicode hex="003B"/>
  <outline>
    <contour>
      <point x="111" y="340.33" type="curve" smooth="yes"/>
      <point x="141" y="340.33"/>
      <point x="162" y="359.33"/>
      <point x="162" y="389.33" type="curve" smooth="yes"/>
      <point x="162" y="420.33"/>
      <point x="142" y="440.33"/>
      <point x="111" y="440.33" type="curve" smooth="yes"/>
      <point x="81" y="440.33"/>
      <point x="62" y="420.33"/>
      <point x="62" y="389.33" type="curve" smooth="yes"/>
      <point x="62" y="359.33"/>
      <point x="81" y="340.33"/>
    </contour>
    <contour>
      <point x="123.703" y="-157.975" type="curve" smooth="yes"/>
      <point x="144.91" y="-105.735"/>
      <point x="153.439" y="-54.1297"/>
      <point x="151.461" y="9.98607" type="curve" smooth="yes"/>
      <point x="150.876" y="28.9588"/>
      <point x="137.065" y="42.0258"/>
      <point x="117.597" y="42.0258" type="curve" smooth="yes"/>
      <point x="95.9633" y="42.0258"/>
      <point x="80.9012" y="26.3574"/>
      <point x="82.6454" y="5.6676" type="curve" smooth="yes"/>
      <point x="86.81" y="-43.7343"/>
      <point x="80.7948" y="-88.1471"/>
      <point x="62.698" y="-141.612" type="curve" smooth="yes"/>
      <point x="55.4156" y="-163.127"/>
      <point x="69.1256" y="-183.516"/>
      <point x="90.8753" y="-183.516" type="curve" smooth="yes"/>
      <point x="105.005" y="-183.516"/>
      <point x="117.18" y="-174.044"/>
    </contour>
  </outline>
</glyph>
<glyph name="less" format="1">
  <advance width="455"/>
  <unicode hex="003C"/>
  <outline>
    <contour>
      <point x="328.9" y="54.8" type="line" smooth="yes"/>
      <point x="335.3" y="50.7"/>
      <point x="341.9" y="48.7"/>
      <point x="348.5" y="48.7" type="curve" smooth="yes"/>
      <point x="368.923" y="48.7"/>
      <point x="381.144" y="64.512"/>
      <point x="381.144" y="80.9789" type="curve" smooth="yes"/>
      <point x="381.144" y="91.6039"/>
      <point x="376.056" y="102.501"/>
      <point x="364.8" y="109.6" type="curve" smooth="yes"/>
      <point x="143.5" y="249" type="line"/>
      <point x="231.8" y="298.9"/>
      <point x="295.4" y="339"/>
      <point x="368" y="391.1" type="curve" smooth="yes"/>
      <point x="379.265" y="399.204"/>
      <point x="384.422" y="410.954"/>
      <point x="384.422" y="422.064" type="curve" smooth="yes"/>
      <point x="384.422" y="438.371"/>
      <point x="373.312" y="453.3"/>
      <point x="354.1" y="453.3" type="curve" smooth="yes"/>
      <point x="346.1" y="453.3"/>
      <point x="337.6" y="450.2"/>
      <point x="329.4" y="444.4" type="curve" smooth="yes"/>
      <point x="255.6" y="391.5"/>
      <point x="186.1" y="348.3"/>
      <point x="70" y="282" type="curve" smooth="yes"/>
      <point x="58" y="275.1"/>
      <point x="51" y="263.5"/>
      <point x="51" y="250.6" type="curve" smooth="yes"/>
      <point x="51" y="237.6"/>
      <point x="58" y="225.6"/>
      <point x="70" y="218" type="curve" smooth="yes"/>
    </contour>
  </outline>
</glyph>
<glyph name="equal" format="1">
  <advance width="511"/>
  <unicode hex="003D"/>
  <outline>
    <contour>
      <point x="419.3" y="313" type="curve" smooth="yes"/>
      <point x="438.1" y="314.9"/>
      <point x="450.7" y="328.2"/>
      <point x="450.7" y="346.3" type="curve" smooth="yes"/>
      <point x="450.7" y="367"/>
      <point x="434.8" y="381.3"/>
      <point x="414.3" y="379" type="curve" smooth="yes"/>
      <point x="302.9" y="366.6"/>
      <point x="196.4" y="362.6"/>
      <point x="99.3" y="367" type="curve" smooth="yes"/>
      <point x="76.7" y="368"/>
      <point x="60.5" y="354.4"/>
      <point x="60.5" y="334.3" type="curve" smooth="yes"/>
      <point x="60.5" y="315.4"/>
      <point x="75" y="301.5"/>
      <point x="95.2" y="301" type="curve" smooth="yes"/>
      <point x="215.5" y="298"/>
      <point x="300.7" y="301.1"/>
    </contour>
    <contour>
      <point x="419.3" y="138.1" type="curve" smooth="yes"/>
      <point x="438.1" y="140"/>
      <point x="450.7" y="153.3"/>
      <point x="450.7" y="171.4" type="curve" smooth="yes"/>
      <point x="450.7" y="192.1"/>
      <point x="434.8" y="206.4"/>
      <point x="414.3" y="204.1" type="curve" smooth="yes"/>
      <point x="302.9" y="191.7"/>
      <point x="196.4" y="187.7"/>
      <point x="99.3" y="192.1" type="curve" smooth="yes"/>
      <point x="76.7" y="193.1"/>
      <point x="60.5" y="179.5"/>
      <point x="60.5" y="159.4" type="curve" smooth="yes"/>
      <point x="60.5" y="140.5"/>
      <point x="75" y="126.6"/>
      <point x="95.2" y="126.1" type="curve" smooth="yes"/>
      <point x="215.5" y="123.1"/>
      <point x="300.7" y="126.2"/>
    </contour>
  </outline>
</glyph>
<glyph name="greater" format="2">
  <advance width="455"/>
  <unicode hex="003E"/>
  <outline>
    <contour>
      <point x="127" y="54.75" type="curve" smooth="yes"/>
      <point x="385.95" y="218" type="line" smooth="yes"/>
      <point x="397.938" y="225.558"/>
      <point x="405" y="237.633"/>
      <point x="405" y="250.6" type="curve" smooth="yes"/>
      <point x="405" y="263.542"/>
      <point x="397.973" y="275.163"/>
      <point x="385.95" y="282" type="curve" smooth="yes"/>
      <point x="270.116" y="347.872"/>
      <point x="200.458" y="391.075"/>
      <point x="126.95" y="444.05" type="curve" smooth="yes"/>
      <point x="118.601" y="450.067"/>
      <point x="109.989" y="453.2"/>
      <point x="101.8" y="453.2" type="curve" smooth="yes"/>
      <point x="70.0407" y="453.2"/>
      <point x="59.0171" y="411.792"/>
      <point x="85.7" y="392.7" type="curve" smooth="yes"/>
      <point x="160.219" y="339.381"/>
      <point x="223.896" y="299.016"/>
      <point x="312.443" y="248.965" type="curve"/>
      <point x="91.15" y="109.6" type="line" smooth="yes"/>
      <point x="62.4243" y="91.5092"/>
      <point x="73.8533" y="48.7"/>
      <point x="107.4" y="48.7" type="curve" smooth="yes"/>
      <point x="114.034" y="48.7"/>
      <point x="120.701" y="50.7786"/>
    </contour>
  </outline>
</glyph>
<glyph name="question" format="2">
  <advance width="458"/>
  <unicode hex="003F"/>
  <outline>
    <contour>
      <point x="234" y="185" type="curve" smooth="yes"/>
      <point x="235.069" y="358.997"/>
      <point x="398" y="381"/>
      <point x="398" y="537" type="curve" smooth="yes"/>
      <point x="398" y="638"/>
      <point x="324.412" y="710"/>
      <point x="221.184" y="710" type="curve" smooth="yes"/>
      <point x="152.886" y="710"/>
      <point x="93.1801" y="678.192"/>
      <point x="57.8195" y="622.968" type="curve" smooth="yes"/>
      <point x="41.602" y="597.641"/>
      <point x="55.7407" y="567.219"/>
      <point x="83.729" y="567.219" type="curve" smooth="yes"/>
      <point x="94.8738" y="567.219"/>
      <point x="104.801" y="573.181"/>
      <point x="111.512" y="583.904" type="curve" smooth="yes"/>
      <point x="135.674" y="622.516"/>
      <point x="174.586" y="644"/>
      <point x="220.358" y="644" type="curve" smooth="yes"/>
      <point x="284.156" y="644"/>
      <point x="328" y="600.176"/>
      <point x="328" y="536.406" type="curve" smooth="yes"/>
      <point x="328" y="412.032"/>
      <point x="165.252" y="382.415"/>
      <point x="164" y="185" type="curve" smooth="yes"/>
      <point x="163.88" y="166.079"/>
      <point x="178.355" y="152.58"/>
      <point x="198.764" y="152.58" type="curve" smooth="yes"/>
      <point x="219.192" y="152.58"/>
      <point x="233.884" y="166.098"/>
    </contour>
    <contour>
      <point x="198" y="-10" type="curve" smooth="yes"/>
      <point x="228" y="-10"/>
      <point x="249" y="9"/>
      <point x="249" y="39" type="curve" smooth="yes"/>
      <point x="249" y="70"/>
      <point x="229" y="90"/>
      <point x="198" y="90" type="curve" smooth="yes"/>
      <point x="168" y="90"/>
      <point x="149" y="70"/>
      <point x="149" y="39" type="curve" smooth="yes"/>
      <point x="149" y="9"/>
      <point x="168" y="-10"/>
    </contour>
  </outline>
</glyph>
<glyph name="at" format="1">
  <advance width="866"/>
  <unicode hex="0040"/>
  <outline>
    <contour>
      <point x="638" y="-101" type="curve" smooth="yes"/>
      <point x="645.9" y="-93.1"/>
      <point x="650.2" y="-83.8"/>
      <point x="650.2" y="-74.1" type="curve" smooth="yes"/>
      <point x="650.2" y="-53.9969"/>
      <point x="635.157" y="-41.3716"/>
      <point x="618.373" y="-41.3716" type="curve" smooth="yes"/>
      <point x="609.776" y="-41.3716"/>
      <point x="600.723" y="-44.6838"/>
      <point x="593" y="-52" type="curve" smooth="yes"/>
      <point x="559.9" y="-83.3"/>
      <point x="489.8" y="-104"/>
      <point x="416.8" y="-104" type="curve" smooth="yes"/>
      <point x="237.9" y="-104"/>
      <point x="115" y="23"/>
      <point x="115" y="208.2" type="curve" smooth="yes"/>
      <point x="115" y="413.9"/>
      <point x="262.6" y="564"/>
      <point x="465" y="564" type="curve" smooth="yes"/>
      <point x="636.9" y="564"/>
      <point x="746" y="455.9"/>
      <point x="746" y="285.6" type="curve" smooth="yes"/>
      <point x="746" y="180.1"/>
      <point x="698.6" y="81"/>
      <point x="648.1" y="81" type="curve" smooth="yes"/>
      <point x="613.24" y="81"/>
      <point x="592.519" y="124.879"/>
      <point x="592.519" y="197.542" type="curve" smooth="yes"/>
      <point x="592.519" y="244.943"/>
      <point x="601.337" y="304.592"/>
      <point x="620.8" y="372.3" type="curve" smooth="yes"/>
      <point x="629.4" y="401.8"/>
      <point x="614.2" y="428.6"/>
      <point x="584.7" y="436" type="curve" smooth="yes"/>
      <point x="554.8" y="443.4"/>
      <point x="527.2" y="446.9"/>
      <point x="498.4" y="446.9" type="curve" smooth="yes"/>
      <point x="350.8" y="446.9"/>
      <point x="241" y="346.4"/>
      <point x="241" y="211.4" type="curve" smooth="yes"/>
      <point x="241" y="99.8"/>
      <point x="316" y="15"/>
      <point x="414.5" y="15" type="curve" smooth="yes"/>
      <point x="462" y="15"/>
      <point x="507.7" y="34.6"/>
      <point x="548" y="72.1" type="curve"/>
      <point x="567" y="34.4"/>
      <point x="597.5" y="15"/>
      <point x="637.4" y="15" type="curve" smooth="yes"/>
      <point x="737.6" y="15"/>
      <point x="816" y="134.8"/>
      <point x="816" y="288" type="curve" smooth="yes"/>
      <point x="816" y="494.9"/>
      <point x="677.2" y="630"/>
      <point x="464.7" y="630" type="curve" smooth="yes"/>
      <point x="220.6" y="630"/>
      <point x="45" y="453.4"/>
      <point x="45" y="208" type="curve" smooth="yes"/>
      <point x="45" y="-17.1"/>
      <point x="195.9" y="-170"/>
      <point x="417.9" y="-170" type="curve" smooth="yes"/>
      <point x="511.1" y="-170"/>
      <point x="595.2" y="-143.6"/>
    </contour>
    <contour>
      <point x="528.2" y="141.7" type="curve"/>
      <point x="498.5" y="101.3"/>
      <point x="458.1" y="78"/>
      <point x="418.1" y="78" type="curve" smooth="yes"/>
      <point x="355.9" y="78"/>
      <point x="311" y="133"/>
      <point x="311" y="209.2" type="curve" smooth="yes"/>
      <point x="311" y="308.7"/>
      <point x="387.5" y="380.8"/>
      <point x="493.2" y="380.8" type="curve" smooth="yes"/>
      <point x="512" y="380.8"/>
      <point x="531" y="378.5"/>
      <point x="550" y="374" type="curve"/>
      <point x="533.528" y="305.811"/>
      <point x="525.149" y="244.448"/>
      <point x="525.149" y="192.446" type="curve" smooth="yes"/>
      <point x="525.149" y="174.363"/>
      <point x="526.162" y="157.413"/>
    </contour>
  </outline>
</glyph>
<glyph name="A" format="1">
  <advance width="614"/>
  <unicode hex="0041"/>
  <outline>
    <contour>
      <point x="589.3" y="52" type="curve" smooth="yes"/>
      <point x="492.2" y="263.6"/>
      <point x="420.7" y="434.6"/>
      <point x="325.8" y="682" type="curve" smooth="yes"/>
      <point x="320.1" y="696.8"/>
      <point x="307.4" y="706"/>
      <point x="292.7" y="706" type="curve" smooth="yes"/>
      <point x="276.4" y="706"/>
      <point x="262.7" y="694.9"/>
      <point x="258" y="677.8" type="curve" smooth="yes"/>
      <point x="216.6" y="526.6"/>
      <point x="182.2" y="415.4"/>
      <point x="129.1" y="260.7" type="curve"/>
      <point x="116.4" y="260.3"/>
      <point x="102.9" y="260.1"/>
      <point x="87.7" y="260.1" type="curve" smooth="yes"/>
      <point x="67.7" y="260.1"/>
      <point x="54" y="247.1"/>
      <point x="54" y="228" type="curve" smooth="yes"/>
      <point x="54" y="208"/>
      <point x="68.8" y="193.1"/>
      <point x="88.7" y="193.1" type="curve" smooth="yes"/>
      <point x="94.2" y="193.1"/>
      <point x="99.9" y="193.2"/>
      <point x="105.7" y="193.3" type="curve"/>
      <point x="90.3" y="148.8"/>
      <point x="72.7" y="98.6"/>
      <point x="53" y="41.8" type="curve" smooth="yes"/>
      <point x="44.4" y="17.2"/>
      <point x="59.1" y="-4.4"/>
      <point x="84.5" y="-4.4" type="curve" smooth="yes"/>
      <point x="99.5" y="-4.4"/>
      <point x="111.8" y="4.1"/>
      <point x="117.2" y="18" type="curve" smooth="yes"/>
      <point x="140.8" y="79.7"/>
      <point x="162.2" y="138.5"/>
      <point x="182.1" y="196.2" type="curve"/>
      <point x="269.2" y="201"/>
      <point x="365.5" y="211.6"/>
      <point x="437" y="224.4" type="curve"/>
      <point x="463.7" y="162"/>
      <point x="492.7" y="96.7"/>
      <point x="525.8" y="23.8" type="curve" smooth="yes"/>
      <point x="532.2" y="9.9"/>
      <point x="544.8" y="1.6"/>
      <point x="559.6" y="1.6" type="curve" smooth="yes"/>
      <point x="580.4" y="1.6"/>
      <point x="593.592" y="15.4451"/>
      <point x="593.592" y="33.5287" type="curve" smooth="yes"/>
      <point x="593.592" y="39.3531"/>
      <point x="592.223" y="45.6172"/>
    </contour>
    <contour>
      <point x="410.2" y="288.3" type="curve"/>
      <point x="341.7" y="276.2"/>
      <point x="273.7" y="268.1"/>
      <point x="205" y="263.8" type="curve"/>
      <point x="234.3" y="352.7"/>
      <point x="261.6" y="441.8"/>
      <point x="298.4" y="572.7" type="curve"/>
      <point x="342.6" y="455.7"/>
      <point x="375.7" y="371.4"/>
    </contour>
    <contour>
      <point x="293" y="730" type="move" name="top"/>
    </contour>
  </outline>
</glyph>
<glyph name="B" format="1">
  <advance width="570"/>
  <unicode hex="0042"/>
  <outline>
    <contour>
      <point x="199" y="-6" type="curve" smooth="yes"/>
      <point x="399.6" y="-6"/>
      <point x="520" y="67.1"/>
      <point x="520" y="189" type="curve" smooth="yes"/>
      <point x="520" y="280.8"/>
      <point x="450.4" y="343.4"/>
      <point x="329.6" y="360.4" type="curve"/>
      <point x="421.9" y="383.5"/>
      <point x="483" y="450.6"/>
      <point x="483" y="529" type="curve" smooth="yes"/>
      <point x="483" y="644.9"/>
      <point x="349.2" y="711"/>
      <point x="137" y="700" type="curve" smooth="yes"/>
      <point x="96.6" y="697.9"/>
      <point x="79" y="681.6"/>
      <point x="81" y="648" type="curve" smooth="yes"/>
      <point x="87.4172" y="539.37"/>
      <point x="90.619" y="444.603"/>
      <point x="90.619" y="349.762" type="curve" smooth="yes"/>
      <point x="90.619" y="259.864"/>
      <point x="87.7422" y="169.899"/>
      <point x="82" y="68" type="curve" smooth="yes"/>
      <point x="78.9" y="13.2"/>
      <point x="109.3" y="-6"/>
    </contour>
    <contour>
      <point x="160.1" y="385.3" type="curve"/>
      <point x="159.6" y="459"/>
      <point x="157.1" y="535.5"/>
      <point x="152" y="634" type="curve"/>
      <point x="326.3" y="642"/>
      <point x="414" y="604.8"/>
      <point x="414" y="523" type="curve" smooth="yes"/>
      <point x="414" y="439.2"/>
      <point x="322.2" y="389.4"/>
    </contour>
    <contour>
      <point x="152" y="61" type="curve"/>
      <point x="157.1" y="168.1"/>
      <point x="159.6" y="248"/>
      <point x="160.2" y="321.8" type="curve"/>
      <point x="358" y="319.1"/>
      <point x="450" y="278.9"/>
      <point x="450" y="195" type="curve" smooth="yes"/>
      <point x="450" y="105.8"/>
      <point x="324.8" y="49.5"/>
    </contour>
  </outline>
</glyph>
<glyph name="C" format="1">
  <advance width="588"/>
  <unicode hex="0043"/>
  <outline>
    <contour>
      <point x="333" y="-10" type="curve" smooth="yes"/>
      <point x="431" y="-10"/>
      <point x="510" y="38.1"/>
      <point x="535" y="113" type="curve" smooth="yes"/>
      <point x="544" y="140.1"/>
      <point x="530.6" y="164.2"/>
      <point x="506.5" y="164.2" type="curve" smooth="yes"/>
      <point x="492.6" y="164.2"/>
      <point x="480.1" y="155.2"/>
      <point x="473" y="140" type="curve" smooth="yes"/>
      <point x="448.6" y="88.1"/>
      <point x="397" y="56"/>
      <point x="338" y="56" type="curve" smooth="yes"/>
      <point x="212.2" y="56"/>
      <point x="120" y="184.5"/>
      <point x="120" y="360" type="curve" smooth="yes"/>
      <point x="120" y="527.2"/>
      <point x="203.9" y="644"/>
      <point x="324" y="644" type="curve" smooth="yes"/>
      <point x="384" y="644"/>
      <point x="440.5" y="612.6"/>
      <point x="464.6" y="566" type="curve" smooth="yes"/>
      <point x="471" y="553.8"/>
      <point x="482.2" y="546.7"/>
      <point x="495.3" y="546.7" type="curve" smooth="yes"/>
      <point x="516.367" y="546.7"/>
      <point x="529.942" y="561.579"/>
      <point x="529.942" y="579.833" type="curve" smooth="yes"/>
      <point x="529.942" y="586.619"/>
      <point x="528.065" y="593.872"/>
      <point x="524" y="601" type="curve" smooth="yes"/>
      <point x="483.2" y="672.5"/>
      <point x="416.7" y="710"/>
      <point x="331" y="710" type="curve" smooth="yes"/>
      <point x="163.4" y="710"/>
      <point x="50" y="563.9"/>
      <point x="50" y="348" type="curve" smooth="yes"/>
      <point x="50" y="135.6"/>
      <point x="165.1" y="-10"/>
    </contour>
    <contour>
      <point x="330" y="0" type="move" name="bottom"/>
    </contour>
    <contour>
      <point x="322" y="730" type="move" name="top"/>
    </contour>
  </outline>
</glyph>
<glyph name="D" format="1">
  <advance width="589"/>
  <unicode hex="0044"/>
  <outline>
    <contour>
      <point x="142" y="-10" type="curve" smooth="yes"/>
      <point x="370" y="-10"/>
      <point x="539" y="147"/>
      <point x="539" y="359" type="curve" smooth="yes"/>
      <point x="539" y="567"/>
      <point x="375" y="710"/>
      <point x="137" y="710" type="curve" smooth="yes"/>
      <point x="100" y="710"/>
      <point x="79" y="689"/>
      <point x="81" y="654" type="curve" smooth="yes"/>
      <point x="94" y="447"/>
      <point x="90" y="143"/>
      <point x="82" y="49" type="curve" smooth="yes"/>
      <point x="79" y="12"/>
      <point x="101" y="-10"/>
    </contour>
    <contour>
      <point x="151" y="56" type="curve"/>
      <point x="159" y="195"/>
      <point x="162" y="443"/>
      <point x="151" y="644" type="curve"/>
      <point x="340" y="637"/>
      <point x="469" y="522"/>
      <point x="469" y="360" type="curve" smooth="yes"/>
      <point x="469" y="195"/>
      <point x="335" y="67"/>
    </contour>
  </outline>
</glyph>
<glyph name="E" format="1">
  <advance width="482"/>
  <unicode hex="0045"/>
  <outline>
    <contour>
      <point x="395" y="642" type="curve" smooth="yes"/>
      <point x="414.5" y="644.7"/>
      <point x="427.4" y="658.6"/>
      <point x="427.4" y="676.9" type="curve" smooth="yes"/>
      <point x="427.4" y="698.1"/>
      <point x="410.8" y="712.4"/>
      <point x="389" y="710" type="curve" smooth="yes"/>
      <point x="336.442" y="704.283"/>
      <point x="282.862" y="701.425"/>
      <point x="228.481" y="701.425" type="curve" smooth="yes"/>
      <point x="189.637" y="701.425"/>
      <point x="150.383" y="702.883"/>
      <point x="110.8" y="705.8" type="curve" smooth="yes"/>
      <point x="109.679" y="705.88"/>
      <point x="108.572" y="705.919"/>
      <point x="107.479" y="705.919" type="curve" smooth="yes"/>
      <point x="85.957" y="705.919"/>
      <point x="70.1517" y="690.687"/>
      <point x="70.1517" y="669.446" type="curve" smooth="yes"/>
      <point x="70.1517" y="668.77"/>
      <point x="70.1677" y="668.088"/>
      <point x="70.2" y="667.4" type="curve" smooth="yes"/>
      <point x="77.8773" y="501.21"/>
      <point x="81.6349" y="374.758"/>
      <point x="81.6349" y="266.222" type="curve" smooth="yes"/>
      <point x="81.6349" y="182.491"/>
      <point x="79.3985" y="109.423"/>
      <point x="75" y="37" type="curve" smooth="yes"/>
      <point x="73.7" y="16.4"/>
      <point x="89.3" y="0.3"/>
      <point x="111.8" y="-1.1" type="curve" smooth="yes"/>
      <point x="206.7" y="-7"/>
      <point x="317.1" y="-2.1"/>
      <point x="403.5" y="11.7" type="curve" smooth="yes"/>
      <point x="420.5" y="14.4"/>
      <point x="431.9" y="27.9"/>
      <point x="431.9" y="45.4" type="curve" smooth="yes"/>
      <point x="431.9" y="67.7"/>
      <point x="414.3" y="82.1"/>
      <point x="391.5" y="78.2" type="curve" smooth="yes"/>
      <point x="316" y="65.4"/>
      <point x="242.5" y="61.8"/>
      <point x="147.1" y="66.2" type="curve"/>
      <point x="151.9" y="148.2"/>
      <point x="154" y="233.8"/>
      <point x="153.6" y="323.2" type="curve"/>
      <point x="238.7" y="321.5"/>
      <point x="308.8" y="325.3"/>
      <point x="368" y="335" type="curve" smooth="yes"/>
      <point x="387.3" y="338.2"/>
      <point x="400" y="351.6"/>
      <point x="400" y="368.9" type="curve" smooth="yes"/>
      <point x="400" y="391.2"/>
      <point x="380.3" y="405.5"/>
      <point x="356" y="401" type="curve" smooth="yes"/>
      <point x="304.2" y="391.3"/>
      <point x="224.1" y="386.4"/>
      <point x="152.8" y="388.6" type="curve"/>
      <point x="151.3" y="467"/>
      <point x="147.9" y="549"/>
      <point x="142.5" y="635" type="curve"/>
      <point x="231.4" y="629.3"/>
      <point x="319.9" y="631.8"/>
    </contour>
    <contour>
      <point x="251" y="730" type="move" name="top"/>
    </contour>
  </outline>
</glyph>
<glyph name="F" format="1">
  <advance width="499"/>
  <unicode hex="0046"/>
  <outline>
    <contour>
      <point x="406" y="639" type="curve" smooth="yes"/>
      <point x="425" y="642"/>
      <point x="438" y="656"/>
      <point x="438" y="674" type="curve" smooth="yes"/>
      <point x="438" y="695"/>
      <point x="422" y="709"/>
      <point x="400" y="707" type="curve" smooth="yes"/>
      <point x="347" y="701"/>
      <point x="294" y="698"/>
      <point x="240" y="698" type="curve" smooth="yes"/>
      <point x="200" y="698"/>
      <point x="159" y="700"/>
      <point x="117" y="703" type="curve" smooth="yes"/>
      <point x="116" y="703"/>
      <point x="115" y="703"/>
      <point x="114" y="703" type="curve" smooth="yes"/>
      <point x="97" y="703"/>
      <point x="81" y="688"/>
      <point x="81" y="669" type="curve" smooth="yes"/>
      <point x="89" y="492"/>
      <point x="93" y="362"/>
      <point x="93" y="254" type="curve" smooth="yes"/>
      <point x="93" y="171"/>
      <point x="91" y="101"/>
      <point x="86" y="32" type="curve" smooth="yes"/>
      <point x="85" y="10"/>
      <point x="100" y="-6"/>
      <point x="121" y="-6" type="curve" smooth="yes"/>
      <point x="141" y="-6"/>
      <point x="155" y="8"/>
      <point x="156" y="28" type="curve" smooth="yes"/>
      <point x="162" y="133"/>
      <point x="165" y="229"/>
      <point x="165" y="320" type="curve"/>
      <point x="237" y="318"/>
      <point x="326" y="323"/>
      <point x="379" y="332" type="curve" smooth="yes"/>
      <point x="398" y="335"/>
      <point x="411" y="349"/>
      <point x="411" y="366" type="curve" smooth="yes"/>
      <point x="411" y="388"/>
      <point x="392" y="402"/>
      <point x="367" y="398" type="curve" smooth="yes"/>
      <point x="313" y="389"/>
      <point x="232" y="384"/>
      <point x="164" y="386" type="curve"/>
      <point x="162" y="464"/>
      <point x="159" y="546"/>
      <point x="154" y="632" type="curve"/>
      <point x="239" y="627"/>
      <point x="328" y="629"/>
    </contour>
  </outline>
</glyph>
<glyph name="G" format="1">
  <advance width="606"/>
  <unicode hex="0047"/>
  <outline>
    <contour>
      <point x="545" y="27" type="curve" smooth="yes"/>
      <point x="531.4" y="105.2"/>
      <point x="526" y="185.7"/>
      <point x="526" y="310" type="curve" smooth="yes"/>
      <point x="526" y="330.3"/>
      <point x="511.1" y="345"/>
      <point x="490.6" y="345" type="curve" smooth="yes"/>
      <point x="470.3" y="345"/>
      <point x="456" y="330.5"/>
      <point x="456" y="309.9" type="curve" smooth="yes"/>
      <point x="456" y="166.8"/>
      <point x="385" y="60"/>
      <point x="290" y="60" type="curve" smooth="yes"/>
      <point x="189.6" y="60"/>
      <point x="120" y="178.3"/>
      <point x="120" y="349" type="curve" smooth="yes"/>
      <point x="120" y="521.7"/>
      <point x="194" y="640"/>
      <point x="302" y="640" type="curve" smooth="yes"/>
      <point x="362.5" y="640"/>
      <point x="414.2" y="603.6"/>
      <point x="437" y="545" type="curve" smooth="yes"/>
      <point x="443" y="529.7"/>
      <point x="455.4" y="520.6"/>
      <point x="470.4" y="520.6" type="curve" smooth="yes"/>
      <point x="491.929" y="520.6"/>
      <point x="506.533" y="536.536"/>
      <point x="506.533" y="556.123" type="curve" smooth="yes"/>
      <point x="506.533" y="561.555"/>
      <point x="505.41" y="567.268"/>
      <point x="503" y="573" type="curve" smooth="yes"/>
      <point x="466.4" y="659.8"/>
      <point x="392.8" y="710"/>
      <point x="302" y="710" type="curve" smooth="yes"/>
      <point x="148.1" y="710"/>
      <point x="50" y="571.4"/>
      <point x="50" y="354" type="curve" smooth="yes"/>
      <point x="50" y="136.6"/>
      <point x="147" y="-10"/>
      <point x="291" y="-10" type="curve" smooth="yes"/>
      <point x="369.4" y="-10"/>
      <point x="427.6" y="25.6"/>
      <point x="465.5" y="96.7" type="curve"/>
      <point x="469.2" y="61.8"/>
      <point x="471.9" y="39.8"/>
      <point x="475" y="19" type="curve" smooth="yes"/>
      <point x="477.8" y="0.2"/>
      <point x="492" y="-12.2"/>
      <point x="510.8" y="-12.2" type="curve" smooth="yes"/>
      <point x="533.7" y="-12.2"/>
      <point x="548.8" y="5.2"/>
    </contour>
    <contour>
      <point x="298" y="0" type="move" name="bottom"/>
    </contour>
    <contour>
      <point x="298" y="730" type="move" name="top"/>
    </contour>
  </outline>
</glyph>
<glyph name="H" format="1">
  <advance width="686"/>
  <unicode hex="0048"/>
  <outline>
    <contour>
      <point x="605" y="31" type="curve" smooth="yes"/>
      <point x="599.038" y="173.965"/>
      <point x="596.067" y="303.358"/>
      <point x="596.067" y="422.891" type="curve" smooth="yes"/>
      <point x="596.067" y="511.882"/>
      <point x="597.714" y="595.408"/>
      <point x="601" y="675" type="curve" smooth="yes"/>
      <point x="601.7" y="692.4"/>
      <point x="586.9" y="705.9"/>
      <point x="567.2" y="705.9" type="curve" smooth="yes"/>
      <point x="546.5" y="705.9"/>
      <point x="532.1" y="691.1"/>
      <point x="531" y="669" type="curve" smooth="yes"/>
      <point x="526.4" y="576.2"/>
      <point x="524.3" y="480.6"/>
      <point x="524.7" y="381.4" type="curve"/>
      <point x="411.2" y="365.7"/>
      <point x="289.8" y="354.9"/>
      <point x="181.3" y="350.9" type="curve"/>
      <point x="181.2" y="461.3"/>
      <point x="176.3" y="564.9"/>
      <point x="166" y="673" type="curve" smooth="yes"/>
      <point x="164.1" y="692.9"/>
      <point x="150.1" y="706.2"/>
      <point x="131" y="706.2" type="curve" smooth="yes"/>
      <point x="109" y="706.2"/>
      <point x="93.7" y="689.1"/>
      <point x="96" y="667" type="curve" smooth="yes"/>
      <point x="106.2" y="568.3"/>
      <point x="111.1" y="464.4"/>
      <point x="111" y="349.1" type="curve"/>
      <point x="102.6" y="349"/>
      <point x="94.2" y="349"/>
      <point x="86" y="349" type="curve" smooth="yes"/>
      <point x="65.1" y="349"/>
      <point x="50.6" y="336"/>
      <point x="50.6" y="317.3" type="curve" smooth="yes"/>
      <point x="50.6" y="297.5"/>
      <point x="66.5" y="283"/>
      <point x="88" y="283" type="curve" smooth="yes"/>
      <point x="95.5" y="283"/>
      <point x="103" y="283.1"/>
      <point x="110.5" y="283.1" type="curve"/>
      <point x="109.2" y="207.4"/>
      <point x="105.8" y="124.5"/>
      <point x="100.2" y="31.5" type="curve" smooth="yes"/>
      <point x="98.9" y="10"/>
      <point x="113.3" y="-5.6"/>
      <point x="134.6" y="-5.6" type="curve" smooth="yes"/>
      <point x="154.1" y="-5.6"/>
      <point x="168.8" y="7.9"/>
      <point x="170" y="27" type="curve" smooth="yes"/>
      <point x="176.1" y="122.4"/>
      <point x="179.6" y="206.7"/>
      <point x="180.8" y="284.8" type="curve"/>
      <point x="284.4" y="288.7"/>
      <point x="401.4" y="298.9"/>
      <point x="525.3" y="315.1" type="curve"/>
      <point x="526.6" y="225"/>
      <point x="529.8" y="130.8"/>
      <point x="535" y="31" type="curve" smooth="yes"/>
      <point x="536.1" y="9"/>
      <point x="550.5" y="-6"/>
      <point x="570.4" y="-6" type="curve" smooth="yes"/>
      <point x="591.1" y="-6"/>
      <point x="605.9" y="9.9"/>
    </contour>
    <contour>
      <point x="350" y="730" type="move" name="top"/>
    </contour>
  </outline>
</glyph>
<glyph name="I" format="1">
  <advance width="393"/>
  <unicode hex="0049"/>
  <outline>
    <contour>
      <point x="285" y="638" type="curve" smooth="yes"/>
      <point x="304.3" y="639.3"/>
      <point x="317.9" y="653.3"/>
      <point x="317.9" y="672" type="curve" smooth="yes"/>
      <point x="317.9" y="692.1"/>
      <point x="302.4" y="705.5"/>
      <point x="281" y="704" type="curve" smooth="yes"/>
      <point x="213.9" y="699.2"/>
      <point x="162.3" y="698"/>
      <point x="111" y="700" type="curve" smooth="yes"/>
      <point x="90.4" y="700.8"/>
      <point x="75.5" y="687.6"/>
      <point x="75.5" y="668.5" type="curve" smooth="yes"/>
      <point x="75.5" y="649.3"/>
      <point x="90.6" y="635.1"/>
      <point x="112" y="634" type="curve" smooth="yes"/>
      <point x="126.8" y="633.3"/>
      <point x="141.7" y="632.9"/>
      <point x="157.1" y="632.8" type="curve"/>
      <point x="165.038" y="536.57"/>
      <point x="169.014" y="437.147"/>
      <point x="169.014" y="333.761" type="curve" smooth="yes"/>
      <point x="169.014" y="246.985"/>
      <point x="166.213" y="157.417"/>
      <point x="160.6" y="64.6" type="curve"/>
      <point x="144" y="64.7"/>
      <point x="127.6" y="65.2"/>
      <point x="111" y="66" type="curve" smooth="yes"/>
      <point x="91.6" y="67"/>
      <point x="76.2" y="52.2"/>
      <point x="76.2" y="32.5" type="curve" smooth="yes"/>
      <point x="76.2" y="13.8"/>
      <point x="90.4" y="0.9"/>
      <point x="112" y="0" type="curve" smooth="yes"/>
      <point x="173.5" y="-2.5"/>
      <point x="226.2" y="-1"/>
      <point x="285" y="5" type="curve" smooth="yes"/>
      <point x="304.2" y="6.9"/>
      <point x="317.8" y="21.5"/>
      <point x="317.8" y="40.2" type="curve" smooth="yes"/>
      <point x="317.8" y="60.3"/>
      <point x="302.3" y="73.2"/>
      <point x="281" y="71" type="curve" smooth="yes"/>
      <point x="264.1" y="69.2"/>
      <point x="247.5" y="67.8"/>
      <point x="230.9" y="66.8" type="curve"/>
      <point x="235.21" y="141.929"/>
      <point x="237.366" y="219.362"/>
      <point x="237.366" y="299.708" type="curve" smooth="yes"/>
      <point x="237.366" y="405.764"/>
      <point x="233.61" y="516.895"/>
      <point x="226.1" y="634.5" type="curve"/>
      <point x="246.1" y="635.4"/>
      <point x="265.6" y="636.7"/>
    </contour>
    <contour>
      <point x="197" y="0" type="move" name="bottom"/>
    </contour>
    <contour>
      <point x="197" y="730" type="move" name="top"/>
    </contour>
  </outline>
</glyph>
<glyph name="J" format="1">
  <advance width="506"/>
  <unicode hex="004A"/>
  <outline>
    <contour>
      <point x="406" y="643" type="curve" smooth="yes"/>
      <point x="423.7" y="646.2"/>
      <point x="435.1" y="659.1"/>
      <point x="435.1" y="675.2" type="curve" smooth="yes"/>
      <point x="435.1" y="696.9"/>
      <point x="416.1" y="710.8"/>
      <point x="393" y="706" type="curve" smooth="yes"/>
      <point x="331.6" y="693.2"/>
      <point x="207.5" y="685.2"/>
      <point x="125.7" y="688.9" type="curve" smooth="yes"/>
      <point x="104.2" y="689.8"/>
      <point x="88.1" y="676.1"/>
      <point x="88.1" y="656.8" type="curve" smooth="yes"/>
      <point x="88.1" y="638.2"/>
      <point x="103.5" y="625.2"/>
      <point x="126" y="624" type="curve" smooth="yes"/>
      <point x="164.7" y="622"/>
      <point x="219.2" y="623.3"/>
      <point x="277.1" y="627.6" type="curve"/>
      <point x="300" y="547.5"/>
      <point x="315" y="428"/>
      <point x="315" y="325" type="curve" smooth="yes"/>
      <point x="315" y="153.8"/>
      <point x="273.5" y="56"/>
      <point x="201" y="56" type="curve" smooth="yes"/>
      <point x="166.4" y="56"/>
      <point x="138.1" y="76.8"/>
      <point x="118" y="117" type="curve" smooth="yes"/>
      <point x="110.8" y="131.4"/>
      <point x="98.5" y="139.7"/>
      <point x="84.5" y="139.7" type="curve" smooth="yes"/>
      <point x="64.5144" y="139.7"/>
      <point x="50.8437" y="124.779"/>
      <point x="50.8437" y="106.435" type="curve" smooth="yes"/>
      <point x="50.8437" y="101.465"/>
      <point x="51.847" y="96.2439"/>
      <point x="54" y="91" type="curve" smooth="yes"/>
      <point x="80.1" y="27.3"/>
      <point x="135.9" y="-10"/>
      <point x="205" y="-10" type="curve" smooth="yes"/>
      <point x="323.2" y="-10"/>
      <point x="385" y="105"/>
      <point x="385" y="325" type="curve" smooth="yes"/>
      <point x="385" y="435.3"/>
      <point x="370.5" y="547.8"/>
      <point x="345.2" y="634.1" type="curve"/>
      <point x="367.9" y="636.8"/>
      <point x="388.4" y="639.8"/>
    </contour>
    <contour>
      <point x="256" y="730" type="move" name="top"/>
    </contour>
  </outline>
</glyph>
<glyph name="K" format="1">
  <advance width="539"/>
  <unicode hex="004B"/>
  <outline>
    <contour>
      <point x="499" y="55" type="curve" smooth="yes"/>
      <point x="403" y="163"/>
      <point x="348" y="234"/>
      <point x="258" y="361" type="curve"/>
      <point x="330" y="453"/>
      <point x="383" y="532"/>
      <point x="455" y="651" type="curve" smooth="yes"/>
      <point x="469" y="674"/>
      <point x="453" y="702"/>
      <point x="426" y="702" type="curve" smooth="yes"/>
      <point x="414" y="702"/>
      <point x="403" y="696"/>
      <point x="396" y="684" type="curve" smooth="yes"/>
      <point x="315" y="550"/>
      <point x="257" y="467"/>
      <point x="162" y="353" type="curve"/>
      <point x="161" y="452"/>
      <point x="157" y="556"/>
      <point x="151" y="670" type="curve" smooth="yes"/>
      <point x="150" y="689"/>
      <point x="136" y="701"/>
      <point x="117" y="701" type="curve" smooth="yes"/>
      <point x="95" y="701"/>
      <point x="80" y="686"/>
      <point x="81" y="665" type="curve" smooth="yes"/>
      <point x="95" y="452"/>
      <point x="96" y="244"/>
      <point x="84" y="31" type="curve" smooth="yes"/>
      <point x="83" y="11"/>
      <point x="98" y="-5"/>
      <point x="119" y="-5" type="curve" smooth="yes"/>
      <point x="139" y="-5"/>
      <point x="153" y="10"/>
      <point x="154" y="32" type="curve" smooth="yes"/>
      <point x="159" y="100"/>
      <point x="161" y="171"/>
      <point x="162" y="244" type="curve"/>
      <point x="180" y="266"/>
      <point x="197" y="286"/>
      <point x="213" y="305" type="curve"/>
      <point x="306" y="172"/>
      <point x="358" y="106"/>
      <point x="446" y="10" type="curve" smooth="yes"/>
      <point x="453" y="2"/>
      <point x="463" y="-3"/>
      <point x="473" y="-3" type="curve" smooth="yes"/>
      <point x="504" y="-3"/>
      <point x="520" y="31"/>
    </contour>
  </outline>
</glyph>
<glyph name="L" format="1">
  <advance width="470"/>
  <unicode hex="004C"/>
  <outline>
    <contour>
      <point x="416" y="11" type="curve" smooth="yes"/>
      <point x="435.9" y="13"/>
      <point x="449.3" y="26.5"/>
      <point x="449.3" y="44.6" type="curve" smooth="yes"/>
      <point x="449.3" y="65"/>
      <point x="432.7" y="79.1"/>
      <point x="411" y="77" type="curve" smooth="yes"/>
      <point x="296.6" y="66.2"/>
      <point x="220.6" y="63.2"/>
      <point x="153" y="67" type="curve"/>
      <point x="156.83" y="147.429"/>
      <point x="158.736" y="231.884"/>
      <point x="158.736" y="320.454" type="curve" smooth="yes"/>
      <point x="158.736" y="430.764"/>
      <point x="155.779" y="547.455"/>
      <point x="149.9" y="670.7" type="curve" smooth="yes"/>
      <point x="149" y="689.5"/>
      <point x="135" y="702.5"/>
      <point x="115.7" y="702.5" type="curve" smooth="yes"/>
      <point x="94.3" y="702.5"/>
      <point x="79.2" y="686.9"/>
      <point x="80.3" y="665.8" type="curve" smooth="yes"/>
      <point x="86.3149" y="549.477"/>
      <point x="89.3158" y="439.65"/>
      <point x="89.3158" y="334.438" type="curve" smooth="yes"/>
      <point x="89.3158" y="233.248"/>
      <point x="86.5399" y="136.326"/>
      <point x="81" y="42" type="curve" smooth="yes"/>
      <point x="79.4" y="14.5"/>
      <point x="94.4" y="0.5"/>
      <point x="126" y="0" type="curve" smooth="yes"/>
      <point x="234.8" y="-1.8"/>
      <point x="318.3" y="1.3"/>
    </contour>
    <contour>
      <point x="260" y="0" type="move" name="bottom"/>
    </contour>
    <contour>
      <point x="335" y="392" type="move" name="center"/>
    </contour>
    <contour>
      <point x="335" y="700" type="move" name="right"/>
    </contour>
    <contour>
      <point x="115" y="730" type="move" name="top"/>
    </contour>
  </outline>
</glyph>
<glyph name="M" format="1">
  <advance width="807"/>
  <unicode hex="004D"/>
  <outline>
    <contour>
      <point x="726" y="29" type="curve" smooth="yes"/>
      <point x="721" y="123"/>
      <point x="719" y="217"/>
      <point x="719" y="321" type="curve" smooth="yes"/>
      <point x="719" y="424"/>
      <point x="721" y="536"/>
      <point x="726" y="663" type="curve" smooth="yes"/>
      <point x="727" y="685"/>
      <point x="711" y="702"/>
      <point x="690" y="702" type="curve" smooth="yes"/>
      <point x="674" y="702"/>
      <point x="661" y="692"/>
      <point x="654" y="676" type="curve" smooth="yes"/>
      <point x="569" y="480"/>
      <point x="492" y="330"/>
      <point x="400" y="185" type="curve"/>
      <point x="342" y="344"/>
      <point x="255" y="521"/>
      <point x="156" y="685" type="curve" smooth="yes"/>
      <point x="148" y="698"/>
      <point x="136" y="705"/>
      <point x="121" y="705" type="curve" smooth="yes"/>
      <point x="97" y="705"/>
      <point x="79" y="685"/>
      <point x="81" y="661" type="curve" smooth="yes"/>
      <point x="91" y="568"/>
      <point x="96" y="472"/>
      <point x="96" y="370" type="curve" smooth="yes"/>
      <point x="96" y="266"/>
      <point x="91" y="154"/>
      <point x="81" y="31" type="curve" smooth="yes"/>
      <point x="79" y="10"/>
      <point x="94" y="-6"/>
      <point x="115" y="-6" type="curve" smooth="yes"/>
      <point x="135" y="-6"/>
      <point x="150" y="8"/>
      <point x="151" y="27" type="curve" smooth="yes"/>
      <point x="161" y="161"/>
      <point x="166" y="271"/>
      <point x="166" y="371" type="curve" smooth="yes"/>
      <point x="166" y="429"/>
      <point x="164" y="485"/>
      <point x="161" y="540" type="curve"/>
      <point x="246" y="385"/>
      <point x="315" y="228"/>
      <point x="357" y="94" type="curve" smooth="yes"/>
      <point x="363" y="76"/>
      <point x="374" y="65"/>
      <point x="388" y="65" type="curve" smooth="yes"/>
      <point x="399" y="65"/>
      <point x="410" y="73"/>
      <point x="419" y="86" type="curve" smooth="yes"/>
      <point x="518" y="237"/>
      <point x="593" y="372"/>
      <point x="654" y="510" type="curve"/>
      <point x="650" y="438"/>
      <point x="648" y="370"/>
      <point x="648" y="297" type="curve" smooth="yes"/>
      <point x="648" y="217"/>
      <point x="651" y="131"/>
      <point x="656" y="29" type="curve" smooth="yes"/>
      <point x="657" y="8"/>
      <point x="671" y="-6"/>
      <point x="691" y="-6" type="curve" smooth="yes"/>
      <point x="712" y="-6"/>
      <point x="727" y="9"/>
    </contour>
  </outline>
</glyph>
<glyph name="N" format="1">
  <advance width="667"/>
  <unicode hex="004E"/>
  <outline>
    <contour>
      <point x="585" y="33" type="curve" smooth="yes"/>
      <point x="576" y="237"/>
      <point x="577" y="449"/>
      <point x="586" y="669" type="curve" smooth="yes"/>
      <point x="587" y="690"/>
      <point x="572" y="705"/>
      <point x="551" y="705" type="curve" smooth="yes"/>
      <point x="531" y="705"/>
      <point x="517" y="691"/>
      <point x="516" y="670" type="curve" smooth="yes"/>
      <point x="507" y="400"/>
      <point x="506" y="263"/>
      <point x="513" y="139" type="curve"/>
      <point x="366" y="331"/>
      <point x="226" y="543"/>
      <point x="151" y="686" type="curve" smooth="yes"/>
      <point x="145" y="699"/>
      <point x="132" y="706"/>
      <point x="118" y="706" type="curve" smooth="yes"/>
      <point x="96" y="706"/>
      <point x="79" y="689"/>
      <point x="81" y="669" type="curve" smooth="yes"/>
      <point x="97" y="405"/>
      <point x="99" y="202"/>
      <point x="85" y="33" type="curve" smooth="yes"/>
      <point x="83" y="11"/>
      <point x="98" y="-6"/>
      <point x="120" y="-6" type="curve" smooth="yes"/>
      <point x="139" y="-6"/>
      <point x="153" y="8"/>
      <point x="155" y="27" type="curve" smooth="yes"/>
      <point x="166" y="186"/>
      <point x="167" y="328"/>
      <point x="158" y="536" type="curve"/>
      <point x="216" y="429"/>
      <point x="328" y="266"/>
      <point x="520" y="12" type="curve" smooth="yes"/>
      <point x="528" y="1"/>
      <point x="539" y="-5"/>
      <point x="551" y="-5" type="curve" smooth="yes"/>
      <point x="572" y="-5"/>
      <point x="586" y="11"/>
    </contour>
  </outline>
</glyph>
<glyph name="O" format="1">
  <advance width="658"/>
  <unicode hex="004F"/>
  <outline>
    <contour>
      <point x="322" y="-10" type="curve" smooth="yes"/>
      <point x="481" y="-10"/>
      <point x="608" y="155"/>
      <point x="608" y="362" type="curve" smooth="yes"/>
      <point x="608" y="564"/>
      <point x="491" y="710"/>
      <point x="331" y="710" type="curve" smooth="yes"/>
      <point x="168" y="710"/>
      <point x="50" y="560"/>
      <point x="50" y="354" type="curve" smooth="yes"/>
      <point x="50" y="146"/>
      <point x="166" y="-10"/>
    </contour>
    <contour>
      <point x="320" y="56" type="curve" smooth="yes"/>
      <point x="209" y="56"/>
      <point x="120" y="186"/>
      <point x="120" y="349" type="curve" smooth="yes"/>
      <point x="120" y="513"/>
      <point x="214" y="644"/>
      <point x="332" y="644" type="curve" smooth="yes"/>
      <point x="447" y="644"/>
      <point x="538" y="518"/>
      <point x="538" y="360" type="curve" smooth="yes"/>
      <point x="538" y="196"/>
      <point x="437" y="56"/>
    </contour>
  </outline>
</glyph>
<glyph name="P" format="1">
  <advance width="557"/>
  <unicode hex="0050"/>
  <outline>
    <contour>
      <point x="151" y="29" type="curve" smooth="yes"/>
      <point x="155" y="117"/>
      <point x="157" y="197"/>
      <point x="158" y="272" type="curve"/>
      <point x="383" y="278"/>
      <point x="517" y="362"/>
      <point x="517" y="498" type="curve" smooth="yes"/>
      <point x="517" y="633"/>
      <point x="385" y="706"/>
      <point x="139" y="706" type="curve" smooth="yes"/>
      <point x="100" y="706"/>
      <point x="79" y="687"/>
      <point x="81" y="654" type="curve" smooth="yes"/>
      <point x="92" y="470"/>
      <point x="92" y="288"/>
      <point x="81" y="29" type="curve" smooth="yes"/>
      <point x="80" y="9"/>
      <point x="95" y="-6"/>
      <point x="116" y="-6" type="curve" smooth="yes"/>
      <point x="136" y="-6"/>
      <point x="150" y="8"/>
    </contour>
    <contour>
      <point x="159" y="338" type="curve"/>
      <point x="159" y="449"/>
      <point x="157" y="548"/>
      <point x="152" y="640" type="curve"/>
      <point x="340" y="640"/>
      <point x="447" y="588"/>
      <point x="447" y="497" type="curve" smooth="yes"/>
      <point x="447" y="405"/>
      <point x="334" y="344"/>
    </contour>
  </outline>
</glyph>
<glyph name="Q" format="1">
  <advance width="658"/>
  <unicode hex="0051"/>
  <outline>
    <contour>
      <point x="564" y="-84" type="curve" smooth="yes"/>
      <point x="585.3" y="-89.2"/>
      <point x="606" y="-72.4"/>
      <point x="606" y="-50" type="curve" smooth="yes"/>
      <point x="606" y="-34.1"/>
      <point x="594.3" y="-22.7"/>
      <point x="575" y="-20" type="curve" smooth="yes"/>
      <point x="522.2" y="-12.6"/>
      <point x="482.2" y="-2.8"/>
      <point x="427.8" y="15.8" type="curve"/>
      <point x="537" y="71.6"/>
      <point x="608" y="207.9"/>
      <point x="608" y="362" type="curve" smooth="yes"/>
      <point x="608" y="563.5"/>
      <point x="491.2" y="710"/>
      <point x="330.6" y="710" type="curve" smooth="yes"/>
      <point x="168" y="710"/>
      <point x="50" y="560.3"/>
      <point x="50" y="354" type="curve" smooth="yes"/>
      <point x="50" y="147.9"/>
      <point x="164.3" y="-7.4"/>
      <point x="317.9" y="-10" type="curve"/>
      <point x="425.7" y="-52.5"/>
      <point x="481.1" y="-63.8"/>
    </contour>
    <contour>
      <point x="320.1" y="60" type="curve" smooth="yes"/>
      <point x="208.6" y="60"/>
      <point x="120" y="188"/>
      <point x="120" y="349" type="curve" smooth="yes"/>
      <point x="120" y="510.7"/>
      <point x="214.2" y="640"/>
      <point x="332" y="640" type="curve" smooth="yes"/>
      <point x="446.6" y="640"/>
      <point x="538" y="515.7"/>
      <point x="538" y="360" type="curve" smooth="yes"/>
      <point x="538" y="198.5"/>
      <point x="437.4" y="60"/>
    </contour>
  </outline>
</glyph>
<glyph name="R" format="1">
  <advance width="571"/>
  <unicode hex="0052"/>
  <outline>
    <contour>
      <point x="514.2" y="46" type="curve" smooth="yes"/>
      <point x="428.6" y="167.9"/>
      <point x="374.5" y="239.2"/>
      <point x="325.2" y="295.1" type="curve"/>
      <point x="449.3" y="329.8"/>
      <point x="517" y="401.6"/>
      <point x="517" y="498.3" type="curve" smooth="yes"/>
      <point x="517" y="633.3"/>
      <point x="384.6" y="706"/>
      <point x="139" y="706" type="curve" smooth="yes"/>
      <point x="100" y="706"/>
      <point x="79" y="687.2"/>
      <point x="81" y="654" type="curve" smooth="yes"/>
      <point x="86.4124" y="561.988"/>
      <point x="89.1375" y="470.303"/>
      <point x="89.1375" y="369.115" type="curve" smooth="yes"/>
      <point x="89.1375" y="268.391"/>
      <point x="86.4374" y="158.252"/>
      <point x="81" y="29" type="curve" smooth="yes"/>
      <point x="80.2" y="9"/>
      <point x="95.3" y="-6.1"/>
      <point x="116.1" y="-6.1" type="curve" smooth="yes"/>
      <point x="136.1" y="-6.1"/>
      <point x="150.2" y="8.1"/>
      <point x="151" y="29" type="curve" smooth="yes"/>
      <point x="154.5" y="116.6"/>
      <point x="156.8" y="197.3"/>
      <point x="157.9" y="272.4" type="curve"/>
      <point x="187.6" y="273"/>
      <point x="216.6" y="275.2"/>
      <point x="244.5" y="278.9" type="curve"/>
      <point x="306.7" y="214.8"/>
      <point x="390.7" y="107.5"/>
      <point x="457.3" y="7.3" type="curve" smooth="yes"/>
      <point x="463.3" y="-1.7"/>
      <point x="472.4" y="-6.6"/>
      <point x="483.1" y="-6.6" type="curve" smooth="yes"/>
      <point x="504.933" y="-6.6"/>
      <point x="520.247" y="9.72249"/>
      <point x="520.247" y="27.4497" type="curve" smooth="yes"/>
      <point x="520.247" y="33.6753"/>
      <point x="518.359" y="40.0741"/>
    </contour>
    <contour>
      <point x="158.6" y="338.4" type="curve"/>
      <point x="159.2" y="448.5"/>
      <point x="157" y="547.8"/>
      <point x="152" y="640" type="curve"/>
      <point x="339.6" y="640"/>
      <point x="447" y="587.8"/>
      <point x="447" y="496.8" type="curve" smooth="yes"/>
      <point x="447" y="405.4"/>
      <point x="334.4" y="343.6"/>
    </contour>
    <contour>
      <point x="301" y="0" type="move" name="bottom"/>
    </contour>
    <contour>
      <point x="301" y="730" type="move" name="top"/>
    </contour>
  </outline>
</glyph>
<glyph name="S" format="1">
  <advance width="524"/>
  <unicode hex="0053"/>
  <outline>
    <contour>
      <point x="245" y="-10" type="curve" smooth="yes"/>
      <point x="377" y="-10"/>
      <point x="469" y="74"/>
      <point x="469" y="195" type="curve" smooth="yes"/>
      <point x="469" y="423"/>
      <point x="135" y="366"/>
      <point x="135" y="535" type="curve" smooth="yes"/>
      <point x="135" y="601"/>
      <point x="187" y="644"/>
      <point x="266" y="644" type="curve" smooth="yes"/>
      <point x="307" y="644"/>
      <point x="346" y="632"/>
      <point x="384" y="609" type="curve" smooth="yes"/>
      <point x="409" y="594"/>
      <point x="439" y="609"/>
      <point x="439" y="637" type="curve" smooth="yes"/>
      <point x="439" y="649"/>
      <point x="432" y="660"/>
      <point x="420" y="667" type="curve" smooth="yes"/>
      <point x="372" y="695"/>
      <point x="319" y="710"/>
      <point x="268" y="710" type="curve" smooth="yes"/>
      <point x="149" y="710"/>
      <point x="65" y="636"/>
      <point x="65" y="530" type="curve" smooth="yes"/>
      <point x="65" y="316"/>
      <point x="399" y="368"/>
      <point x="399" y="193" type="curve" smooth="yes"/>
      <point x="399" y="116"/>
      <point x="333" y="56"/>
      <point x="248" y="56" type="curve" smooth="yes"/>
      <point x="197" y="56"/>
      <point x="143" y="80"/>
      <point x="103" y="119" type="curve" smooth="yes"/>
      <point x="79" y="143"/>
      <point x="41" y="128"/>
      <point x="41" y="96" type="curve" smooth="yes"/>
      <point x="41" y="86"/>
      <point x="45" y="77"/>
      <point x="53" y="69" type="curve" smooth="yes"/>
      <point x="105" y="17"/>
      <point x="170" y="-10"/>
    </contour>
  </outline>
</glyph>
<glyph name="T" format="1">
  <advance width="557"/>
  <unicode hex="0054"/>
  <outline>
    <contour>
      <point x="316" y="27" type="curve" smooth="yes"/>
      <point x="322" y="157"/>
      <point x="325" y="271"/>
      <point x="325" y="376" type="curve" smooth="yes"/>
      <point x="325" y="463"/>
      <point x="323" y="544"/>
      <point x="319" y="625" type="curve"/>
      <point x="376" y="629"/>
      <point x="435" y="635"/>
      <point x="504" y="644" type="curve" smooth="yes"/>
      <point x="524" y="646"/>
      <point x="537" y="660"/>
      <point x="537" y="677" type="curve" smooth="yes"/>
      <point x="537" y="699"/>
      <point x="518" y="712"/>
      <point x="493" y="709" type="curve" smooth="yes"/>
      <point x="335" y="690"/>
      <point x="232" y="684"/>
      <point x="56" y="684" type="curve" smooth="yes"/>
      <point x="35" y="684"/>
      <point x="21" y="671"/>
      <point x="21" y="652" type="curve" smooth="yes"/>
      <point x="21" y="632"/>
      <point x="36" y="618"/>
      <point x="58" y="618" type="curve" smooth="yes"/>
      <point x="130" y="617"/>
      <point x="191" y="618"/>
      <point x="248" y="621" type="curve"/>
      <point x="253" y="553"/>
      <point x="255" y="477"/>
      <point x="255" y="387" type="curve" smooth="yes"/>
      <point x="255" y="288"/>
      <point x="252" y="172"/>
      <point x="246" y="29" type="curve" smooth="yes"/>
      <point x="245" y="9"/>
      <point x="260" y="-6"/>
      <point x="281" y="-6" type="curve" smooth="yes"/>
      <point x="301" y="-6"/>
      <point x="315" y="8"/>
    </contour>
  </outline>
</glyph>
<glyph name="U" format="1">
  <advance width="682"/>
  <unicode hex="0055"/>
  <outline>
    <contour>
      <point x="340" y="-10" type="curve" smooth="yes"/>
      <point x="514.19" y="-10"/>
      <point x="607" y="152.331"/>
      <point x="607" y="457" type="curve" smooth="yes"/>
      <point x="607" y="508.345"/>
      <point x="603.802" y="565.376"/>
      <point x="595" y="671" type="curve" smooth="yes"/>
      <point x="593.21" y="692.478"/>
      <point x="578.274" y="707.423"/>
      <point x="558.598" y="707.423" type="curve" smooth="yes"/>
      <point x="536.692" y="707.423"/>
      <point x="522.39" y="689.364"/>
      <point x="525" y="665" type="curve" smooth="yes"/>
      <point x="532.979" y="590.528"/>
      <point x="537" y="521.839"/>
      <point x="537" y="460" type="curve" smooth="yes"/>
      <point x="537" y="196.654"/>
      <point x="469.11" y="56"/>
      <point x="342" y="56" type="curve" smooth="yes"/>
      <point x="218.944" y="56"/>
      <point x="142" y="224.122"/>
      <point x="142" y="493" type="curve" smooth="yes"/>
      <point x="142" y="542.977"/>
      <point x="146.211" y="603.692"/>
      <point x="154" y="666" type="curve" smooth="yes"/>
      <point x="156.872" y="688.98"/>
      <point x="142.262" y="706.367"/>
      <point x="120.079" y="706.367" type="curve" smooth="yes"/>
      <point x="101.165" y="706.367"/>
      <point x="86.9226" y="693.226"/>
      <point x="85" y="674" type="curve" smooth="yes"/>
      <point x="78.3371" y="607.371"/>
      <point x="75" y="542.965"/>
      <point x="75" y="481" type="curve" smooth="yes"/>
      <point x="75" y="166.509"/>
      <point x="170.265" y="-10"/>
    </contour>
  </outline>
</glyph>
<glyph name="V" format="1">
  <advance width="608"/>
  <unicode hex="0056"/>
  <outline>
    <contour>
      <point x="307.4" y="18.6" type="curve" smooth="yes"/>
      <point x="411.4" y="217.3"/>
      <point x="501.6" y="446.6"/>
      <point x="561" y="663" type="curve" smooth="yes"/>
      <point x="567.4" y="686.4"/>
      <point x="552.4" y="706"/>
      <point x="528.2" y="706" type="curve" smooth="yes"/>
      <point x="510.8" y="706"/>
      <point x="496.8" y="695"/>
      <point x="491.8" y="677.4" type="curve" smooth="yes"/>
      <point x="438.5" y="487.6"/>
      <point x="381.3" y="336.3"/>
      <point x="285.2" y="131" type="curve"/>
      <point x="232" y="348.7"/>
      <point x="181.9" y="505.2"/>
      <point x="109" y="682" type="curve" smooth="yes"/>
      <point x="102.7" y="697.3"/>
      <point x="90.5" y="706.2"/>
      <point x="75.9" y="706.2" type="curve" smooth="yes"/>
      <point x="54.8757" y="706.2"/>
      <point x="40.4486" y="690.379"/>
      <point x="40.4486" y="671.388" type="curve" smooth="yes"/>
      <point x="40.4486" y="666.081"/>
      <point x="41.5755" y="660.526"/>
      <point x="44" y="655" type="curve" smooth="yes"/>
      <point x="117.4" y="487.9"/>
      <point x="191.1" y="245.7"/>
      <point x="235.3" y="27.6" type="curve" smooth="yes"/>
      <point x="239.5" y="7.2"/>
      <point x="253.7" y="-6.2"/>
      <point x="271.3" y="-6.2" type="curve" smooth="yes"/>
      <point x="285.8" y="-6.2"/>
      <point x="299.2" y="3.1"/>
    </contour>
  </outline>
</glyph>
<glyph name="W" format="1">
  <advance width="896"/>
  <unicode hex="0057"/>
  <outline>
    <contour>
      <point x="684.8" y="28.6" type="curve" smooth="yes"/>
      <point x="719.9" y="244.4"/>
      <point x="772.7" y="461.4"/>
      <point x="838" y="657" type="curve" smooth="yes"/>
      <point x="846.8" y="683.3"/>
      <point x="832.2" y="706.1"/>
      <point x="806.7" y="706.1" type="curve" smooth="yes"/>
      <point x="790.6" y="706.1"/>
      <point x="777.4" y="696.1"/>
      <point x="772" y="680" type="curve" smooth="yes"/>
      <point x="717.1" y="515.2"/>
      <point x="662.6" y="303"/>
      <point x="635.3" y="147.3" type="curve"/>
      <point x="570.8" y="311.5"/>
      <point x="523.4" y="464.9"/>
      <point x="494.1" y="604.1" type="curve" smooth="yes"/>
      <point x="489.4" y="626.5"/>
      <point x="472.6" y="641.2"/>
      <point x="451.9" y="641.2" type="curve" smooth="yes"/>
      <point x="433.1" y="641.2"/>
      <point x="416.5" y="629"/>
      <point x="408.5" y="609.3" type="curve" smooth="yes"/>
      <point x="329.7" y="414.1"/>
      <point x="284.8" y="285.9"/>
      <point x="243.6" y="139.2" type="curve"/>
      <point x="193.9" y="309.5"/>
      <point x="145.1" y="530.6"/>
      <point x="125" y="676" type="curve" smooth="yes"/>
      <point x="122.5" y="693.8"/>
      <point x="108.7" y="705.7"/>
      <point x="90.4" y="705.7" type="curve" smooth="yes"/>
      <point x="67.6" y="705.7"/>
      <point x="52.5" y="688"/>
      <point x="55.9" y="665.1" type="curve" smooth="yes"/>
      <point x="81.9" y="485"/>
      <point x="132.7" y="261.7"/>
      <point x="201.7" y="23.3" type="curve" smooth="yes"/>
      <point x="206.8" y="5.6"/>
      <point x="223.3" y="-6.1"/>
      <point x="243.3" y="-6.1" type="curve" smooth="yes"/>
      <point x="263.2" y="-6.1"/>
      <point x="279.3" y="5.4"/>
      <point x="284" y="23" type="curve" smooth="yes"/>
      <point x="338" y="225.8"/>
      <point x="391.4" y="388.2"/>
      <point x="442.8" y="506.6" type="curve"/>
      <point x="476.6" y="377.6"/>
      <point x="534.5" y="206.9"/>
      <point x="608" y="21.4" type="curve" smooth="yes"/>
      <point x="614.7" y="4.7"/>
      <point x="629.2" y="-5.7"/>
      <point x="646.1" y="-5.7" type="curve" smooth="yes"/>
      <point x="665.8" y="-5.7"/>
      <point x="681.4" y="8.2"/>
    </contour>
    <contour>
      <point x="448" y="730" type="move" name="top"/>
    </contour>
  </outline>
</glyph>
<glyph name="X" format="1">
  <advance width="623"/>
  <unicode hex="0058"/>
  <outline>
    <contour>
      <point x="380" y="360" type="curve"/>
      <point x="448" y="456"/>
      <point x="510" y="552"/>
      <point x="565" y="648" type="curve" smooth="yes"/>
      <point x="570" y="656"/>
      <point x="572" y="664"/>
      <point x="572" y="672" type="curve" smooth="yes"/>
      <point x="572" y="691"/>
      <point x="558" y="706"/>
      <point x="537" y="706" type="curve" smooth="yes"/>
      <point x="524" y="706"/>
      <point x="513" y="699"/>
      <point x="507" y="688" type="curve" smooth="yes"/>
      <point x="459" y="601"/>
      <point x="403" y="513"/>
      <point x="338" y="421" type="curve"/>
      <point x="288" y="494"/>
      <point x="229" y="572"/>
      <point x="138" y="689" type="curve" smooth="yes"/>
      <point x="130" y="699"/>
      <point x="120" y="705"/>
      <point x="109" y="705" type="curve" smooth="yes"/>
      <point x="88" y="705"/>
      <point x="73" y="688"/>
      <point x="73" y="670" type="curve" smooth="yes"/>
      <point x="73" y="663"/>
      <point x="76" y="656"/>
      <point x="81" y="649" type="curve" smooth="yes"/>
      <point x="180" y="520"/>
      <point x="242" y="437"/>
      <point x="295" y="361" type="curve"/>
      <point x="225" y="265"/>
      <point x="144" y="164"/>
      <point x="51" y="54" type="curve" smooth="yes"/>
      <point x="44" y="46"/>
      <point x="41" y="36"/>
      <point x="41" y="27" type="curve" smooth="yes"/>
      <point x="41" y="9"/>
      <point x="54" y="-7"/>
      <point x="74" y="-7" type="curve" smooth="yes"/>
      <point x="85" y="-7"/>
      <point x="96" y="-1"/>
      <point x="105" y="10" type="curve" smooth="yes"/>
      <point x="190" y="109"/>
      <point x="266" y="205"/>
      <point x="336" y="299" type="curve"/>
      <point x="394" y="212"/>
      <point x="447" y="123"/>
      <point x="508" y="11" type="curve" smooth="yes"/>
      <point x="514" y="0"/>
      <point x="524" y="-6"/>
      <point x="536" y="-6" type="curve" smooth="yes"/>
      <point x="557" y="-6"/>
      <point x="573" y="10"/>
      <point x="573" y="29" type="curve" smooth="yes"/>
      <point x="573" y="59"/>
      <point x="409" y="316"/>
    </contour>
  </outline>
</glyph>
<glyph name="Y" format="1">
  <advance width="584"/>
  <unicode hex="0059"/>
  <outline>
    <contour>
      <point x="347" y="20" type="curve" smooth="yes"/>
      <point x="350" y="52"/>
      <point x="351" y="93"/>
      <point x="351" y="136" type="curve" smooth="yes"/>
      <point x="351" y="193"/>
      <point x="349" y="254"/>
      <point x="344" y="304" type="curve"/>
      <point x="416" y="415"/>
      <point x="483" y="535"/>
      <point x="539" y="653" type="curve" smooth="yes"/>
      <point x="542" y="660"/>
      <point x="544" y="666"/>
      <point x="544" y="673" type="curve" smooth="yes"/>
      <point x="544" y="691"/>
      <point x="530" y="706"/>
      <point x="510" y="706" type="curve" smooth="yes"/>
      <point x="495" y="706"/>
      <point x="483" y="698"/>
      <point x="476" y="683" type="curve" smooth="yes"/>
      <point x="428" y="583"/>
      <point x="370" y="477"/>
      <point x="311" y="385" type="curve"/>
      <point x="249" y="506"/>
      <point x="200" y="582"/>
      <point x="113" y="692" type="curve" smooth="yes"/>
      <point x="106" y="701"/>
      <point x="96" y="706"/>
      <point x="85" y="706" type="curve" smooth="yes"/>
      <point x="64" y="706"/>
      <point x="50" y="691"/>
      <point x="50" y="673" type="curve" smooth="yes"/>
      <point x="50" y="665"/>
      <point x="53" y="656"/>
      <point x="59" y="648" type="curve" smooth="yes"/>
      <point x="156" y="523"/>
      <point x="208" y="440"/>
      <point x="274" y="304" type="curve"/>
      <point x="279" y="242"/>
      <point x="281" y="181"/>
      <point x="281" y="128" type="curve" smooth="yes"/>
      <point x="281" y="88"/>
      <point x="280" y="53"/>
      <point x="277" y="26" type="curve" smooth="yes"/>
      <point x="275" y="5"/>
      <point x="291" y="-10"/>
      <point x="312" y="-10" type="curve" smooth="yes"/>
      <point x="331" y="-10"/>
      <point x="345" y="2"/>
    </contour>
  </outline>
</glyph>
<glyph name="Z" format="1">
  <advance width="572"/>
  <unicode hex="005A"/>
  <outline>
    <contour>
      <point x="491" y="-4" type="curve" smooth="yes"/>
      <point x="513" y="-7"/>
      <point x="531" y="8"/>
      <point x="531" y="30" type="curve" smooth="yes"/>
      <point x="531" y="45"/>
      <point x="521" y="57"/>
      <point x="504" y="60" type="curve" smooth="yes"/>
      <point x="437" y="71"/>
      <point x="363" y="77"/>
      <point x="290" y="77" type="curve" smooth="yes"/>
      <point x="242" y="77"/>
      <point x="194" y="75"/>
      <point x="147" y="70" type="curve"/>
      <point x="268" y="234"/>
      <point x="360" y="380"/>
      <point x="501" y="634" type="curve" smooth="yes"/>
      <point x="506" y="644"/>
      <point x="509" y="653"/>
      <point x="509" y="662" type="curve" smooth="yes"/>
      <point x="509" y="684"/>
      <point x="491" y="701"/>
      <point x="463" y="700" type="curve" smooth="yes"/>
      <point x="395" y="697"/>
      <point x="340" y="696"/>
      <point x="284" y="696" type="curve" smooth="yes"/>
      <point x="228" y="696"/>
      <point x="170" y="697"/>
      <point x="93" y="700" type="curve" smooth="yes"/>
      <point x="71" y="701"/>
      <point x="56" y="688"/>
      <point x="56" y="668" type="curve" smooth="yes"/>
      <point x="56" y="649"/>
      <point x="70" y="635"/>
      <point x="90" y="634" type="curve" smooth="yes"/>
      <point x="241" y="629"/>
      <point x="307" y="628"/>
      <point x="419" y="632" type="curve"/>
      <point x="299" y="413"/>
      <point x="190" y="241"/>
      <point x="62" y="73" type="curve" smooth="yes"/>
      <point x="54" y="62"/>
      <point x="50" y="51"/>
      <point x="50" y="41" type="curve" smooth="yes"/>
      <point x="50" y="16"/>
      <point x="73" y="-4"/>
      <point x="106" y="0" type="curve" smooth="yes"/>
      <point x="177" y="7"/>
      <point x="234" y="11"/>
      <point x="289" y="11" type="curve" smooth="yes"/>
      <point x="353" y="11"/>
      <point x="414" y="6"/>
    </contour>
  </outline>
</glyph>
<glyph name="bracketleft" format="1">
  <advance width="303"/>
  <unicode hex="005B"/>
  <outline>
    <contour>
      <point x="237" y="-70" type="curve" smooth="yes"/>
      <point x="257" y="-71"/>
      <point x="271" y="-58"/>
      <point x="271" y="-39" type="curve" smooth="yes"/>
      <point x="271" y="-22"/>
      <point x="259" y="-9"/>
      <point x="241" y="-8" type="curve" smooth="yes"/>
      <point x="206" y="-6"/>
      <point x="185" y="-6"/>
      <point x="145" y="-8" type="curve"/>
      <point x="161" y="224"/>
      <point x="161" y="478"/>
      <point x="145" y="700" type="curve"/>
      <point x="182" y="700"/>
      <point x="203" y="702"/>
      <point x="245" y="709" type="curve" smooth="yes"/>
      <point x="261" y="711"/>
      <point x="272" y="724"/>
      <point x="272" y="740" type="curve" smooth="yes"/>
      <point x="272" y="760"/>
      <point x="256" y="773"/>
      <point x="235" y="770" type="curve" smooth="yes"/>
      <point x="189" y="763"/>
      <point x="161" y="761"/>
      <point x="116" y="761" type="curve" smooth="yes"/>
      <point x="94" y="761"/>
      <point x="79" y="745"/>
      <point x="80" y="725" type="curve" smooth="yes"/>
      <point x="95" y="474"/>
      <point x="95" y="213"/>
      <point x="80" y="-33" type="curve" smooth="yes"/>
      <point x="79" y="-57"/>
      <point x="95" y="-71"/>
      <point x="122" y="-70" type="curve" smooth="yes"/>
      <point x="161" y="-68"/>
      <point x="188" y="-68"/>
    </contour>
  </outline>
</glyph>
<glyph name="backslash" format="1">
  <advance width="485"/>
  <unicode hex="005C"/>
  <outline>
    <contour>
      <point x="440" y="23" type="curve" smooth="yes"/>
      <point x="298" y="279"/>
      <point x="224" y="432"/>
      <point x="103" y="721" type="curve" smooth="yes"/>
      <point x="98" y="734"/>
      <point x="87" y="742"/>
      <point x="74" y="742" type="curve" smooth="yes"/>
      <point x="54" y="742"/>
      <point x="41" y="727"/>
      <point x="41" y="709" type="curve" smooth="yes"/>
      <point x="41" y="704"/>
      <point x="42" y="699"/>
      <point x="44" y="693" type="curve" smooth="yes"/>
      <point x="165" y="403"/>
      <point x="240" y="248"/>
      <point x="382" y="-8" type="curve" smooth="yes"/>
      <point x="389" y="-20"/>
      <point x="399" y="-26"/>
      <point x="412" y="-26" type="curve" smooth="yes"/>
      <point x="432" y="-26"/>
      <point x="445" y="-12"/>
      <point x="445" y="5" type="curve" smooth="yes"/>
      <point x="445" y="11"/>
      <point x="443" y="17"/>
    </contour>
  </outline>
</glyph>
<glyph name="bracketright" format="1">
  <advance width="303"/>
  <unicode hex="005D"/>
  <outline>
    <contour>
      <point x="67.8" y="-70.1" type="curve" smooth="yes"/>
      <point x="113.5" y="-63.2"/>
      <point x="141.5" y="-61.1"/>
      <point x="186.8" y="-61.1" type="curve" smooth="yes"/>
      <point x="208.4" y="-61.1"/>
      <point x="223.7" y="-45.5"/>
      <point x="222.5" y="-24.8" type="curve" smooth="yes"/>
      <point x="215.162" y="100.387"/>
      <point x="211.487" y="228.116"/>
      <point x="211.487" y="355.265" type="curve" smooth="yes"/>
      <point x="211.487" y="482.845"/>
      <point x="215.187" y="609.841"/>
      <point x="222.6" y="733.1" type="curve" smooth="yes"/>
      <point x="224" y="756.6"/>
      <point x="208" y="770.7"/>
      <point x="181.2" y="769.5" type="curve" smooth="yes"/>
      <point x="141.8" y="767.7"/>
      <point x="114.6" y="767.8"/>
      <point x="65.8" y="769.9" type="curve" smooth="yes"/>
      <point x="46.3" y="770.8"/>
      <point x="31.9" y="757.5"/>
      <point x="31.9" y="738.7" type="curve" smooth="yes"/>
      <point x="31.9" y="721.6"/>
      <point x="44.1" y="709"/>
      <point x="61.8" y="707.9" type="curve" smooth="yes"/>
      <point x="96.9" y="705.7"/>
      <point x="117.4" y="705.7"/>
      <point x="157.8" y="707.9" type="curve"/>
      <point x="148.8" y="591.9"/>
      <point x="144.3" y="470.4"/>
      <point x="144.3" y="350.15" type="curve" smooth="yes"/>
      <point x="144.3" y="229.9"/>
      <point x="148.8" y="110.9"/>
      <point x="157.8" y="-0.1" type="curve"/>
      <point x="120.5" y="-0.1"/>
      <point x="99.5" y="-1.9"/>
      <point x="57.6" y="-8.6" type="curve" smooth="yes"/>
      <point x="41.5" y="-11.2"/>
      <point x="30.6" y="-23.9"/>
      <point x="30.6" y="-40.1" type="curve" smooth="yes"/>
      <point x="30.6" y="-60.4"/>
      <point x="46.6" y="-73.3"/>
    </contour>
  </outline>
</glyph>
<glyph name="asciicircum" format="1">
  <advance width="423"/>
  <unicode hex="005E"/>
  <outline>
    <contour>
      <point x="357" y="511" type="curve" smooth="yes"/>
      <point x="249" y="689" type="line" smooth="yes"/>
      <point x="241" y="702"/>
      <point x="227" y="710"/>
      <point x="212" y="710" type="curve" smooth="yes"/>
      <point x="196" y="710"/>
      <point x="181" y="701"/>
      <point x="174" y="688" type="curve" smooth="yes"/>
      <point x="133" y="614"/>
      <point x="109" y="576"/>
      <point x="67" y="512" type="curve" smooth="yes"/>
      <point x="62" y="505"/>
      <point x="60" y="497"/>
      <point x="60" y="490" type="curve" smooth="yes"/>
      <point x="60" y="474"/>
      <point x="72" y="461"/>
      <point x="91" y="461" type="curve" smooth="yes"/>
      <point x="104" y="461"/>
      <point x="117" y="468"/>
      <point x="126" y="481" type="curve" smooth="yes"/>
      <point x="163" y="535"/>
      <point x="184" y="570"/>
      <point x="212" y="621" type="curve"/>
      <point x="300" y="476" type="line" smooth="yes"/>
      <point x="306" y="465"/>
      <point x="317" y="459"/>
      <point x="329" y="459" type="curve" smooth="yes"/>
      <point x="349" y="459"/>
      <point x="363" y="473"/>
      <point x="363" y="491" type="curve" smooth="yes"/>
      <point x="363" y="497"/>
      <point x="361" y="504"/>
    </contour>
  </outline>
</glyph>
<glyph name="underscore" format="1">
  <advance width="570"/>
  <unicode hex="005F"/>
  <outline>
    <contour>
      <point x="477" y="4" type="curve" smooth="yes"/>
      <point x="498" y="4"/>
      <point x="509" y="18"/>
      <point x="509" y="33" type="curve" smooth="yes"/>
      <point x="509" y="48"/>
      <point x="498" y="64"/>
      <point x="474" y="64" type="curve" smooth="yes"/>
      <point x="326" y="67"/>
      <point x="242" y="67"/>
      <point x="93" y="60" type="curve"/>
      <point x="71" y="60"/>
      <point x="61" y="45"/>
      <point x="61" y="30" type="curve" smooth="yes"/>
      <point x="61" y="15"/>
      <point x="72" y="0"/>
      <point x="94" y="0" type="curve"/>
      <point x="244" y="7"/>
      <point x="328" y="7"/>
    </contour>
  </outline>
</glyph>
<glyph name="grave" format="1">
  <advance width="285"/>
  <unicode hex="0060"/>
  <outline>
    <contour>
      <point x="215.5" y="793.3" type="curve" smooth="yes"/>
      <point x="173.9" y="840.1"/>
      <point x="154.2" y="866"/>
      <point x="128.5" y="907.3" type="curve" smooth="yes"/>
      <point x="119.6" y="921.7"/>
      <point x="107.5" y="929.6"/>
      <point x="94.5" y="929.6" type="curve" smooth="yes"/>
      <point x="74.4314" y="929.6"/>
      <point x="61.2038" y="913.371"/>
      <point x="61.2038" y="895.099" type="curve" smooth="yes"/>
      <point x="61.2038" y="861.741"/>
      <point x="148.694" y="776.729"/>
      <point x="172.5" y="754.3" type="curve" smooth="yes"/>
      <point x="179.6" y="747.6"/>
      <point x="187.9" y="744.1"/>
      <point x="196.3" y="744.1" type="curve" smooth="yes"/>
      <point x="213.805" y="744.1"/>
      <point x="224.547" y="756.537"/>
      <point x="224.547" y="770.946" type="curve" smooth="yes"/>
      <point x="224.547" y="778.35"/>
      <point x="221.711" y="786.274"/>
    </contour>
    <contour>
      <point x="197" y="730" type="move" name="_top"/>
    </contour>
  </outline>
</glyph>
<glyph name="a" format="1">
  <advance width="554"/>
  <unicode hex="0061"/>
  <outline>
    <contour>
      <point x="483.5" y="27.5" type="curve" smooth="yes"/>
      <point x="475.006" y="116.856"/>
      <point x="470.759" y="197.28"/>
      <point x="470.759" y="271.845" type="curve" smooth="yes"/>
      <point x="470.759" y="330.712"/>
      <point x="473.406" y="385.926"/>
      <point x="478.7" y="439" type="curve" smooth="yes"/>
      <point x="481.9" y="471.4"/>
      <point x="468.4" y="491.3"/>
      <point x="438.7" y="498" type="curve" smooth="yes"/>
      <point x="403.2" y="506"/>
      <point x="368.7" y="510"/>
      <point x="335.8" y="510" type="curve" smooth="yes"/>
      <point x="166.6" y="510"/>
      <point x="55.7" y="404.8"/>
      <point x="55.7" y="244" type="curve" smooth="yes"/>
      <point x="55.7" y="100.9"/>
      <point x="152" y="-10"/>
      <point x="276.2" y="-10" type="curve" smooth="yes"/>
      <point x="326.2" y="-10"/>
      <point x="372.9" y="9"/>
      <point x="411.6" y="43.9" type="curve"/>
      <point x="413.854" y="21.5602"/>
      <point x="421.053" y="-5.8"/>
      <point x="448.7" y="-5.8" type="curve" smooth="yes"/>
      <point x="470.1" y="-5.8"/>
      <point x="485.3" y="8.7"/>
    </contour>
    <contour>
      <point x="405.9" y="117" type="curve"/>
      <point x="371.8" y="77.9"/>
      <point x="328.5" y="56.3"/>
      <point x="282.8" y="56.3" type="curve" smooth="yes"/>
      <point x="193.2" y="56.3"/>
      <point x="125.7" y="135.7"/>
      <point x="125.7" y="241" type="curve" smooth="yes"/>
      <point x="125.7" y="361.8"/>
      <point x="211.6" y="445.5"/>
      <point x="335.7" y="445.5" type="curve" smooth="yes"/>
      <point x="359.7" y="445.5"/>
      <point x="384.5" y="442.3"/>
      <point x="409.7" y="436" type="curve"/>
      <point x="404.614" y="371.757"/>
      <point x="402.092" y="308.847"/>
      <point x="402.092" y="247.07" type="curve" smooth="yes"/>
      <point x="402.092" y="203.165"/>
      <point x="403.366" y="159.832"/>
    </contour>
    <contour>
      <point x="306" y="550" type="move" name="top"/>
    </contour>
  </outline>
</glyph>
<glyph name="b" format="1">
  <advance width="571"/>
  <unicode hex="0062"/>
  <outline>
    <contour>
      <point x="294" y="-10" type="curve" smooth="yes"/>
      <point x="421" y="-10"/>
      <point x="515" y="102"/>
      <point x="515" y="252" type="curve" smooth="yes"/>
      <point x="515" y="401"/>
      <point x="423" y="510"/>
      <point x="296" y="510" type="curve" smooth="yes"/>
      <point x="237" y="510"/>
      <point x="186" y="487"/>
      <point x="150" y="443" type="curve"/>
      <point x="148" y="517"/>
      <point x="145" y="594"/>
      <point x="141" y="673" type="curve" smooth="yes"/>
      <point x="140" y="693"/>
      <point x="126" y="706"/>
      <point x="106" y="706" type="curve" smooth="yes"/>
      <point x="84" y="706"/>
      <point x="69" y="690"/>
      <point x="71" y="668" type="curve" smooth="yes"/>
      <point x="81" y="573"/>
      <point x="85" y="473"/>
      <point x="85" y="359" type="curve" smooth="yes"/>
      <point x="85" y="261"/>
      <point x="82" y="153"/>
      <point x="75" y="31" type="curve" smooth="yes"/>
      <point x="74" y="10"/>
      <point x="89" y="-6"/>
      <point x="111" y="-6" type="curve" smooth="yes"/>
      <point x="130" y="-6"/>
      <point x="144" y="8"/>
      <point x="145" y="27" type="curve" smooth="yes"/>
      <point x="146" y="37"/>
      <point x="146" y="49"/>
      <point x="147" y="63" type="curve"/>
      <point x="183" y="15"/>
      <point x="234" y="-10"/>
    </contour>
    <contour>
      <point x="285" y="56" type="curve" smooth="yes"/>
      <point x="205" y="56"/>
      <point x="151" y="135"/>
      <point x="151" y="252" type="curve" smooth="yes"/>
      <point x="151" y="368"/>
      <point x="207" y="444"/>
      <point x="291" y="444" type="curve" smooth="yes"/>
      <point x="378" y="444"/>
      <point x="444" y="364"/>
      <point x="444" y="258" type="curve" smooth="yes"/>
      <point x="444" y="148"/>
      <point x="372" y="56"/>
    </contour>
  </outline>
</glyph>
<glyph name="c" format="1">
  <advance width="524"/>
  <unicode hex="0063"/>
  <outline>
    <contour>
      <point x="477" y="69" type="curve" smooth="yes"/>
      <point x="485" y="78"/>
      <point x="489" y="88"/>
      <point x="489" y="97" type="curve" smooth="yes"/>
      <point x="489" y="130"/>
      <point x="446" y="142"/>
      <point x="425" y="115" type="curve" smooth="yes"/>
      <point x="395" y="77"/>
      <point x="350" y="56"/>
      <point x="299" y="56" type="curve" smooth="yes"/>
      <point x="199" y="56"/>
      <point x="125" y="140"/>
      <point x="125" y="252" type="curve" smooth="yes"/>
      <point x="125" y="363"/>
      <point x="197" y="444"/>
      <point x="295" y="444" type="curve" smooth="yes"/>
      <point x="342" y="444"/>
      <point x="385" y="427"/>
      <point x="416" y="396" type="curve" smooth="yes"/>
      <point x="439" y="373"/>
      <point x="477" y="388"/>
      <point x="477" y="420" type="curve" smooth="yes"/>
      <point x="477" y="430"/>
      <point x="473" y="439"/>
      <point x="464" y="447" type="curve" smooth="yes"/>
      <point x="417" y="488"/>
      <point x="359" y="510"/>
      <point x="297" y="510" type="curve" smooth="yes"/>
      <point x="157" y="510"/>
      <point x="55" y="400"/>
      <point x="55" y="251" type="curve" smooth="yes"/>
      <point x="55" y="101"/>
      <point x="159" y="-10"/>
      <point x="299" y="-10" type="curve" smooth="yes"/>
      <point x="370" y="-10"/>
      <point x="433" y="18"/>
    </contour>
  </outline>
</glyph>
<glyph name="d" format="1">
  <advance width="570"/>
  <unicode hex="0064"/>
  <outline>
    <contour>
      <point x="276" y="-10" type="curve" smooth="yes"/>
      <point x="336.1" y="-10"/>
      <point x="387.3" y="15.2"/>
      <point x="423.5" y="62.5" type="curve"/>
      <point x="424" y="50.6"/>
      <point x="424.5" y="38.8"/>
      <point x="425" y="27" type="curve" smooth="yes"/>
      <point x="425.8" y="7.5"/>
      <point x="440" y="-6"/>
      <point x="459.7" y="-6" type="curve" smooth="yes"/>
      <point x="481.2" y="-6"/>
      <point x="496.2" y="9.8"/>
      <point x="495" y="31" type="curve" smooth="yes"/>
      <point x="488.662" y="143.497"/>
      <point x="485.837" y="244.988"/>
      <point x="485.837" y="338.029" type="curve" smooth="yes"/>
      <point x="485.837" y="460.766"/>
      <point x="490.752" y="568.799"/>
      <point x="499" y="668" type="curve" smooth="yes"/>
      <point x="500.8" y="690"/>
      <point x="486" y="706.4"/>
      <point x="464.2" y="706.4" type="curve" smooth="yes"/>
      <point x="444.5" y="706.4"/>
      <point x="430" y="692.7"/>
      <point x="429" y="673" type="curve" smooth="yes"/>
      <point x="425" y="595.2"/>
      <point x="422.2" y="518.5"/>
      <point x="420.6" y="442.8" type="curve"/>
      <point x="384.1" y="486.6"/>
      <point x="333.1" y="510"/>
      <point x="274" y="510" type="curve" smooth="yes"/>
      <point x="147.3" y="510"/>
      <point x="55" y="401.2"/>
      <point x="55" y="252" type="curve" smooth="yes"/>
      <point x="55" y="101.7"/>
      <point x="149.2" y="-10"/>
    </contour>
    <contour>
      <point x="285" y="56" type="curve" smooth="yes"/>
      <point x="198.2" y="56"/>
      <point x="126" y="147.7"/>
      <point x="126" y="258" type="curve" smooth="yes"/>
      <point x="126" y="363.9"/>
      <point x="191.9" y="444"/>
      <point x="279" y="444" type="curve" smooth="yes"/>
      <point x="363.3" y="444"/>
      <point x="419" y="367.6"/>
      <point x="419" y="252" type="curve" smooth="yes"/>
      <point x="419" y="135"/>
      <point x="365" y="56"/>
    </contour>
    <contour>
      <point x="570" y="700" type="move" name="right"/>
    </contour>
  </outline>
</glyph>
<glyph name="e" format="1">
  <advance width="560"/>
  <unicode hex="0065"/>
  <outline>
    <contour>
      <point x="294" y="-10" type="curve" smooth="yes"/>
      <point x="373" y="-10"/>
      <point x="443" y="26"/>
      <point x="487" y="87" type="curve" smooth="yes"/>
      <point x="493" y="96"/>
      <point x="496" y="105"/>
      <point x="496" y="114" type="curve" smooth="yes"/>
      <point x="496" y="132"/>
      <point x="483" y="146"/>
      <point x="461" y="146" type="curve" smooth="yes"/>
      <point x="449" y="146"/>
      <point x="438" y="140"/>
      <point x="431" y="130" type="curve" smooth="yes"/>
      <point x="400" y="83"/>
      <point x="350" y="56"/>
      <point x="294" y="56" type="curve" smooth="yes"/>
      <point x="205" y="56"/>
      <point x="137" y="125"/>
      <point x="126" y="226" type="curve"/>
      <point x="469" y="226" type="line" smooth="yes"/>
      <point x="492" y="226"/>
      <point x="505" y="239"/>
      <point x="505" y="261" type="curve" smooth="yes"/>
      <point x="505" y="407"/>
      <point x="414" y="510"/>
      <point x="283" y="510" type="curve" smooth="yes"/>
      <point x="149" y="510"/>
      <point x="55" y="405"/>
      <point x="55" y="254" type="curve" smooth="yes"/>
      <point x="55" y="101"/>
      <point x="156" y="-10"/>
    </contour>
    <contour>
      <point x="433" y="292" type="curve"/>
      <point x="128" y="292" type="line"/>
      <point x="140" y="385"/>
      <point x="201" y="444"/>
      <point x="284" y="444" type="curve" smooth="yes"/>
      <point x="365" y="444"/>
      <point x="422" y="386"/>
    </contour>
    <contour>
      <point x="294" y="0" type="move" name="bottom"/>
    </contour>
    <contour>
      <point x="280" y="550" type="move" name="top"/>
    </contour>
  </outline>
</glyph>
<glyph name="f" format="1">
  <advance width="415"/>
  <unicode hex="0066"/>
  <outline>
    <contour>
      <point x="187" y="29" type="curve" smooth="yes"/>
      <point x="194.7" y="205.1"/>
      <point x="196.6" y="296.2"/>
      <point x="191.3" y="416.8" type="curve"/>
      <point x="250.2" y="421.1"/>
      <point x="304.3" y="425.8"/>
      <point x="354" y="432" type="curve" smooth="yes"/>
      <point x="373.3" y="434.4"/>
      <point x="386.1" y="447.9"/>
      <point x="386.1" y="465.7" type="curve" smooth="yes"/>
      <point x="386.1" y="487.7"/>
      <point x="367.6" y="502.3"/>
      <point x="344" y="499" type="curve" smooth="yes"/>
      <point x="294.2" y="492.1"/>
      <point x="240" y="486.5"/>
      <point x="187.9" y="482.9" type="curve"/>
      <point x="187.7" y="486.9"/>
      <point x="187.4" y="491.4"/>
      <point x="187" y="498" type="curve" smooth="yes"/>
      <point x="181.3" y="592.2"/>
      <point x="225.3" y="644"/>
      <point x="311" y="644" type="curve" smooth="yes"/>
      <point x="328" y="644"/>
      <point x="341" y="642"/>
      <point x="355" y="642" type="curve" smooth="yes"/>
      <point x="375" y="642"/>
      <point x="389.1" y="654.9"/>
      <point x="389.1" y="673.2" type="curve" smooth="yes"/>
      <point x="389.1" y="689"/>
      <point x="378.2" y="701.8"/>
      <point x="362" y="705" type="curve" smooth="yes"/>
      <point x="345.7" y="708.3"/>
      <point x="327.9" y="710"/>
      <point x="311" y="710" type="curve" smooth="yes"/>
      <point x="183.2" y="710"/>
      <point x="107.7" y="627.2"/>
      <point x="117" y="498" type="curve" smooth="yes"/>
      <point x="117.5" y="491.5"/>
      <point x="117.9" y="485.2"/>
      <point x="118.3" y="478.9" type="curve"/>
      <point x="95" y="478.3"/>
      <point x="76.9" y="478"/>
      <point x="61" y="478" type="curve" smooth="yes"/>
      <point x="40.1" y="478"/>
      <point x="25.4" y="464.2"/>
      <point x="25.4" y="444.6" type="curve" smooth="yes"/>
      <point x="25.4" y="423.7"/>
      <point x="41.7" y="409.1"/>
      <point x="64" y="410" type="curve" smooth="yes"/>
      <point x="83.7" y="410.8"/>
      <point x="103.1" y="411.7"/>
      <point x="122.3" y="412.7" type="curve"/>
      <point x="124.39" y="371.457"/>
      <point x="125.306" y="333.558"/>
      <point x="125.306" y="294.663" type="curve" smooth="yes"/>
      <point x="125.306" y="220.011"/>
      <point x="121.931" y="141.687"/>
      <point x="117" y="29" type="curve" smooth="yes"/>
      <point x="116.1" y="9.4"/>
      <point x="131.5" y="-6"/>
      <point x="152" y="-6" type="curve" smooth="yes"/>
      <point x="172" y="-6"/>
      <point x="186.1" y="8.1"/>
    </contour>
  </outline>
</glyph>
<glyph name="g" format="1">
  <advance width="563"/>
  <unicode hex="0067"/>
  <outline>
    <contour>
      <point x="270" y="-210" type="curve" smooth="yes"/>
      <point x="422.2" y="-210"/>
      <point x="504.7" y="-133.7"/>
      <point x="497" y="-4" type="curve" smooth="yes"/>
      <point x="492.575" y="70.8682"/>
      <point x="490.325" y="145.661"/>
      <point x="490.325" y="224.216" type="curve" smooth="yes"/>
      <point x="490.325" y="301.894"/>
      <point x="492.525" y="383.251"/>
      <point x="497" y="472" type="curve" smooth="yes"/>
      <point x="498" y="491"/>
      <point x="482.3" y="506"/>
      <point x="461" y="506" type="curve" smooth="yes"/>
      <point x="442.1" y="506"/>
      <point x="428" y="493.2"/>
      <point x="427" y="475" type="curve" smooth="yes"/>
      <point x="426.4" y="464.3"/>
      <point x="425.8" y="452.6"/>
      <point x="425.1" y="438.4" type="curve"/>
      <point x="389.3" y="485.3"/>
      <point x="338.1" y="510"/>
      <point x="277" y="510" type="curve" smooth="yes"/>
      <point x="148.1" y="510"/>
      <point x="55" y="400.5"/>
      <point x="55" y="249" type="curve" smooth="yes"/>
      <point x="55" y="104.2"/>
      <point x="146.7" y="0"/>
      <point x="274" y="0" type="curve" smooth="yes"/>
      <point x="334.7" y="0"/>
      <point x="385.9" y="23"/>
      <point x="422.2" y="66.5" type="curve"/>
      <point x="423.4" y="40.2"/>
      <point x="425" y="16.3"/>
      <point x="427" y="-5" type="curve" smooth="yes"/>
      <point x="435.1" y="-91.8"/>
      <point x="380.2" y="-140"/>
      <point x="273" y="-140" type="curve" smooth="yes"/>
      <point x="215.8" y="-140"/>
      <point x="167.9" y="-126"/>
      <point x="133" y="-99" type="curve" smooth="yes"/>
      <point x="123.813" y="-91.8812"/>
      <point x="113.937" y="-88.6121"/>
      <point x="104.895" y="-88.6121" type="curve" smooth="yes"/>
      <point x="87.2626" y="-88.6121"/>
      <point x="72.8" y="-101.043"/>
      <point x="72.8" y="-121.6" type="curve" smooth="yes"/>
      <point x="72.8" y="-133.3"/>
      <point x="78.5" y="-144.4"/>
      <point x="89" y="-153" type="curve" smooth="yes"/>
      <point x="133.5" y="-189.4"/>
      <point x="198.8" y="-210"/>
    </contour>
    <contour>
      <point x="285" y="70" type="curve" smooth="yes"/>
      <point x="194.1" y="70"/>
      <point x="126" y="144.9"/>
      <point x="126" y="245" type="curve" smooth="yes"/>
      <point x="126" y="351.6"/>
      <point x="200.3" y="440"/>
      <point x="290" y="440" type="curve" smooth="yes"/>
      <point x="370.4" y="440"/>
      <point x="419" y="369.6"/>
      <point x="419" y="253" type="curve" smooth="yes"/>
      <point x="419" y="137"/>
      <point x="369.9" y="70"/>
    </contour>
    <contour>
      <point x="276" y="550" type="move" name="top"/>
    </contour>
  </outline>
</glyph>
<glyph name="h" format="1">
  <advance width="549"/>
  <unicode hex="0068"/>
  <outline>
    <contour>
      <point x="145" y="28" type="curve" smooth="yes"/>
      <point x="149" y="115"/>
      <point x="152" y="214"/>
      <point x="151" y="316" type="curve"/>
      <point x="180" y="401"/>
      <point x="227" y="444"/>
      <point x="288" y="444" type="curve" smooth="yes"/>
      <point x="404" y="444"/>
      <point x="450" y="290"/>
      <point x="409" y="35" type="curve" smooth="yes"/>
      <point x="405" y="12"/>
      <point x="420" y="-7"/>
      <point x="441" y="-7" type="curve" smooth="yes"/>
      <point x="460" y="-7"/>
      <point x="473" y="7"/>
      <point x="476" y="28" type="curve" smooth="yes"/>
      <point x="518" y="349"/>
      <point x="458" y="510"/>
      <point x="297" y="510" type="curve" smooth="yes"/>
      <point x="234" y="510"/>
      <point x="186" y="486"/>
      <point x="150" y="436" type="curve"/>
      <point x="149" y="518"/>
      <point x="145" y="597"/>
      <point x="141" y="672" type="curve" smooth="yes"/>
      <point x="140" y="693"/>
      <point x="126" y="706"/>
      <point x="107" y="707" type="curve" smooth="yes"/>
      <point x="85" y="707"/>
      <point x="70" y="691"/>
      <point x="71" y="671" type="curve" smooth="yes"/>
      <point x="86" y="452"/>
      <point x="87" y="231"/>
      <point x="76" y="27" type="curve" smooth="yes"/>
      <point x="75" y="8"/>
      <point x="90" y="-6"/>
      <point x="110" y="-6" type="curve" smooth="yes"/>
      <point x="130" y="-6"/>
      <point x="144" y="8"/>
    </contour>
  </outline>
</glyph>
<glyph name="i" format="2">
  <advance width="230"/>
  <unicode hex="0069"/>
  <anchor x="117" y="0" name="bottom"/>
  <outline>
    <contour>
      <point x="150" y="31" type="curve" smooth="yes"/>
      <point x="136.118" y="169.819"/>
      <point x="137.789" y="320.464"/>
      <point x="150" y="467" type="curve" smooth="yes"/>
      <point x="151.858" y="489.3"/>
      <point x="136.847" y="506.405"/>
      <point x="115.419" y="506.405" type="curve" smooth="yes"/>
      <point x="96.2158" y="506.405"/>
      <point x="82.0578" y="492.212"/>
      <point x="80" y="471" type="curve" smooth="yes"/>
      <point x="66.8346" y="335.295"/>
      <point x="66.9066" y="186.028"/>
      <point x="81" y="31" type="curve" smooth="yes"/>
      <point x="83.019" y="8.79109"/>
      <point x="97.3408" y="-5.98774"/>
      <point x="116.844" y="-5.98774" type="curve" smooth="yes"/>
      <point x="137.544" y="-5.98774"/>
      <point x="152.078" y="10.225"/>
    </contour>
    <contour>
      <point x="124" y="610" type="curve" smooth="yes"/>
      <point x="154.612" y="610"/>
      <point x="175" y="629.588"/>
      <point x="175" y="659" type="curve" smooth="yes"/>
      <point x="175" y="690"/>
      <point x="155" y="710"/>
      <point x="124" y="710" type="curve" smooth="yes"/>
      <point x="94.1078" y="710"/>
      <point x="75" y="690.112"/>
      <point x="75" y="659" type="curve" smooth="yes"/>
      <point x="75" y="629"/>
      <point x="94" y="610"/>
    </contour>
  </outline>
</glyph>
<glyph name="j" format="1">
  <advance width="220"/>
  <unicode hex="006A"/>
  <outline>
    <contour>
      <point x="113" y="610" type="curve" smooth="yes"/>
      <point x="143" y="610"/>
      <point x="164" y="629"/>
      <point x="164" y="659" type="curve" smooth="yes"/>
      <point x="164" y="690"/>
      <point x="144" y="710"/>
      <point x="113" y="710" type="curve" smooth="yes"/>
      <point x="83" y="710"/>
      <point x="64" y="690"/>
      <point x="64" y="659" type="curve" smooth="yes"/>
      <point x="64" y="629"/>
      <point x="83" y="610"/>
    </contour>
    <contour>
      <point x="-47" y="-210" type="curve" smooth="yes"/>
      <point x="81" y="-210"/>
      <point x="156" y="-128"/>
      <point x="148" y="2" type="curve" smooth="yes"/>
      <point x="143" y="91"/>
      <point x="140" y="163"/>
      <point x="140" y="233" type="curve" smooth="yes"/>
      <point x="140" y="307"/>
      <point x="143" y="380"/>
      <point x="148" y="471" type="curve" smooth="yes"/>
      <point x="149" y="491"/>
      <point x="134" y="506"/>
      <point x="113" y="506" type="curve" smooth="yes"/>
      <point x="93" y="506"/>
      <point x="79" y="492"/>
      <point x="78" y="471" type="curve" smooth="yes"/>
      <point x="74" y="377"/>
      <point x="71" y="303"/>
      <point x="71" y="225" type="curve" smooth="yes"/>
      <point x="71" y="159"/>
      <point x="73" y="89"/>
      <point x="78" y="2" type="curve" smooth="yes"/>
      <point x="84" y="-106"/>
      <point x="31" y="-151"/>
      <point x="-90" y="-139" type="curve" smooth="yes"/>
      <point x="-91" y="-139"/>
      <point x="-92" y="-139"/>
      <point x="-93" y="-139" type="curve" smooth="yes"/>
      <point x="-113" y="-139"/>
      <point x="-124" y="-155"/>
      <point x="-124" y="-173" type="curve" smooth="yes"/>
      <point x="-122" y="-210"/>
      <point x="-74" y="-210"/>
    </contour>
    <contour>
      <point x="114" y="550" type="move" name="top"/>
    </contour>
  </outline>
</glyph>
<glyph name="k" format="1">
  <advance width="480"/>
  <unicode hex="006B"/>
  <outline>
    <contour>
      <point x="431" y="51" type="curve" smooth="yes"/>
      <point x="344.094" y="147.511"/>
      <point x="303.715" y="196.017"/>
      <point x="249.529" y="268.997" type="curve"/>
      <point x="305.81" y="327.71"/>
      <point x="355.11" y="377.378"/>
      <point x="410" y="449" type="curve" smooth="yes"/>
      <point x="430.165" y="475.311"/>
      <point x="417.054" y="505.287"/>
      <point x="385.382" y="505.287" type="curve" smooth="yes"/>
      <point x="373.26" y="505.287"/>
      <point x="362.099" y="499.752"/>
      <point x="354" y="490" type="curve" smooth="yes"/>
      <point x="262.299" y="379.584"/>
      <point x="212.631" y="323.713"/>
      <point x="149.403" y="259.85" type="curve"/>
      <point x="152.09" y="402.13"/>
      <point x="148.707" y="534.817"/>
      <point x="141" y="674" type="curve" smooth="yes"/>
      <point x="139.948" y="692.993"/>
      <point x="126.037" y="705.821"/>
      <point x="106.491" y="705.821" type="curve" smooth="yes"/>
      <point x="84.5506" y="705.821"/>
      <point x="69.3382" y="690.236"/>
      <point x="71" y="670" type="curve" smooth="yes"/>
      <point x="85.5" y="493.441"/>
      <point x="81.5356" y="263.421"/>
      <point x="71" y="30" type="curve" smooth="yes"/>
      <point x="70.0331" y="8.57878"/>
      <point x="83.3816" y="-5.97625"/>
      <point x="103.994" y="-5.97625" type="curve" smooth="yes"/>
      <point x="124.089" y="-5.97625"/>
      <point x="140.088" y="7.76141"/>
      <point x="141" y="26" type="curve" smooth="yes"/>
      <point x="143.481" y="75.6271"/>
      <point x="145.42" y="121.349"/>
      <point x="146.88" y="164.699" type="curve"/>
      <point x="167.566" y="185.341"/>
      <point x="185.605" y="203.483"/>
      <point x="202.098" y="220.232" type="curve"/>
      <point x="267.764" y="132.079"/>
      <point x="309.728" y="80.3924"/>
      <point x="375" y="7" type="curve" smooth="yes"/>
      <point x="382.591" y="-1.53595"/>
      <point x="392.096" y="-6.08708"/>
      <point x="402.33" y="-6.08708" type="curve" smooth="yes"/>
      <point x="433.407" y="-6.08708"/>
      <point x="450.95" y="28.8447"/>
    </contour>
  </outline>
</glyph>
<glyph name="l" format="1">
  <advance width="220"/>
  <unicode hex="006C"/>
  <outline>
    <contour>
      <point x="143.05" y="28" type="curve" smooth="yes"/>
      <point x="153.948" y="245.955"/>
      <point x="149.162" y="461.655"/>
      <point x="139.05" y="674" type="curve" smooth="yes"/>
      <point x="138.19" y="692.072"/>
      <point x="124.139" y="704.796"/>
      <point x="105.042" y="704.796" type="curve" smooth="yes"/>
      <point x="84.0311" y="704.796"/>
      <point x="69.6951" y="689.699"/>
      <point x="71.0503" y="669" type="curve" smooth="yes"/>
      <point x="87.8951" y="411.717"/>
      <point x="88.9577" y="214.935"/>
      <point x="73.0503" y="32" type="curve" smooth="yes"/>
      <point x="71.1385" y="10.0145"/>
      <point x="85.6126" y="-6.13491"/>
      <point x="107.229" y="-6.13491" type="curve" smooth="yes"/>
      <point x="127.248" y="-6.13491"/>
      <point x="142.049" y="7.96865"/>
    </contour>
    <contour>
      <point x="110" y="0" type="move" name="bottom"/>
    </contour>
    <contour>
      <point x="290" y="370" type="move" name="center"/>
    </contour>
    <contour>
      <point x="235" y="700" type="move" name="right"/>
    </contour>
  </outline>
</glyph>
<glyph name="m" format="1">
  <advance width="838"/>
  <unicode hex="006D"/>
  <outline>
    <contour>
      <point x="760" y="23" type="curve" smooth="yes"/>
      <point x="772" y="103"/>
      <point x="778" y="175"/>
      <point x="778" y="234" type="curve" smooth="yes"/>
      <point x="778" y="419.85"/>
      <point x="717" y="510"/>
      <point x="593.25" y="510" type="curve" smooth="yes"/>
      <point x="527.587" y="510"/>
      <point x="476.335" y="484.444"/>
      <point x="430.019" y="427.738" type="curve"/>
      <point x="399.604" y="482.884"/>
      <point x="350.596" y="510"/>
      <point x="282.7" y="510" type="curve" smooth="yes"/>
      <point x="227.542" y="510"/>
      <point x="182.554" y="491.94"/>
      <point x="142.084" y="452.515" type="curve"/>
      <point x="141.731" y="459.018"/>
      <point x="141.369" y="465.513"/>
      <point x="141" y="472" type="curve" smooth="yes"/>
      <point x="139.666" y="495.623"/>
      <point x="123.554" y="506.354"/>
      <point x="107.114" y="506.354" type="curve" smooth="yes"/>
      <point x="88.444" y="506.354"/>
      <point x="69.3515" y="492.514"/>
      <point x="71" y="468" type="curve" smooth="yes"/>
      <point x="80.85" y="322.35"/>
      <point x="81.25" y="170.6"/>
      <point x="71.35" y="29.85" type="curve" smooth="yes"/>
      <point x="69.6822" y="6.11631"/>
      <point x="86.9877" y="-6.14918"/>
      <point x="104.78" y="-6.14918" type="curve" smooth="yes"/>
      <point x="121.66" y="-6.14918"/>
      <point x="138.978" y="4.89029"/>
      <point x="140.95" y="27.65" type="curve" smooth="yes"/>
      <point x="150.56" y="139.481"/>
      <point x="150.435" y="251.735"/>
      <point x="146.269" y="362.408" type="curve"/>
      <point x="177.979" y="416.887"/>
      <point x="220.288" y="444"/>
      <point x="273.45" y="444" type="curve" smooth="yes"/>
      <point x="354.55" y="444"/>
      <point x="399.05" y="379.6"/>
      <point x="399.05" y="262.25" type="curve" smooth="yes"/>
      <point x="399.05" y="202"/>
      <point x="395.55" y="126.5"/>
      <point x="380.5" y="35" type="curve" smooth="yes"/>
      <point x="376.009" y="7.75245"/>
      <point x="394.961" y="-5.98024"/>
      <point x="414.195" y="-5.98024" type="curve" smooth="yes"/>
      <point x="430.291" y="-5.98024"/>
      <point x="446.584" y="3.63728"/>
      <point x="449.5" y="23" type="curve" smooth="yes"/>
      <point x="461.5" y="103"/>
      <point x="467.5" y="175"/>
      <point x="467.5" y="234" type="curve" smooth="yes"/>
      <point x="467.5" y="282.262"/>
      <point x="463.37" y="324.068"/>
      <point x="455.112" y="359.52" type="curve"/>
      <point x="487" y="415.929"/>
      <point x="529.857" y="444"/>
      <point x="583.95" y="444" type="curve" smooth="yes"/>
      <point x="665.05" y="444"/>
      <point x="709.55" y="379.6"/>
      <point x="709.55" y="262.25" type="curve" smooth="yes"/>
      <point x="709.55" y="202"/>
      <point x="706.05" y="126.5"/>
      <point x="691" y="35" type="curve" smooth="yes"/>
      <point x="686.509" y="7.75245"/>
      <point x="705.461" y="-5.98024"/>
      <point x="724.695" y="-5.98024" type="curve" smooth="yes"/>
      <point x="740.791" y="-5.98024"/>
      <point x="757.084" y="3.63728"/>
    </contour>
  </outline>
</glyph>
<glyph name="n" format="1">
  <advance width="557"/>
  <unicode hex="006E"/>
  <outline>
    <contour>
      <point x="141" y="28" type="curve" smooth="yes"/>
      <point x="146.6" y="118.3"/>
      <point x="148.8" y="210.8"/>
      <point x="147.4" y="303.9" type="curve"/>
      <point x="176.1" y="397.1"/>
      <point x="224.6" y="444"/>
      <point x="292" y="444" type="curve" smooth="yes"/>
      <point x="377" y="444"/>
      <point x="426" y="366.9"/>
      <point x="426" y="233" type="curve" smooth="yes"/>
      <point x="426" y="177.3"/>
      <point x="419.9" y="102.9"/>
      <point x="409" y="35" type="curve" smooth="yes"/>
      <point x="405.3" y="11.9"/>
      <point x="420.5" y="-6.6"/>
      <point x="443.1" y="-6.6" type="curve" smooth="yes"/>
      <point x="462.1" y="-6.6"/>
      <point x="476.3" y="7.1"/>
      <point x="479" y="28" type="curve" smooth="yes"/>
      <point x="492.4" y="130.6"/>
      <point x="497" y="181.7"/>
      <point x="497" y="227" type="curve" smooth="yes"/>
      <point x="497" y="410.1"/>
      <point x="426.4" y="510"/>
      <point x="297" y="510" type="curve" smooth="yes"/>
      <point x="230.1" y="510"/>
      <point x="180.2" y="482.7"/>
      <point x="143.5" y="425.9" type="curve"/>
      <point x="142.8" y="441.3"/>
      <point x="141.9" y="456.7"/>
      <point x="141" y="472" type="curve"/>
      <point x="140.2" y="492.4"/>
      <point x="126.1" y="506.3"/>
      <point x="106.5" y="506.3" type="curve" smooth="yes"/>
      <point x="84.9" y="506.3"/>
      <point x="69.6" y="489.9"/>
      <point x="71" y="468" type="curve" smooth="yes"/>
      <point x="75.8321" y="390.737"/>
      <point x="78.1803" y="313.448"/>
      <point x="78.1803" y="237.518" type="curve" smooth="yes"/>
      <point x="78.1803" y="165.741"/>
      <point x="76.0819" y="95.1779"/>
      <point x="72" y="27" type="curve" smooth="yes"/>
      <point x="70.9" y="8.4"/>
      <point x="85.7" y="-5.9"/>
      <point x="106" y="-5.9" type="curve" smooth="yes"/>
      <point x="125.7" y="-5.9"/>
      <point x="139.7" y="7.7"/>
    </contour>
    <contour>
      <point x="284" y="0" type="move" name="bottom"/>
    </contour>
    <contour>
      <point x="-60" y="700" type="move" name="right"/>
    </contour>
    <contour>
      <point x="284" y="530" type="move" name="top"/>
    </contour>
  </outline>
</glyph>
<glyph name="o" format="1">
  <advance width="560"/>
  <unicode hex="006F"/>
  <outline>
    <contour>
      <point x="276" y="-10" type="curve" smooth="yes"/>
      <point x="404" y="-10"/>
      <point x="505" y="99"/>
      <point x="505" y="256" type="curve" smooth="yes"/>
      <point x="505" y="403"/>
      <point x="417" y="510"/>
      <point x="283" y="510" type="curve" smooth="yes"/>
      <point x="152" y="510"/>
      <point x="55" y="408"/>
      <point x="55" y="254" type="curve" smooth="yes"/>
      <point x="55" y="106"/>
      <point x="144" y="-10"/>
    </contour>
    <contour>
      <point x="275" y="56" type="curve" smooth="yes"/>
      <point x="184" y="56"/>
      <point x="125" y="143"/>
      <point x="125" y="254" type="curve" smooth="yes"/>
      <point x="125" y="371"/>
      <point x="192" y="444"/>
      <point x="284" y="444" type="curve" smooth="yes"/>
      <point x="378" y="444"/>
      <point x="435" y="367"/>
      <point x="435" y="259" type="curve" smooth="yes"/>
      <point x="435" y="139"/>
      <point x="363" y="56"/>
    </contour>
    <contour>
      <point x="280" y="530" type="move" name="top"/>
    </contour>
  </outline>
</glyph>
<glyph name="p" format="1">
  <advance width="571"/>
  <unicode hex="0070"/>
  <outline>
    <contour>
      <point x="296.1" y="-9.6" type="curve" smooth="yes"/>
      <point x="422.8" y="-9.6"/>
      <point x="515.1" y="99.1"/>
      <point x="515.1" y="248.4" type="curve" smooth="yes"/>
      <point x="515.1" y="398.6"/>
      <point x="420.9" y="510.4"/>
      <point x="294.1" y="510.4" type="curve" smooth="yes"/>
      <point x="234" y="510.4"/>
      <point x="182.8" y="485.2"/>
      <point x="146.7" y="437.9" type="curve"/>
      <point x="146.2" y="449.8"/>
      <point x="145.7" y="461.6"/>
      <point x="145.2" y="473.4" type="curve" smooth="yes"/>
      <point x="144.3" y="492.8"/>
      <point x="130.1" y="506.3"/>
      <point x="110.5" y="506.3" type="curve" smooth="yes"/>
      <point x="89" y="506.3"/>
      <point x="74" y="490.6"/>
      <point x="75.2" y="469.4" type="curve" smooth="yes"/>
      <point x="81.5237" y="357.38"/>
      <point x="84.3313" y="256.186"/>
      <point x="84.3313" y="163.326" type="curve" smooth="yes"/>
      <point x="84.3313" y="40.325"/>
      <point x="79.4053" y="-68.0533"/>
      <point x="71.2" y="-167.6" type="curve" smooth="yes"/>
      <point x="69.3" y="-189.7"/>
      <point x="84.1" y="-206"/>
      <point x="106" y="-206" type="curve" smooth="yes"/>
      <point x="125.7" y="-206"/>
      <point x="140.1" y="-192.3"/>
      <point x="141.2" y="-172.6" type="curve" smooth="yes"/>
      <point x="145.1" y="-94.8"/>
      <point x="147.9" y="-18.1"/>
      <point x="149.5" y="57.5" type="curve"/>
      <point x="186.1" y="13.7"/>
      <point x="237.1" y="-9.6"/>
    </contour>
    <contour>
      <point x="291.1" y="56.3" type="curve" smooth="yes"/>
      <point x="206.9" y="56.3"/>
      <point x="151.1" y="132.8"/>
      <point x="151.1" y="248.3" type="curve" smooth="yes"/>
      <point x="151.1" y="365.4"/>
      <point x="205.2" y="444.3"/>
      <point x="285.1" y="444.3" type="curve" smooth="yes"/>
      <point x="371.9" y="444.3"/>
      <point x="444.1" y="352.6"/>
      <point x="444.1" y="242.3" type="curve" smooth="yes"/>
      <point x="444.1" y="136.5"/>
      <point x="378.2" y="56.3"/>
    </contour>
  </outline>
</glyph>
<glyph name="q" format="1">
  <advance width="570"/>
  <unicode hex="0071"/>
  <outline>
    <contour>
      <point x="274" y="-10" type="curve" smooth="yes"/>
      <point x="334" y="-10"/>
      <point x="385" y="15"/>
      <point x="421" y="58" type="curve"/>
      <point x="422" y="-17"/>
      <point x="425" y="-94"/>
      <point x="429" y="-173" type="curve" smooth="yes"/>
      <point x="430" y="-195"/>
      <point x="447" y="-206"/>
      <point x="464" y="-206" type="curve" smooth="yes"/>
      <point x="483" y="-206"/>
      <point x="501" y="-193"/>
      <point x="499" y="-168" type="curve" smooth="yes"/>
      <point x="489" y="-70"/>
      <point x="485" y="33"/>
      <point x="485" y="143" type="curve" smooth="yes"/>
      <point x="485" y="246"/>
      <point x="489" y="354"/>
      <point x="495" y="469" type="curve" smooth="yes"/>
      <point x="496" y="494"/>
      <point x="478" y="506"/>
      <point x="460" y="506" type="curve" smooth="yes"/>
      <point x="443" y="506"/>
      <point x="426" y="496"/>
      <point x="425" y="473" type="curve" smooth="yes"/>
      <point x="425" y="462"/>
      <point x="424" y="450"/>
      <point x="424" y="438" type="curve"/>
      <point x="388" y="484"/>
      <point x="337" y="510"/>
      <point x="276" y="510" type="curve" smooth="yes"/>
      <point x="149" y="510"/>
      <point x="55" y="398"/>
      <point x="55" y="248" type="curve" smooth="yes"/>
      <point x="55" y="98"/>
      <point x="148" y="-10"/>
    </contour>
    <contour>
      <point x="279" y="56" type="curve" smooth="yes"/>
      <point x="192" y="56"/>
      <point x="126" y="136"/>
      <point x="126" y="242" type="curve" smooth="yes"/>
      <point x="126" y="352"/>
      <point x="198" y="444"/>
      <point x="285" y="444" type="curve" smooth="yes"/>
      <point x="365" y="444"/>
      <point x="419" y="365"/>
      <point x="419" y="248" type="curve" smooth="yes"/>
      <point x="419" y="132"/>
      <point x="363" y="56"/>
    </contour>
  </outline>
</glyph>
<glyph name="r" format="1">
  <advance width="392"/>
  <unicode hex="0072"/>
  <outline>
    <contour>
      <point x="146" y="28" type="curve" smooth="yes"/>
      <point x="150.2" y="111.8"/>
      <point x="150.6" y="207.5"/>
      <point x="147.2" y="321.5" type="curve"/>
      <point x="163.5" y="400.4"/>
      <point x="203.4" y="443"/>
      <point x="261" y="443" type="curve" smooth="yes"/>
      <point x="279.8" y="443"/>
      <point x="300.8" y="438.3"/>
      <point x="323" y="429" type="curve" smooth="yes"/>
      <point x="328.368" y="426.751"/>
      <point x="333.775" y="425.706"/>
      <point x="338.938" y="425.706" type="curve" smooth="yes"/>
      <point x="356.956" y="425.706"/>
      <point x="372" y="438.423"/>
      <point x="372" y="457" type="curve" smooth="yes"/>
      <point x="372" y="497.625"/>
      <point x="308.123" y="510"/>
      <point x="278" y="510" type="curve" smooth="yes"/>
      <point x="222.2" y="510"/>
      <point x="175.8" y="484.3"/>
      <point x="142.9" y="435.2" type="curve"/>
      <point x="142.3" y="447.9"/>
      <point x="141.8" y="460.9"/>
      <point x="141" y="474" type="curve" smooth="yes"/>
      <point x="139.9" y="493.1"/>
      <point x="125.7" y="506.2"/>
      <point x="106.1" y="506.2" type="curve" smooth="yes"/>
      <point x="84" y="506.2"/>
      <point x="68.8" y="490.1"/>
      <point x="71" y="469" type="curve" smooth="yes"/>
      <point x="78.8188" y="393.046"/>
      <point x="82.6977" y="311.666"/>
      <point x="82.6977" y="223.376" type="curve" smooth="yes"/>
      <point x="82.6977" y="161.483"/>
      <point x="80.7915" y="96.1948"/>
      <point x="77" y="27" type="curve" smooth="yes"/>
      <point x="76" y="8.4"/>
      <point x="90.9" y="-5.9"/>
      <point x="111.3" y="-5.9" type="curve" smooth="yes"/>
      <point x="131" y="-5.9"/>
      <point x="145" y="7.7"/>
    </contour>
    <contour>
      <point x="111" y="0" type="move" name="bottom"/>
    </contour>
    <contour>
      <point x="221" y="530" type="move" name="top"/>
    </contour>
  </outline>
</glyph>
<glyph name="s" format="1">
  <advance width="415"/>
  <unicode hex="0073"/>
  <outline>
    <contour>
      <point x="202" y="-10" type="curve" smooth="yes"/>
      <point x="299" y="-10"/>
      <point x="369" y="57"/>
      <point x="369" y="147" type="curve" smooth="yes"/>
      <point x="369" y="313"/>
      <point x="131" y="274"/>
      <point x="131" y="380" type="curve" smooth="yes"/>
      <point x="131" y="419"/>
      <point x="163" y="444"/>
      <point x="216" y="444" type="curve" smooth="yes"/>
      <point x="270" y="444"/>
      <point x="293" y="417"/>
      <point x="319" y="417" type="curve" smooth="yes"/>
      <point x="339.6" y="417"/>
      <point x="352.7" y="433.2"/>
      <point x="352.7" y="449.9" type="curve" smooth="yes"/>
      <point x="352.7" y="495.667"/>
      <point x="246.469" y="510"/>
      <point x="215" y="510" type="curve" smooth="yes"/>
      <point x="124" y="510"/>
      <point x="61" y="454"/>
      <point x="61" y="374" type="curve" smooth="yes"/>
      <point x="61" y="215"/>
      <point x="299" y="259"/>
      <point x="299" y="143" type="curve" smooth="yes"/>
      <point x="299" y="94"/>
      <point x="258" y="56"/>
      <point x="204" y="56" type="curve" smooth="yes"/>
      <point x="172" y="56"/>
      <point x="143" y="69"/>
      <point x="107" y="101" type="curve" smooth="yes"/>
      <point x="98.9004" y="108.213"/>
      <point x="89.9693" y="111.297"/>
      <point x="81.4717" y="111.297" type="curve" smooth="yes"/>
      <point x="62.1673" y="111.297"/>
      <point x="45.1" y="95.3808"/>
      <point x="45.1" y="75.8" type="curve" smooth="yes"/>
      <point x="45.1" y="66.3"/>
      <point x="49.1" y="55.9"/>
      <point x="59" y="46" type="curve" smooth="yes"/>
      <point x="94" y="11"/>
      <point x="148" y="-10"/>
    </contour>
    <contour>
      <point x="207" y="0" type="move" name="bottom"/>
    </contour>
    <contour>
      <point x="215" y="530" type="move" name="top"/>
    </contour>
  </outline>
</glyph>
<glyph name="t" format="1">
  <advance width="373"/>
  <unicode hex="0074"/>
  <outline>
    <contour>
      <point x="313" y="445" type="curve" smooth="yes"/>
      <point x="331" y="448.1"/>
      <point x="342.4" y="460.9"/>
      <point x="342.4" y="477.6" type="curve" smooth="yes"/>
      <point x="342.4" y="498.9"/>
      <point x="325.1" y="513.5"/>
      <point x="304" y="510" type="curve" smooth="yes"/>
      <point x="255.7" y="502.1"/>
      <point x="219.1" y="497.4"/>
      <point x="184.4" y="494.9" type="curve"/>
      <point x="183.3" y="525.5"/>
      <point x="181.8" y="558.7"/>
      <point x="179" y="617" type="curve" smooth="yes"/>
      <point x="178" y="637.2"/>
      <point x="163.7" y="651.2"/>
      <point x="143.8" y="651.2" type="curve" smooth="yes"/>
      <point x="122" y="651.2"/>
      <point x="107" y="634.8"/>
      <point x="109" y="613" type="curve" smooth="yes"/>
      <point x="112.3" y="577.6"/>
      <point x="115.1" y="536.6"/>
      <point x="117.3" y="492.3" type="curve"/>
      <point x="99.5" y="492.1"/>
      <point x="80.4" y="492.4"/>
      <point x="59" y="493" type="curve" smooth="yes"/>
      <point x="39.8" y="493.6"/>
      <point x="25.7" y="479.8"/>
      <point x="25.7" y="460.5" type="curve" smooth="yes"/>
      <point x="25.7" y="441.3"/>
      <point x="39.8" y="427.6"/>
      <point x="60" y="427" type="curve" smooth="yes"/>
      <point x="81.8" y="426.3"/>
      <point x="101.4" y="426"/>
      <point x="119.9" y="426.1" type="curve"/>
      <point x="123.7" y="307.4"/>
      <point x="122.6" y="189.6"/>
      <point x="117" y="121" type="curve" smooth="yes"/>
      <point x="110.5" y="41.1"/>
      <point x="153.4" y="-10"/>
      <point x="227" y="-10" type="curve" smooth="yes"/>
      <point x="256.551" y="-10"/>
      <point x="340.8" y="2.64106"/>
      <point x="340.8" y="43.9" type="curve" smooth="yes"/>
      <point x="340.8" y="68.7"/>
      <point x="318.3" y="83.5"/>
      <point x="295" y="74" type="curve" smooth="yes"/>
      <point x="262.1" y="60.6"/>
      <point x="245.6" y="56"/>
      <point x="231" y="56" type="curve" smooth="yes"/>
      <point x="196.4" y="56"/>
      <point x="182.7" y="82.5"/>
      <point x="186" y="144" type="curve" smooth="yes"/>
      <point x="189.9" y="215.6"/>
      <point x="190.1" y="310.7"/>
      <point x="186.7" y="428.3" type="curve"/>
      <point x="223.8" y="431"/>
      <point x="261.6" y="436"/>
    </contour>
    <contour>
      <point x="227" y="0" type="move" name="bottom"/>
    </contour>
    <contour>
      <point x="366" y="700" type="move" name="right"/>
    </contour>
  </outline>
</glyph>
<glyph name="u" format="1">
  <advance width="554"/>
  <unicode hex="0075"/>
  <outline>
    <contour>
      <point x="483.9" y="35.35" type="curve" smooth="yes"/>
      <point x="474.558" y="186.113"/>
      <point x="474.68" y="336.437"/>
      <point x="482.9" y="476.35" type="curve" smooth="yes"/>
      <point x="483.993" y="494.951"/>
      <point x="469.094" y="509.255"/>
      <point x="448.625" y="509.255" type="curve" smooth="yes"/>
      <point x="429.034" y="509.255"/>
      <point x="415.204" y="495.751"/>
      <point x="413.9" y="475.35" type="curve" smooth="yes"/>
      <point x="407.96" y="382.394"/>
      <point x="405.749" y="289.776"/>
      <point x="407.3" y="198.812" type="curve"/>
      <point x="378.544" y="106.048"/>
      <point x="330.193" y="59.35"/>
      <point x="262.9" y="59.35" type="curve" smooth="yes"/>
      <point x="177.85" y="59.35"/>
      <point x="128.9" y="136.428"/>
      <point x="128.9" y="270.35" type="curve" smooth="yes"/>
      <point x="128.9" y="326.085"/>
      <point x="135.007" y="400.411"/>
      <point x="145.9" y="468.35" type="curve" smooth="yes"/>
      <point x="149.601" y="491.436"/>
      <point x="135.157" y="509.993"/>
      <point x="113.487" y="509.993" type="curve" smooth="yes"/>
      <point x="95.3354" y="509.993"/>
      <point x="81.6297" y="496.278"/>
      <point x="78.9" y="475.35" type="curve" smooth="yes"/>
      <point x="65.523" y="372.793"/>
      <point x="60.9" y="321.683"/>
      <point x="60.9" y="276.35" type="curve" smooth="yes"/>
      <point x="60.9" y="91.9109"/>
      <point x="129.51" y="-6.65"/>
      <point x="257.9" y="-6.65" type="curve" smooth="yes"/>
      <point x="324.741" y="-6.65"/>
      <point x="374.644" y="20.6731"/>
      <point x="411.352" y="77.3698" type="curve"/>
      <point x="411.41" y="63.2698"/>
      <point x="412.267" y="51.075"/>
      <point x="413.94" y="40.7471" type="curve" smooth="yes"/>
      <point x="418.705" y="11.3255"/>
      <point x="430.091" y="-2.9445"/>
      <point x="448.506" y="-2.9445" type="curve" smooth="yes"/>
      <point x="470.069" y="-2.9445"/>
      <point x="485.254" y="13.4983"/>
    </contour>
  </outline>
</glyph>
<glyph name="v" format="1">
  <advance width="539"/>
  <unicode hex="0076"/>
  <outline>
    <contour>
      <point x="497" y="450" type="curve" smooth="yes"/>
      <point x="513" y="477"/>
      <point x="499" y="506"/>
      <point x="469" y="506" type="curve" smooth="yes"/>
      <point x="456" y="506"/>
      <point x="445" y="500"/>
      <point x="438" y="488" type="curve" smooth="yes"/>
      <point x="377" y="387"/>
      <point x="304" y="233"/>
      <point x="253" y="97" type="curve"/>
      <point x="223" y="199"/>
      <point x="163" y="353"/>
      <point x="101" y="486" type="curve" smooth="yes"/>
      <point x="95" y="499"/>
      <point x="84" y="506"/>
      <point x="70" y="506" type="curve" smooth="yes"/>
      <point x="42" y="506"/>
      <point x="27" y="479"/>
      <point x="41" y="453" type="curve" smooth="yes"/>
      <point x="106" y="329"/>
      <point x="173" y="159"/>
      <point x="210" y="26" type="curve" smooth="yes"/>
      <point x="215" y="7"/>
      <point x="230" y="-6"/>
      <point x="248" y="-6" type="curve" smooth="yes"/>
      <point x="267" y="-6"/>
      <point x="283" y="7"/>
      <point x="291" y="27" type="curve" smooth="yes"/>
      <point x="356" y="189"/>
      <point x="422" y="324"/>
    </contour>
  </outline>
</glyph>
<glyph name="w" format="1">
  <advance width="753"/>
  <unicode hex="0077"/>
  <outline>
    <contour>
      <point x="547.7" y="22.2" type="curve" smooth="yes"/>
      <point x="589.2" y="160.3"/>
      <point x="666.3" y="357.2"/>
      <point x="714" y="456" type="curve" smooth="yes"/>
      <point x="716.563" y="461.301"/>
      <point x="717.749" y="466.679"/>
      <point x="717.749" y="471.845" type="curve" smooth="yes"/>
      <point x="717.749" y="490.265"/>
      <point x="702.676" y="506"/>
      <point x="681.2" y="506" type="curve" smooth="yes"/>
      <point x="667.7" y="506"/>
      <point x="656.2" y="498.8"/>
      <point x="650" y="486" type="curve" smooth="yes"/>
      <point x="619" y="422.2"/>
      <point x="536" y="212.4"/>
      <point x="506.5" y="123.4" type="curve"/>
      <point x="457.9" y="241.6"/>
      <point x="434.8" y="311.1"/>
      <point x="404" y="432" type="curve" smooth="yes"/>
      <point x="399.4" y="450.2"/>
      <point x="386.7" y="461.5"/>
      <point x="370.9" y="461.5" type="curve" smooth="yes"/>
      <point x="355.1" y="461.5"/>
      <point x="340.2" y="450.2"/>
      <point x="332" y="432" type="curve" smooth="yes"/>
      <point x="274.1" y="303.2"/>
      <point x="244.9" y="227.9"/>
      <point x="216.3" y="133.1" type="curve"/>
      <point x="168.1" y="259.5"/>
      <point x="143.9" y="338"/>
      <point x="109" y="481" type="curve" smooth="yes"/>
      <point x="105.1" y="497"/>
      <point x="93" y="506.8"/>
      <point x="77.2" y="506.8" type="curve" smooth="yes"/>
      <point x="52.5" y="506.8"/>
      <point x="35.9" y="485.2"/>
      <point x="42" y="461" type="curve" smooth="yes"/>
      <point x="82.4" y="301.2"/>
      <point x="111.6" y="209.2"/>
      <point x="180.4" y="25.7" type="curve" smooth="yes"/>
      <point x="187.5" y="6.6"/>
      <point x="203.2" y="-5.6"/>
      <point x="220.6" y="-5.6" type="curve" smooth="yes"/>
      <point x="237.7" y="-5.6"/>
      <point x="251.6" y="6"/>
      <point x="256.7" y="24.5" type="curve" smooth="yes"/>
      <point x="292" y="151.5"/>
      <point x="315.4" y="218.6"/>
      <point x="361.2" y="324.2" type="curve"/>
      <point x="389.6" y="217.5"/>
      <point x="420.4" y="149.6"/>
      <point x="472.7" y="22.1" type="curve" smooth="yes"/>
      <point x="479.7" y="5.1"/>
      <point x="494.8" y="-5.7"/>
      <point x="511.8" y="-5.7" type="curve" smooth="yes"/>
      <point x="528.7" y="-5.7"/>
      <point x="542.5" y="5.1"/>
    </contour>
    <contour>
      <point x="371" y="530" type="move" name="top"/>
    </contour>
  </outline>
</glyph>
<glyph name="x" format="1">
  <advance width="503"/>
  <unicode hex="0078"/>
  <outline>
    <contour>
      <point x="97" y="8" type="curve" smooth="yes"/>
      <point x="183" y="96"/>
      <point x="229" y="145"/>
      <point x="270" y="194" type="curve"/>
      <point x="418" y="9" type="line" smooth="yes"/>
      <point x="426" y="-1"/>
      <point x="436" y="-6"/>
      <point x="446" y="-6" type="curve" smooth="yes"/>
      <point x="476" y="-6"/>
      <point x="493" y="29"/>
      <point x="474" y="51" type="curve"/>
      <point x="315" y="250" type="line"/>
      <point x="360" y="308"/>
      <point x="401" y="368"/>
      <point x="449" y="448" type="curve" smooth="yes"/>
      <point x="466" y="477"/>
      <point x="453" y="506"/>
      <point x="424" y="506" type="curve" smooth="yes"/>
      <point x="412" y="506"/>
      <point x="401" y="500"/>
      <point x="395" y="489" type="curve" smooth="yes"/>
      <point x="356" y="417"/>
      <point x="319" y="361"/>
      <point x="273" y="303" type="curve"/>
      <point x="125" y="489" type="line" smooth="yes"/>
      <point x="117" y="499"/>
      <point x="107" y="504"/>
      <point x="96" y="504" type="curve" smooth="yes"/>
      <point x="65" y="504"/>
      <point x="49" y="472"/>
      <point x="68" y="448" type="curve" smooth="yes"/>
      <point x="227" y="248" type="line"/>
      <point x="188" y="202"/>
      <point x="147" y="158"/>
      <point x="42" y="51" type="curve" smooth="yes"/>
      <point x="19" y="28"/>
      <point x="33" y="-6"/>
      <point x="66" y="-6" type="curve" smooth="yes"/>
      <point x="77" y="-6"/>
      <point x="88" y="-1"/>
    </contour>
  </outline>
</glyph>
<glyph name="y" format="1">
  <advance width="507"/>
  <unicode hex="0079"/>
  <outline>
    <contour>
      <point x="195.1" y="-184" type="curve" smooth="yes"/>
      <point x="290.7" y="-16.9"/>
      <point x="431.1" y="304.6"/>
      <point x="470.1" y="461" type="curve" smooth="yes"/>
      <point x="476.3" y="485.6"/>
      <point x="462.3" y="506"/>
      <point x="439.2" y="506" type="curve" smooth="yes"/>
      <point x="424" y="506"/>
      <point x="411.7" y="496.3"/>
      <point x="407.1" y="481" type="curve" smooth="yes"/>
      <point x="370.5" y="356.6"/>
      <point x="323.3" y="229.8"/>
      <point x="267.4" y="106" type="curve"/>
      <point x="186.5" y="322.1"/>
      <point x="140.5" y="427.2"/>
      <point x="99.1" y="490" type="curve" smooth="yes"/>
      <point x="92.2" y="500.6"/>
      <point x="81.8" y="506.5"/>
      <point x="70.2" y="506.5" type="curve" smooth="yes"/>
      <point x="49.3011" y="506.5"/>
      <point x="35.2404" y="490.619"/>
      <point x="35.2404" y="471.944" type="curve" smooth="yes"/>
      <point x="35.2404" y="465.777"/>
      <point x="36.7736" y="459.305"/>
      <point x="40.1" y="453" type="curve" smooth="yes"/>
      <point x="102.7" y="335.3"/>
      <point x="178.1" y="162.4"/>
      <point x="228.1" y="22.4" type="curve"/>
      <point x="198.9" y="-37.5"/>
      <point x="168" y="-95.8"/>
      <point x="136.1" y="-151" type="curve" smooth="yes"/>
      <point x="132.089" y="-157.977"/>
      <point x="130.252" y="-165.279"/>
      <point x="130.252" y="-172.2" type="curve" smooth="yes"/>
      <point x="130.252" y="-190.476"/>
      <point x="143.062" y="-206.1"/>
      <point x="162.5" y="-206.1" type="curve" smooth="yes"/>
      <point x="175.3" y="-206.1"/>
      <point x="187" y="-198.2"/>
    </contour>
    <contour>
      <point x="260" y="530" type="move" name="top"/>
    </contour>
  </outline>
</glyph>
<glyph name="z" format="1">
  <advance width="513"/>
  <unicode hex="007A"/>
  <outline>
    <contour>
      <point x="435" y="0" type="curve" smooth="yes"/>
      <point x="462.9" y="-2.2"/>
      <point x="477.3" y="15.55"/>
      <point x="477.3" y="33.05" type="curve" smooth="yes"/>
      <point x="477.3" y="48.3"/>
      <point x="466.4" y="63.4"/>
      <point x="444" y="65" type="curve" smooth="yes"/>
      <point x="330.549" y="73.2036"/>
      <point x="226.18" y="72"/>
      <point x="145.052" y="66.5121" type="curve"/>
      <point x="231.445" y="161.994"/>
      <point x="362.281" y="329.734"/>
      <point x="432" y="435" type="curve" smooth="yes"/>
      <point x="455.85" y="471"/>
      <point x="439.8" y="501.75"/>
      <point x="398" y="500" type="curve" smooth="yes"/>
      <point x="302" y="496"/>
      <point x="205" y="495"/>
      <point x="82.25" y="500.15" type="curve" smooth="yes"/>
      <point x="57.95" y="501.2"/>
      <point x="45.1" y="484.25"/>
      <point x="45.1" y="467.25" type="curve" smooth="yes"/>
      <point x="45.1" y="451.1"/>
      <point x="56.75" y="434.85"/>
      <point x="81.3" y="433.85" type="curve" smooth="yes"/>
      <point x="184.123" y="429.825"/>
      <point x="259.994" y="429.979"/>
      <point x="353" y="433.474" type="curve"/>
      <point x="296.227" y="344.093"/>
      <point x="166.433" y="181.073"/>
      <point x="63" y="70" type="curve" smooth="yes"/>
      <point x="31.35" y="36"/>
      <point x="47.6" y="-3.3"/>
      <point x="91" y="0" type="curve" smooth="yes"/>
      <point x="197" y="8"/>
      <point x="334" y="8"/>
    </contour>
  </outline>
</glyph>
<glyph name="braceleft" format="1">
  <advance width="288"/>
  <unicode hex="007B"/>
  <outline>
    <contour>
      <point x="234" y="-15.1" type="curve" smooth="yes"/>
      <point x="190.9" y="13.4"/>
      <point x="170.5" y="45"/>
      <point x="170.5" y="83" type="curve" smooth="yes"/>
      <point x="170.5" y="126.4"/>
      <point x="200.5" y="167.9"/>
      <point x="200.5" y="221.7" type="curve" smooth="yes"/>
      <point x="200.5" y="277.5"/>
      <point x="169.4" y="325.5"/>
      <point x="117.5" y="350" type="curve"/>
      <point x="169.4" y="374.5"/>
      <point x="200.5" y="422.5"/>
      <point x="200.5" y="478.3" type="curve" smooth="yes"/>
      <point x="200.5" y="532"/>
      <point x="170.5" y="573.5"/>
      <point x="170.5" y="616.9" type="curve" smooth="yes"/>
      <point x="170.5" y="651.4"/>
      <point x="188.9" y="679.4"/>
      <point x="234.3" y="714.3" type="curve" smooth="yes"/>
      <point x="243.701" y="721.52"/>
      <point x="247.955" y="731.214"/>
      <point x="247.955" y="740.502" type="curve" smooth="yes"/>
      <point x="247.955" y="755.912"/>
      <point x="236.243" y="770.2"/>
      <point x="216.9" y="770.2" type="curve" smooth="yes"/>
      <point x="210.3" y="770.2"/>
      <point x="203.7" y="768.1"/>
      <point x="197.5" y="764" type="curve" smooth="yes"/>
      <point x="136.5" y="723.8"/>
      <point x="104.5" y="674.1"/>
      <point x="104.5" y="619.4" type="curve" smooth="yes"/>
      <point x="104.5" y="563.2"/>
      <point x="137.5" y="524.2"/>
      <point x="137.5" y="479.5" type="curve" smooth="yes"/>
      <point x="137.5" y="445.5"/>
      <point x="119.1" y="415.8"/>
      <point x="77.9" y="383.3" type="curve" smooth="yes"/>
      <point x="67" y="374.7"/>
      <point x="60.9" y="362.7"/>
      <point x="60.9" y="349.9" type="curve" smooth="yes"/>
      <point x="60.9" y="337.3"/>
      <point x="67" y="325.3"/>
      <point x="77.9" y="316.7" type="curve" smooth="yes"/>
      <point x="119.1" y="284.2"/>
      <point x="137.5" y="254.6"/>
      <point x="137.5" y="220.6" type="curve" smooth="yes"/>
      <point x="137.5" y="175.8"/>
      <point x="104.5" y="136.8"/>
      <point x="104.5" y="80.6" type="curve" smooth="yes"/>
      <point x="104.5" y="21.4"/>
      <point x="138.4" y="-31.8"/>
      <point x="197.5" y="-65" type="curve" smooth="yes"/>
      <point x="204.2" y="-68.7"/>
      <point x="210.9" y="-70.7"/>
      <point x="217.3" y="-70.7" type="curve" smooth="yes"/>
      <point x="236.314" y="-70.7"/>
      <point x="247.992" y="-55.7197"/>
      <point x="247.992" y="-40.3451" type="curve" smooth="yes"/>
      <point x="247.992" y="-30.9763"/>
      <point x="243.655" y="-21.4611"/>
    </contour>
  </outline>
</glyph>
<glyph name="bar" format="1">
  <advance width="219"/>
  <unicode hex="007C"/>
  <outline>
    <contour>
      <point x="136" y="-40" type="curve" smooth="yes"/>
      <point x="145" y="121"/>
      <point x="149" y="236"/>
      <point x="149" y="351" type="curve" smooth="yes"/>
      <point x="149" y="466"/>
      <point x="145" y="581"/>
      <point x="136" y="740" type="curve" smooth="yes"/>
      <point x="135" y="758"/>
      <point x="122" y="770"/>
      <point x="104" y="770" type="curve" smooth="yes"/>
      <point x="83" y="770"/>
      <point x="69" y="756"/>
      <point x="70" y="736" type="curve" smooth="yes"/>
      <point x="79" y="583"/>
      <point x="83" y="471"/>
      <point x="83" y="357" type="curve" smooth="yes"/>
      <point x="83" y="243"/>
      <point x="79" y="127"/>
      <point x="70" y="-35" type="curve" smooth="yes"/>
      <point x="69" y="-56"/>
      <point x="83" y="-71"/>
      <point x="104" y="-71" type="curve" smooth="yes"/>
      <point x="122" y="-71"/>
      <point x="135" y="-58"/>
    </contour>
  </outline>
</glyph>
<glyph name="braceright" format="1">
  <advance width="288"/>
  <unicode hex="007D"/>
  <outline>
    <contour>
      <point x="90.8" y="-65" type="curve" smooth="yes"/>
      <point x="149.8" y="-31.8"/>
      <point x="183.8" y="21.4"/>
      <point x="183.8" y="80.6" type="curve" smooth="yes"/>
      <point x="183.8" y="136.8"/>
      <point x="150.8" y="175.8"/>
      <point x="150.8" y="220.6" type="curve" smooth="yes"/>
      <point x="150.8" y="254.6"/>
      <point x="169.1" y="284.2"/>
      <point x="210.3" y="316.7" type="curve" smooth="yes"/>
      <point x="221.2" y="325.3"/>
      <point x="227.4" y="337.3"/>
      <point x="227.4" y="349.9" type="curve" smooth="yes"/>
      <point x="227.4" y="362.7"/>
      <point x="221.2" y="374.7"/>
      <point x="210.3" y="383.3" type="curve" smooth="yes"/>
      <point x="169.1" y="415.8"/>
      <point x="150.8" y="445.5"/>
      <point x="150.8" y="479.5" type="curve" smooth="yes"/>
      <point x="150.8" y="524.2"/>
      <point x="183.8" y="563.2"/>
      <point x="183.8" y="619.4" type="curve" smooth="yes"/>
      <point x="183.8" y="674.1"/>
      <point x="151.8" y="723.8"/>
      <point x="90.8" y="764" type="curve" smooth="yes"/>
      <point x="84.6" y="768.1"/>
      <point x="78" y="770.2"/>
      <point x="71.4" y="770.2" type="curve" smooth="yes"/>
      <point x="52.033" y="770.2"/>
      <point x="40.2769" y="755.876"/>
      <point x="40.2769" y="740.444" type="curve" smooth="yes"/>
      <point x="40.2769" y="731.174"/>
      <point x="44.5185" y="721.505"/>
      <point x="53.9" y="714.3" type="curve" smooth="yes"/>
      <point x="99.4" y="679.4"/>
      <point x="117.8" y="651.4"/>
      <point x="117.8" y="616.9" type="curve" smooth="yes"/>
      <point x="117.8" y="573.5"/>
      <point x="87.8" y="532"/>
      <point x="87.8" y="478.3" type="curve" smooth="yes"/>
      <point x="87.8" y="422.5"/>
      <point x="118.8" y="374.5"/>
      <point x="170.8" y="350" type="curve"/>
      <point x="118.8" y="325.5"/>
      <point x="87.8" y="277.5"/>
      <point x="87.8" y="221.7" type="curve" smooth="yes"/>
      <point x="87.8" y="167.9"/>
      <point x="117.8" y="126.4"/>
      <point x="117.8" y="83" type="curve" smooth="yes"/>
      <point x="117.8" y="45"/>
      <point x="97.3" y="13.4"/>
      <point x="54.3" y="-15.1" type="curve" smooth="yes"/>
      <point x="44.6387" y="-21.4651"/>
      <point x="40.3029" y="-30.9882"/>
      <point x="40.3029" y="-40.3627" type="curve" smooth="yes"/>
      <point x="40.3029" y="-55.7311"/>
      <point x="51.9557" y="-70.7"/>
      <point x="70.9" y="-70.7" type="curve" smooth="yes"/>
      <point x="77.4" y="-70.7"/>
      <point x="84.1" y="-68.8"/>
    </contour>
  </outline>
</glyph>
<glyph name="asciitilde" format="1">
  <advance width="500"/>
  <unicode hex="007E"/>
  <outline>
    <contour>
      <point x="428" y="261" type="curve" smooth="yes"/>
      <point x="435" y="268"/>
      <point x="439" y="276"/>
      <point x="439" y="285" type="curve" smooth="yes"/>
      <point x="439" y="305"/>
      <point x="424" y="318"/>
      <point x="408" y="318" type="curve" smooth="yes"/>
      <point x="400" y="318"/>
      <point x="393" y="315"/>
      <point x="386" y="309" type="curve" smooth="yes"/>
      <point x="358" y="283"/>
      <point x="339" y="273"/>
      <point x="318" y="273" type="curve" smooth="yes"/>
      <point x="268" y="273"/>
      <point x="242" y="326"/>
      <point x="173" y="326" type="curve" smooth="yes"/>
      <point x="134" y="326"/>
      <point x="100" y="309"/>
      <point x="71" y="275" type="curve" smooth="yes"/>
      <point x="64" y="267"/>
      <point x="61" y="259"/>
      <point x="61" y="251" type="curve" smooth="yes"/>
      <point x="61" y="232"/>
      <point x="76" y="220"/>
      <point x="93" y="220" type="curve" smooth="yes"/>
      <point x="101" y="220"/>
      <point x="110" y="224"/>
      <point x="117" y="231" type="curve" smooth="yes"/>
      <point x="135" y="251"/>
      <point x="154" y="260"/>
      <point x="178" y="260" type="curve" smooth="yes"/>
      <point x="232" y="260"/>
      <point x="257" y="207"/>
      <point x="320" y="207" type="curve" smooth="yes"/>
      <point x="355" y="207"/>
      <point x="388" y="224"/>
    </contour>
  </outline>
</glyph>
<glyph name="exclamdown" format="1">
  <advance width="250"/>
  <unicode hex="00A1"/>
  <outline>
    <contour>
      <point x="134" y="416" type="curve" smooth="yes"/>
      <point x="164" y="416"/>
      <point x="185" y="435"/>
      <point x="185" y="465" type="curve" smooth="yes"/>
      <point x="185" y="496"/>
      <point x="165" y="516"/>
      <point x="134" y="516" type="curve" smooth="yes"/>
      <point x="104" y="516"/>
      <point x="85" y="496"/>
      <point x="85" y="465" type="curve" smooth="yes"/>
      <point x="85" y="435"/>
      <point x="104" y="416"/>
    </contour>
    <contour>
      <point x="160" y="-163" type="curve" smooth="yes"/>
      <point x="153" y="-92"/>
      <point x="150" y="-20"/>
      <point x="150" y="52" type="curve" smooth="yes"/>
      <point x="150" y="127"/>
      <point x="153" y="201"/>
      <point x="160" y="273" type="curve" smooth="yes"/>
      <point x="162" y="299"/>
      <point x="144" y="313"/>
      <point x="125" y="313" type="curve" smooth="yes"/>
      <point x="109" y="313"/>
      <point x="92" y="301"/>
      <point x="90" y="277" type="curve" smooth="yes"/>
      <point x="84" y="211"/>
      <point x="80" y="142"/>
      <point x="80" y="70" type="curve" smooth="yes"/>
      <point x="80" y="-5"/>
      <point x="84" y="-83"/>
      <point x="91" y="-163" type="curve" smooth="yes"/>
      <point x="93" y="-189"/>
      <point x="110" y="-200"/>
      <point x="127" y="-200" type="curve" smooth="yes"/>
      <point x="145" y="-200"/>
      <point x="162" y="-186"/>
    </contour>
  </outline>
</glyph>
<glyph name="cent" format="1">
  <advance width="524"/>
  <unicode hex="00A2"/>
  <outline>
    <contour>
      <point x="331" y="-83.3" type="curve" smooth="yes"/>
      <point x="326.9" y="-8.5" type="line"/>
      <point x="386.2" y="-2"/>
      <point x="439.2" y="25.1"/>
      <point x="477" y="69" type="curve" smooth="yes"/>
      <point x="484.7" y="77.9"/>
      <point x="488.8" y="87.5"/>
      <point x="488.8" y="96.8" type="curve" smooth="yes"/>
      <point x="488.8" y="117.375"/>
      <point x="472.379" y="129.835"/>
      <point x="454.836" y="129.835" type="curve" smooth="yes"/>
      <point x="444.156" y="129.835"/>
      <point x="433.06" y="125.217"/>
      <point x="425" y="115" type="curve" smooth="yes"/>
      <point x="395.4" y="77.4"/>
      <point x="349.6" y="56"/>
      <point x="299" y="56" type="curve" smooth="yes"/>
      <point x="199.3" y="56"/>
      <point x="125" y="139.7"/>
      <point x="125" y="252" type="curve" smooth="yes"/>
      <point x="125" y="362.9"/>
      <point x="196.9" y="444"/>
      <point x="295" y="444" type="curve" smooth="yes"/>
      <point x="341.5" y="444"/>
      <point x="385.4" y="426.6"/>
      <point x="416" y="396" type="curve" smooth="yes"/>
      <point x="423.663" y="388.337"/>
      <point x="433.034" y="384.893"/>
      <point x="442.126" y="384.893" type="curve" smooth="yes"/>
      <point x="460.324" y="384.893"/>
      <point x="477.4" y="398.694"/>
      <point x="477.4" y="420.1" type="curve" smooth="yes"/>
      <point x="477.4" y="430"/>
      <point x="472.7" y="439.4"/>
      <point x="464" y="447" type="curve" smooth="yes"/>
      <point x="424.2" y="481.7"/>
      <point x="377.6" y="502.5"/>
      <point x="326.8" y="508.3" type="curve"/>
      <point x="331" y="593.2" type="line" smooth="yes"/>
      <point x="332.1" y="617.2"/>
      <point x="314.1" y="629.3"/>
      <point x="296.1" y="629.3" type="curve" smooth="yes"/>
      <point x="278.2" y="629.3"/>
      <point x="260.3" y="617.3"/>
      <point x="261.5" y="593.2" type="curve" smooth="yes"/>
      <point x="265.6" y="508.1" type="line"/>
      <point x="142.3" y="493"/>
      <point x="55" y="389"/>
      <point x="55" y="251" type="curve" smooth="yes"/>
      <point x="55" y="113.3"/>
      <point x="142.7" y="8.4"/>
      <point x="265.6" y="-7.8" type="curve"/>
      <point x="261.5" y="-83.4" type="line" smooth="yes"/>
      <point x="260.2" y="-107.5"/>
      <point x="278.1" y="-119.5"/>
      <point x="296.1" y="-119.5" type="curve" smooth="yes"/>
      <point x="314.1" y="-119.5"/>
      <point x="332.2" y="-107.4"/>
    </contour>
  </outline>
</glyph>
<glyph name="sterling" format="1">
  <advance width="524"/>
  <unicode hex="00A3"/>
  <outline>
    <contour>
      <point x="355.2" y="326.1" type="curve" smooth="yes"/>
      <point x="371.2" y="328.9"/>
      <point x="382" y="341.5"/>
      <point x="382" y="357.3" type="curve" smooth="yes"/>
      <point x="382" y="376.5"/>
      <point x="366.8" y="388.3"/>
      <point x="347" y="384.7" type="curve" smooth="yes"/>
      <point x="288.8" y="374.2"/>
      <point x="248" y="367.9"/>
      <point x="210.4" y="363.6" type="curve"/>
      <point x="190" y="416.5"/>
      <point x="167" y="467.4"/>
      <point x="167" y="515.1" type="curve" smooth="yes"/>
      <point x="167" y="589.1"/>
      <point x="220.5" y="644"/>
      <point x="292.7" y="644" type="curve" smooth="yes"/>
      <point x="336.4" y="644"/>
      <point x="375.6" y="625.4"/>
      <point x="409" y="589" type="curve" smooth="yes"/>
      <point x="417" y="580.3"/>
      <point x="426.7" y="575.6"/>
      <point x="436.9" y="575.6" type="curve" smooth="yes"/>
      <point x="457.442" y="575.6"/>
      <point x="470.102" y="590.719"/>
      <point x="470.102" y="607.981" type="curve" smooth="yes"/>
      <point x="470.102" y="617.02"/>
      <point x="466.63" y="626.648"/>
      <point x="459" y="635" type="curve" smooth="yes"/>
      <point x="413.6" y="684.6"/>
      <point x="357.2" y="710"/>
      <point x="292.7" y="710" type="curve" smooth="yes"/>
      <point x="178.3" y="710"/>
      <point x="97" y="628.9"/>
      <point x="97" y="514.9" type="curve" smooth="yes"/>
      <point x="97" y="456"/>
      <point x="118.5" y="405.6"/>
      <point x="138.2" y="357.3" type="curve"/>
      <point x="121.2" y="356.3"/>
      <point x="102.9" y="355.5"/>
      <point x="82" y="354.9" type="curve" smooth="yes"/>
      <point x="66.2" y="354.3"/>
      <point x="55.5" y="343.6"/>
      <point x="55.5" y="328.1" type="curve" smooth="yes"/>
      <point x="55.5" y="309.1"/>
      <point x="70.7" y="295.3"/>
      <point x="90.4" y="296.3" type="curve" smooth="yes"/>
      <point x="116.6" y="297.5"/>
      <point x="138.8" y="298.9"/>
      <point x="159.2" y="300.4" type="curve"/>
      <point x="166.5" y="276.4"/>
      <point x="170" y="255.4"/>
      <point x="170" y="235.4" type="curve" smooth="yes"/>
      <point x="170" y="179.1"/>
      <point x="143" y="123.9"/>
      <point x="81" y="52.4" type="curve" smooth="yes"/>
      <point x="74" y="44.3"/>
      <point x="70.3" y="35.1"/>
      <point x="70.3" y="26" type="curve" smooth="yes"/>
      <point x="70.3" y="4.2"/>
      <point x="90.4" y="-9.7"/>
      <point x="114.2" y="-4.3" type="curve" smooth="yes"/>
      <point x="137.4" y="0.9"/>
      <point x="168.7" y="18"/>
      <point x="213.9" y="18" type="curve" smooth="yes"/>
      <point x="267.3" y="18"/>
      <point x="311" y="-6"/>
      <point x="366.3" y="-6" type="curve" smooth="yes"/>
      <point x="404.19" y="-6"/>
      <point x="483.583" y="12.1847"/>
      <point x="483.583" y="62.3726" type="curve" smooth="yes"/>
      <point x="483.583" y="79.2926"/>
      <point x="472.341" y="93.4"/>
      <point x="452.1" y="93.4" type="curve" smooth="yes"/>
      <point x="443.2" y="93.4"/>
      <point x="434.2" y="89.8"/>
      <point x="426" y="83" type="curve" smooth="yes"/>
      <point x="406.1" y="66.5"/>
      <point x="382.4" y="58"/>
      <point x="356.1" y="58" type="curve" smooth="yes"/>
      <point x="309" y="58"/>
      <point x="287" y="85"/>
      <point x="229.5" y="85" type="curve" smooth="yes"/>
      <point x="208.9" y="85"/>
      <point x="187.2" y="81.2"/>
      <point x="172" y="75" type="curve"/>
      <point x="219.6" y="129.9"/>
      <point x="241" y="179.3"/>
      <point x="241" y="234.1" type="curve" smooth="yes"/>
      <point x="241" y="256.3"/>
      <point x="237.3" y="280.1"/>
      <point x="229.7" y="307.2" type="curve"/>
      <point x="265.4" y="311.4"/>
      <point x="303.5" y="317.2"/>
    </contour>
  </outline>
</glyph>
<glyph name="currency" format="1">
  <advance width="558"/>
  <unicode hex="00A4"/>
  <outline>
    <contour>
      <point x="279" y="189" type="curve" smooth="yes"/>
      <point x="315" y="189"/>
      <point x="347" y="197"/>
      <point x="373" y="214" type="curve"/>
      <point x="427" y="153" type="line" smooth="yes"/>
      <point x="434" y="146"/>
      <point x="442" y="142"/>
      <point x="450" y="142" type="curve" smooth="yes"/>
      <point x="472" y="142"/>
      <point x="487" y="161"/>
      <point x="487" y="179" type="curve" smooth="yes"/>
      <point x="487" y="188"/>
      <point x="484" y="196"/>
      <point x="477" y="202" type="curve" smooth="yes"/>
      <point x="415" y="256" type="line"/>
      <point x="432" y="282"/>
      <point x="440" y="314"/>
      <point x="440" y="350" type="curve" smooth="yes"/>
      <point x="440" y="385"/>
      <point x="432" y="416"/>
      <point x="416" y="442" type="curve"/>
      <point x="478" y="499" type="line" smooth="yes"/>
      <point x="485" y="505"/>
      <point x="487" y="513"/>
      <point x="487" y="521" type="curve" smooth="yes"/>
      <point x="487" y="539"/>
      <point x="471" y="559"/>
      <point x="449" y="559" type="curve" smooth="yes"/>
      <point x="441" y="559"/>
      <point x="433" y="555"/>
      <point x="427" y="548" type="curve" smooth="yes"/>
      <point x="372" y="486" type="line"/>
      <point x="346" y="503"/>
      <point x="315" y="512"/>
      <point x="279" y="512" type="curve" smooth="yes"/>
      <point x="244" y="512"/>
      <point x="212" y="503"/>
      <point x="186" y="486" type="curve"/>
      <point x="130" y="548" type="line" smooth="yes"/>
      <point x="124" y="555"/>
      <point x="116" y="559"/>
      <point x="108" y="559" type="curve" smooth="yes"/>
      <point x="86" y="559"/>
      <point x="71" y="541"/>
      <point x="71" y="522" type="curve" smooth="yes"/>
      <point x="71" y="514"/>
      <point x="74" y="506"/>
      <point x="81" y="499" type="curve" smooth="yes"/>
      <point x="143" y="443" type="line"/>
      <point x="126" y="417"/>
      <point x="117" y="385"/>
      <point x="117" y="350" type="curve" smooth="yes"/>
      <point x="117" y="314"/>
      <point x="126" y="282"/>
      <point x="143" y="256" type="curve"/>
      <point x="81" y="202" type="line" smooth="yes"/>
      <point x="74" y="196"/>
      <point x="71" y="187"/>
      <point x="71" y="179" type="curve" smooth="yes"/>
      <point x="71" y="160"/>
      <point x="86" y="141"/>
      <point x="108" y="141" type="curve" smooth="yes"/>
      <point x="117" y="141"/>
      <point x="125" y="145"/>
      <point x="131" y="152" type="curve" smooth="yes"/>
      <point x="186" y="214" type="line"/>
      <point x="212" y="197"/>
      <point x="244" y="189"/>
    </contour>
    <contour>
      <point x="279" y="249" type="curve" smooth="yes"/>
      <point x="222" y="249"/>
      <point x="183" y="289"/>
      <point x="183" y="350" type="curve" smooth="yes"/>
      <point x="183" y="411"/>
      <point x="222" y="452"/>
      <point x="279" y="452" type="curve" smooth="yes"/>
      <point x="337" y="452"/>
      <point x="374" y="412"/>
      <point x="374" y="350" type="curve" smooth="yes"/>
      <point x="374" y="289"/>
      <point x="337" y="249"/>
    </contour>
  </outline>
</glyph>
<glyph name="yen" format="1">
  <advance width="584"/>
  <unicode hex="00A5"/>
  <outline>
    <contour>
      <point x="467.2" y="168" type="curve" smooth="yes"/>
      <point x="486" y="170.2"/>
      <point x="498.6" y="183.8"/>
      <point x="498.6" y="201.9" type="curve" smooth="yes"/>
      <point x="498.6" y="222.6"/>
      <point x="482.7" y="236.6"/>
      <point x="462.2" y="234" type="curve" smooth="yes"/>
      <point x="424.6" y="229.2"/>
      <point x="386.9" y="225.5"/>
      <point x="349.1" y="222.9" type="curve"/>
      <point x="348.3" y="243.1"/>
      <point x="347.1" y="262.9"/>
      <point x="345.6" y="281.8" type="curve"/>
      <point x="382.8" y="284.1"/>
      <point x="422" y="287.7"/>
      <point x="467.2" y="293" type="curve" smooth="yes"/>
      <point x="486" y="295.2"/>
      <point x="498.6" y="308.8"/>
      <point x="498.6" y="326.9" type="curve" smooth="yes"/>
      <point x="498.6" y="347.6"/>
      <point x="482.7" y="361.6"/>
      <point x="462.2" y="359" type="curve" smooth="yes"/>
      <point x="432.2" y="355.1"/>
      <point x="402.5" y="352"/>
      <point x="372.9" y="349.6" type="curve"/>
      <point x="399.899" y="392.932"/>
      <point x="543.926" y="636.74"/>
      <point x="543.926" y="672.173" type="curve" smooth="yes"/>
      <point x="543.926" y="691.056"/>
      <point x="530.286" y="706.2"/>
      <point x="509.5" y="706.2" type="curve" smooth="yes"/>
      <point x="495.1" y="706.2"/>
      <point x="482.8" y="697.7"/>
      <point x="476" y="683.4" type="curve" smooth="yes"/>
      <point x="428.3" y="582.7"/>
      <point x="370" y="476.9"/>
      <point x="311.5" y="384.7" type="curve"/>
      <point x="249.2" y="506.2"/>
      <point x="200.2" y="582.2"/>
      <point x="113.2" y="691.7" type="curve" smooth="yes"/>
      <point x="105.6" y="701.2"/>
      <point x="95.5" y="706.4"/>
      <point x="84.6" y="706.4" type="curve" smooth="yes"/>
      <point x="63.5345" y="706.4"/>
      <point x="50.2769" y="691.109"/>
      <point x="50.2769" y="673.297" type="curve" smooth="yes"/>
      <point x="50.2769" y="664.981"/>
      <point x="53.1665" y="656.116"/>
      <point x="59.5" y="648" type="curve" smooth="yes"/>
      <point x="147.5" y="534.5"/>
      <point x="197.5" y="456.4"/>
      <point x="253.8" y="344.3" type="curve"/>
      <point x="217.8" y="343.8"/>
      <point x="182.2" y="344.7"/>
      <point x="147.2" y="347" type="curve" smooth="yes"/>
      <point x="124.6" y="348.5"/>
      <point x="108.4" y="335.1"/>
      <point x="108.4" y="315" type="curve" smooth="yes"/>
      <point x="108.4" y="296"/>
      <point x="123" y="281.8"/>
      <point x="143.2" y="281" type="curve" smooth="yes"/>
      <point x="192.7" y="278.9"/>
      <point x="235.1" y="278.3"/>
      <point x="275.4" y="279.1" type="curve"/>
      <point x="276.7" y="259.5"/>
      <point x="277.8" y="239.7"/>
      <point x="278.6" y="219.6" type="curve"/>
      <point x="233.2" y="218.4"/>
      <point x="189.3" y="219.2"/>
      <point x="147.2" y="222" type="curve" smooth="yes"/>
      <point x="124.6" y="223.5"/>
      <point x="108.4" y="210.1"/>
      <point x="108.4" y="190" type="curve" smooth="yes"/>
      <point x="108.4" y="171"/>
      <point x="123" y="156.8"/>
      <point x="143.2" y="156" type="curve" smooth="yes"/>
      <point x="195.4" y="153.8"/>
      <point x="239.1" y="153.2"/>
      <point x="280.6" y="154.1" type="curve"/>
      <point x="281.4" y="102.9"/>
      <point x="280.2" y="58.6"/>
      <point x="277.2" y="25.6" type="curve" smooth="yes"/>
      <point x="275.3" y="5.2"/>
      <point x="290.5" y="-10.2"/>
      <point x="312.2" y="-10.2" type="curve" smooth="yes"/>
      <point x="331.3" y="-10.2"/>
      <point x="345.2" y="2.1"/>
      <point x="346.8" y="20.1" type="curve" smooth="yes"/>
      <point x="350" y="56.1"/>
      <point x="351.4" y="104.7"/>
      <point x="350.8" y="157.2" type="curve"/>
      <point x="386.5" y="159.4"/>
      <point x="424.1" y="162.9"/>
    </contour>
  </outline>
</glyph>
